<svg xmlns="http://www.w3.org/2000/svg" xmlns:xlink="http://www.w3.org/1999/xlink" width="300" zoomAndPan="magnify" viewBox="0 0 224.87999 749.999995" height="1000" preserveAspectRatio="xMidYMid meet" version="1.0"><defs><clipPath id="c21ae7e6de"><path d="M 0 0.199219 L 224.761719 0.199219 L 224.761719 749.800781 L 0 749.800781 Z M 0 0.199219 " clip-rule="nonzero"/></clipPath><clipPath id="342899d5d3"><path d="M 0 360 L 172 360 L 172 749.800781 L 0 749.800781 Z M 0 360 " clip-rule="nonzero"/></clipPath><clipPath id="3995bb0c04"><path d="M 159.898438 347.949219 L 180.996094 882.746094 L -180.03125 896.988281 L -201.125 362.191406 Z M 159.898438 347.949219 " clip-rule="nonzero"/></clipPath><clipPath id="0d7128620d"><path d="M 159.898438 347.949219 L 180.996094 882.746094 L -180.03125 896.988281 L -201.125 362.191406 Z M 159.898438 347.949219 " clip-rule="nonzero"/></clipPath><clipPath id="3f00cf2e8b"><path d="M 93.902344 875.035156 C 137.617188 869.707031 171.148438 832.125 171.75 788.210938 C 172.320312 754.261719 153.972656 724.878906 126.839844 709.410156 C 113.375 701.671875 107.226562 685.585938 111.511719 670.574219 C 114.875 658.992188 116.503906 646.417969 116 633.71875 C 114.53125 596.457031 95.847656 563.90625 67.664062 543.390625 C 51.28125 531.523438 43.277344 511.484375 45.667969 491.460938 C 46.808594 482.722656 46.875 473.601562 45.878906 464.523438 C 39.523438 405.617188 -10.847656 360.53125 -70.0625 360.324219 C -137.339844 360.011719 -190.527344 415.753906 -187.902344 482.226562 C -186.816406 509.75 -176.289062 534.566406 -159.824219 553.847656 C -143.140625 573.332031 -142.871094 601.734375 -159.28125 621.464844 C -178.320312 644.480469 -188.792969 674.789062 -185.8125 707.324219 C -180.273438 767.113281 -129.207031 813.652344 -69.15625 813.617188 C -62.15625 813.550781 -55.59375 813.082031 -48.847656 811.96875 C -26.296875 808.109375 -3.859375 817.402344 8.984375 836.402344 C 26.800781 863.050781 58.847656 879.386719 93.902344 875.035156 Z M 93.902344 875.035156 " clip-rule="nonzero"/></clipPath><linearGradient x1="1.255193" gradientTransform="matrix(0.083514, 2.117041, -2.118699, 0.0835794, 160.021719, 351.035816)" y1="86.113998" x2="188.295325" gradientUnits="userSpaceOnUse" y2="86.113998" id="680d28ba8a"><stop stop-opacity="1" stop-color="rgb(0.183105%, 39.385986%, 0.196838%)" offset="0"/><stop stop-opacity="1" stop-color="rgb(0.289917%, 39.494324%, 0.311279%)" offset="0.0078125"/><stop stop-opacity="1" stop-color="rgb(0.505066%, 39.710999%, 0.541687%)" offset="0.015625"/><stop stop-opacity="1" stop-color="rgb(0.718689%, 39.927673%, 0.772095%)" offset="0.0234375"/><stop stop-opacity="1" stop-color="rgb(0.933838%, 40.144348%, 1.002502%)" offset="0.03125"/><stop stop-opacity="1" stop-color="rgb(1.147461%, 40.361023%, 1.23291%)" offset="0.0390625"/><stop stop-opacity="1" stop-color="rgb(1.36261%, 40.577698%, 1.463318%)" offset="0.046875"/><stop stop-opacity="1" stop-color="rgb(1.576233%, 40.794373%, 1.693726%)" offset="0.0546875"/><stop stop-opacity="1" stop-color="rgb(1.789856%, 41.011047%, 1.924133%)" offset="0.0625"/><stop stop-opacity="1" stop-color="rgb(2.005005%, 41.227722%, 2.154541%)" offset="0.0703125"/><stop stop-opacity="1" stop-color="rgb(2.218628%, 41.444397%, 2.384949%)" offset="0.078125"/><stop stop-opacity="1" stop-color="rgb(2.433777%, 41.661072%, 2.615356%)" offset="0.0859375"/><stop stop-opacity="1" stop-color="rgb(2.6474%, 41.877747%, 2.845764%)" offset="0.09375"/><stop stop-opacity="1" stop-color="rgb(2.862549%, 42.094421%, 3.076172%)" offset="0.101562"/><stop stop-opacity="1" stop-color="rgb(3.076172%, 42.311096%, 3.30658%)" offset="0.109375"/><stop stop-opacity="1" stop-color="rgb(3.291321%, 42.527771%, 3.536987%)" offset="0.117188"/><stop stop-opacity="1" stop-color="rgb(3.504944%, 42.744446%, 3.767395%)" offset="0.125"/><stop stop-opacity="1" stop-color="rgb(3.720093%, 42.961121%, 3.997803%)" offset="0.132812"/><stop stop-opacity="1" stop-color="rgb(3.933716%, 43.177795%, 4.22821%)" offset="0.140625"/><stop stop-opacity="1" stop-color="rgb(4.148865%, 43.39447%, 4.458618%)" offset="0.148438"/><stop stop-opacity="1" stop-color="rgb(4.362488%, 43.611145%, 4.689026%)" offset="0.15625"/><stop stop-opacity="1" stop-color="rgb(4.577637%, 43.82782%, 4.919434%)" offset="0.164063"/><stop stop-opacity="1" stop-color="rgb(4.79126%, 44.044495%, 5.149841%)" offset="0.171875"/><stop stop-opacity="1" stop-color="rgb(5.006409%, 44.261169%, 5.380249%)" offset="0.179688"/><stop stop-opacity="1" stop-color="rgb(5.220032%, 44.477844%, 5.610657%)" offset="0.1875"/><stop stop-opacity="1" stop-color="rgb(5.435181%, 44.694519%, 5.841064%)" offset="0.195313"/><stop stop-opacity="1" stop-color="rgb(5.648804%, 44.911194%, 6.071472%)" offset="0.203125"/><stop stop-opacity="1" stop-color="rgb(5.863953%, 45.127869%, 6.30188%)" offset="0.210938"/><stop stop-opacity="1" stop-color="rgb(6.077576%, 45.344543%, 6.532288%)" offset="0.21875"/><stop stop-opacity="1" stop-color="rgb(6.291199%, 45.562744%, 6.762695%)" offset="0.226563"/><stop stop-opacity="1" stop-color="rgb(6.506348%, 45.779419%, 6.993103%)" offset="0.234375"/><stop stop-opacity="1" stop-color="rgb(6.719971%, 45.996094%, 7.223511%)" offset="0.242188"/><stop stop-opacity="1" stop-color="rgb(6.93512%, 46.212769%, 7.453918%)" offset="0.25"/><stop stop-opacity="1" stop-color="rgb(7.148743%, 46.429443%, 7.684326%)" offset="0.257812"/><stop stop-opacity="1" stop-color="rgb(7.363892%, 46.646118%, 7.914734%)" offset="0.265625"/><stop stop-opacity="1" stop-color="rgb(7.577515%, 46.862793%, 8.145142%)" offset="0.273438"/><stop stop-opacity="1" stop-color="rgb(7.792664%, 47.079468%, 8.375549%)" offset="0.28125"/><stop stop-opacity="1" stop-color="rgb(8.006287%, 47.296143%, 8.605957%)" offset="0.289063"/><stop stop-opacity="1" stop-color="rgb(8.221436%, 47.512817%, 8.836365%)" offset="0.296875"/><stop stop-opacity="1" stop-color="rgb(8.435059%, 47.729492%, 9.066772%)" offset="0.304688"/><stop stop-opacity="1" stop-color="rgb(8.650208%, 47.946167%, 9.29718%)" offset="0.3125"/><stop stop-opacity="1" stop-color="rgb(8.863831%, 48.162842%, 9.526062%)" offset="0.320313"/><stop stop-opacity="1" stop-color="rgb(9.078979%, 48.379517%, 9.75647%)" offset="0.328125"/><stop stop-opacity="1" stop-color="rgb(9.292603%, 48.596191%, 9.986877%)" offset="0.335938"/><stop stop-opacity="1" stop-color="rgb(9.507751%, 48.812866%, 10.217285%)" offset="0.34375"/><stop stop-opacity="1" stop-color="rgb(9.721375%, 49.029541%, 10.447693%)" offset="0.351563"/><stop stop-opacity="1" stop-color="rgb(9.936523%, 49.246216%, 10.678101%)" offset="0.359375"/><stop stop-opacity="1" stop-color="rgb(10.150146%, 49.462891%, 10.908508%)" offset="0.367188"/><stop stop-opacity="1" stop-color="rgb(10.365295%, 49.679565%, 11.138916%)" offset="0.375"/><stop stop-opacity="1" stop-color="rgb(10.578918%, 49.89624%, 11.369324%)" offset="0.382812"/><stop stop-opacity="1" stop-color="rgb(10.792542%, 50.112915%, 11.599731%)" offset="0.390625"/><stop stop-opacity="1" stop-color="rgb(11.00769%, 50.32959%, 11.830139%)" offset="0.398438"/><stop stop-opacity="1" stop-color="rgb(11.221313%, 50.546265%, 12.060547%)" offset="0.40625"/><stop stop-opacity="1" stop-color="rgb(11.436462%, 50.762939%, 12.290955%)" offset="0.414063"/><stop stop-opacity="1" stop-color="rgb(11.650085%, 50.979614%, 12.521362%)" offset="0.421875"/><stop stop-opacity="1" stop-color="rgb(11.865234%, 51.196289%, 12.75177%)" offset="0.429688"/><stop stop-opacity="1" stop-color="rgb(12.078857%, 51.412964%, 12.982178%)" offset="0.4375"/><stop stop-opacity="1" stop-color="rgb(12.294006%, 51.629639%, 13.212585%)" offset="0.445313"/><stop stop-opacity="1" stop-color="rgb(12.507629%, 51.846313%, 13.442993%)" offset="0.453125"/><stop stop-opacity="1" stop-color="rgb(12.722778%, 52.064514%, 13.673401%)" offset="0.460938"/><stop stop-opacity="1" stop-color="rgb(12.936401%, 52.281189%, 13.903809%)" offset="0.46875"/><stop stop-opacity="1" stop-color="rgb(13.15155%, 52.497864%, 14.134216%)" offset="0.476562"/><stop stop-opacity="1" stop-color="rgb(13.365173%, 52.714539%, 14.364624%)" offset="0.484375"/><stop stop-opacity="1" stop-color="rgb(13.580322%, 52.931213%, 14.595032%)" offset="0.492188"/><stop stop-opacity="1" stop-color="rgb(13.793945%, 53.147888%, 14.825439%)" offset="0.5"/><stop stop-opacity="1" stop-color="rgb(14.009094%, 53.364563%, 15.055847%)" offset="0.507813"/><stop stop-opacity="1" stop-color="rgb(14.222717%, 53.581238%, 15.286255%)" offset="0.515625"/><stop stop-opacity="1" stop-color="rgb(14.437866%, 53.797913%, 15.516663%)" offset="0.523438"/><stop stop-opacity="1" stop-color="rgb(14.651489%, 54.014587%, 15.74707%)" offset="0.53125"/><stop stop-opacity="1" stop-color="rgb(14.866638%, 54.231262%, 15.977478%)" offset="0.539062"/><stop stop-opacity="1" stop-color="rgb(15.080261%, 54.447937%, 16.207886%)" offset="0.546875"/><stop stop-opacity="1" stop-color="rgb(15.293884%, 54.664612%, 16.438293%)" offset="0.554688"/><stop stop-opacity="1" stop-color="rgb(15.509033%, 54.881287%, 16.668701%)" offset="0.5625"/><stop stop-opacity="1" stop-color="rgb(15.722656%, 55.097961%, 16.899109%)" offset="0.570313"/><stop stop-opacity="1" stop-color="rgb(15.937805%, 55.314636%, 17.129517%)" offset="0.578125"/><stop stop-opacity="1" stop-color="rgb(16.151428%, 55.531311%, 17.359924%)" offset="0.585938"/><stop stop-opacity="1" stop-color="rgb(16.366577%, 55.747986%, 17.590332%)" offset="0.59375"/><stop stop-opacity="1" stop-color="rgb(16.5802%, 55.964661%, 17.82074%)" offset="0.601562"/><stop stop-opacity="1" stop-color="rgb(16.795349%, 56.181335%, 18.051147%)" offset="0.609375"/><stop stop-opacity="1" stop-color="rgb(17.008972%, 56.39801%, 18.281555%)" offset="0.617188"/><stop stop-opacity="1" stop-color="rgb(17.224121%, 56.614685%, 18.511963%)" offset="0.625"/><stop stop-opacity="1" stop-color="rgb(17.437744%, 56.83136%, 18.742371%)" offset="0.632812"/><stop stop-opacity="1" stop-color="rgb(17.652893%, 57.048035%, 18.972778%)" offset="0.640625"/><stop stop-opacity="1" stop-color="rgb(17.866516%, 57.264709%, 19.203186%)" offset="0.648438"/><stop stop-opacity="1" stop-color="rgb(18.081665%, 57.481384%, 19.433594%)" offset="0.65625"/><stop stop-opacity="1" stop-color="rgb(18.295288%, 57.698059%, 19.664001%)" offset="0.664062"/><stop stop-opacity="1" stop-color="rgb(18.510437%, 57.914734%, 19.894409%)" offset="0.671875"/><stop stop-opacity="1" stop-color="rgb(18.72406%, 58.131409%, 20.124817%)" offset="0.679687"/><stop stop-opacity="1" stop-color="rgb(18.939209%, 58.348083%, 20.355225%)" offset="0.6875"/><stop stop-opacity="1" stop-color="rgb(19.152832%, 58.564758%, 20.585632%)" offset="0.695312"/><stop stop-opacity="1" stop-color="rgb(19.367981%, 58.782959%, 20.81604%)" offset="0.703125"/><stop stop-opacity="1" stop-color="rgb(19.581604%, 58.999634%, 21.046448%)" offset="0.710937"/><stop stop-opacity="1" stop-color="rgb(19.795227%, 59.216309%, 21.276855%)" offset="0.71875"/><stop stop-opacity="1" stop-color="rgb(20.010376%, 59.432983%, 21.507263%)" offset="0.726562"/><stop stop-opacity="1" stop-color="rgb(20.223999%, 59.649658%, 21.737671%)" offset="0.734375"/><stop stop-opacity="1" stop-color="rgb(20.439148%, 59.866333%, 21.968079%)" offset="0.742187"/><stop stop-opacity="1" stop-color="rgb(20.652771%, 60.083008%, 22.198486%)" offset="0.75"/><stop stop-opacity="1" stop-color="rgb(20.86792%, 60.299683%, 22.428894%)" offset="0.757812"/><stop stop-opacity="1" stop-color="rgb(21.081543%, 60.516357%, 22.657776%)" offset="0.765625"/><stop stop-opacity="1" stop-color="rgb(21.296692%, 60.733032%, 22.888184%)" offset="0.773438"/><stop stop-opacity="1" stop-color="rgb(21.510315%, 60.949707%, 23.118591%)" offset="0.78125"/><stop stop-opacity="1" stop-color="rgb(21.725464%, 61.166382%, 23.348999%)" offset="0.789062"/><stop stop-opacity="1" stop-color="rgb(21.939087%, 61.383057%, 23.579407%)" offset="0.796875"/><stop stop-opacity="1" stop-color="rgb(22.154236%, 61.599731%, 23.809814%)" offset="0.804687"/><stop stop-opacity="1" stop-color="rgb(22.367859%, 61.816406%, 24.040222%)" offset="0.8125"/><stop stop-opacity="1" stop-color="rgb(22.583008%, 62.033081%, 24.27063%)" offset="0.820312"/><stop stop-opacity="1" stop-color="rgb(22.796631%, 62.249756%, 24.501038%)" offset="0.828125"/><stop stop-opacity="1" stop-color="rgb(23.01178%, 62.466431%, 24.731445%)" offset="0.835937"/><stop stop-opacity="1" stop-color="rgb(23.225403%, 62.683105%, 24.961853%)" offset="0.84375"/><stop stop-opacity="1" stop-color="rgb(23.440552%, 62.89978%, 25.192261%)" offset="0.851562"/><stop stop-opacity="1" stop-color="rgb(23.654175%, 63.116455%, 25.422668%)" offset="0.859375"/><stop stop-opacity="1" stop-color="rgb(23.869324%, 63.33313%, 25.653076%)" offset="0.867187"/><stop stop-opacity="1" stop-color="rgb(24.082947%, 63.549805%, 25.883484%)" offset="0.875"/><stop stop-opacity="1" stop-color="rgb(24.29657%, 63.766479%, 26.113892%)" offset="0.882812"/><stop stop-opacity="1" stop-color="rgb(24.511719%, 63.983154%, 26.344299%)" offset="0.890625"/><stop stop-opacity="1" stop-color="rgb(24.725342%, 64.199829%, 26.574707%)" offset="0.898437"/><stop stop-opacity="1" stop-color="rgb(24.940491%, 64.416504%, 26.805115%)" offset="0.90625"/><stop stop-opacity="1" stop-color="rgb(25.154114%, 64.633179%, 27.035522%)" offset="0.914062"/><stop stop-opacity="1" stop-color="rgb(25.369263%, 64.849854%, 27.26593%)" offset="0.921875"/><stop stop-opacity="1" stop-color="rgb(25.582886%, 65.066528%, 27.496338%)" offset="0.929688"/><stop stop-opacity="1" stop-color="rgb(25.798035%, 65.283203%, 27.726746%)" offset="0.9375"/><stop stop-opacity="1" stop-color="rgb(26.011658%, 65.501404%, 27.957153%)" offset="0.945312"/><stop stop-opacity="1" stop-color="rgb(26.226807%, 65.718079%, 28.187561%)" offset="0.953125"/><stop stop-opacity="1" stop-color="rgb(26.44043%, 65.934753%, 28.417969%)" offset="0.960938"/><stop stop-opacity="1" stop-color="rgb(26.655579%, 66.151428%, 28.648376%)" offset="0.96875"/><stop stop-opacity="1" stop-color="rgb(26.869202%, 66.368103%, 28.878784%)" offset="0.976563"/><stop stop-opacity="1" stop-color="rgb(27.084351%, 66.584778%, 29.109192%)" offset="0.984375"/><stop stop-opacity="1" stop-color="rgb(27.297974%, 66.801453%, 29.3396%)" offset="0.992188"/><stop stop-opacity="1" stop-color="rgb(27.513123%, 67.018127%, 29.570007%)" offset="1"/></linearGradient><clipPath id="1a55027ae8"><path d="M 56 467 L 108 467 L 108 518 L 56 518 Z M 56 467 " clip-rule="nonzero"/></clipPath><clipPath id="e0f0eae524"><path d="M 159.898438 347.949219 L 180.996094 882.746094 L -180.03125 896.988281 L -201.125 362.191406 Z M 159.898438 347.949219 " clip-rule="nonzero"/></clipPath><clipPath id="695ff7f580"><path d="M 159.898438 347.949219 L 180.996094 882.746094 L -180.03125 896.988281 L -201.125 362.191406 Z M 159.898438 347.949219 " clip-rule="nonzero"/></clipPath><clipPath id="412b905cf7"><path d="M 83.203125 517.757812 C 82.378906 517.789062 81.554688 517.78125 80.726562 517.730469 C 79.902344 517.683594 79.082031 517.59375 78.265625 517.464844 C 77.449219 517.335938 76.640625 517.167969 75.84375 516.960938 C 75.042969 516.75 74.253906 516.503906 73.480469 516.21875 C 72.703125 515.933594 71.945312 515.609375 71.203125 515.25 C 70.457031 514.890625 69.734375 514.496094 69.03125 514.0625 C 68.324219 513.632812 67.644531 513.167969 66.984375 512.667969 C 66.324219 512.171875 65.691406 511.640625 65.085938 511.082031 C 64.476562 510.519531 63.898438 509.929688 63.351562 509.3125 C 62.800781 508.695312 62.285156 508.054688 61.800781 507.386719 C 61.3125 506.71875 60.859375 506.027344 60.441406 505.316406 C 60.023438 504.605469 59.644531 503.871094 59.296875 503.121094 C 58.953125 502.375 58.644531 501.609375 58.371094 500.828125 C 58.101562 500.046875 57.867188 499.257812 57.675781 498.453125 C 57.484375 497.652344 57.328125 496.839844 57.214844 496.023438 C 57.101562 495.203125 57.03125 494.382812 56.996094 493.558594 C 56.964844 492.734375 56.972656 491.90625 57.023438 491.082031 C 57.070312 490.257812 57.160156 489.441406 57.289062 488.625 C 57.417969 487.808594 57.585938 487 57.796875 486.203125 C 58.003906 485.402344 58.25 484.617188 58.535156 483.839844 C 58.824219 483.066406 59.144531 482.308594 59.507812 481.566406 C 59.867188 480.820312 60.261719 480.097656 60.695312 479.394531 C 61.125 478.691406 61.589844 478.007812 62.089844 477.351562 C 62.589844 476.691406 63.117188 476.058594 63.679688 475.453125 C 64.242188 474.847656 64.828125 474.269531 65.449219 473.71875 C 66.066406 473.171875 66.707031 472.652344 67.375 472.167969 C 68.046875 471.683594 68.734375 471.230469 69.449219 470.8125 C 70.160156 470.394531 70.894531 470.015625 71.644531 469.667969 C 72.394531 469.324219 73.160156 469.015625 73.941406 468.742188 C 74.722656 468.472656 75.511719 468.242188 76.316406 468.046875 C 77.121094 467.855469 77.929688 467.703125 78.75 467.589844 C 79.570312 467.476562 80.390625 467.402344 81.214844 467.371094 C 82.042969 467.339844 82.867188 467.347656 83.691406 467.394531 C 84.515625 467.441406 85.339844 467.53125 86.15625 467.660156 C 86.96875 467.789062 87.777344 467.957031 88.578125 468.167969 C 89.378906 468.375 90.164062 468.621094 90.941406 468.90625 C 91.714844 469.191406 92.476562 469.515625 93.21875 469.875 C 93.960938 470.238281 94.6875 470.632812 95.390625 471.0625 C 96.097656 471.496094 96.777344 471.960938 97.4375 472.457031 C 98.09375 472.957031 98.730469 473.484375 99.335938 474.046875 C 99.941406 474.605469 100.519531 475.195312 101.070312 475.8125 C 101.617188 476.429688 102.136719 477.070312 102.621094 477.738281 C 103.105469 478.40625 103.558594 479.097656 103.976562 479.808594 C 104.394531 480.523438 104.777344 481.253906 105.125 482.003906 C 105.46875 482.753906 105.777344 483.519531 106.046875 484.296875 C 106.320312 485.078125 106.550781 485.871094 106.746094 486.671875 C 106.9375 487.476562 107.089844 488.285156 107.203125 489.105469 C 107.316406 489.921875 107.390625 490.742188 107.421875 491.570312 C 107.457031 492.394531 107.449219 493.21875 107.398438 494.042969 C 107.351562 494.867188 107.261719 495.6875 107.132812 496.503906 C 107.003906 497.316406 106.835938 498.125 106.625 498.925781 C 106.417969 499.722656 106.167969 500.511719 105.882812 501.285156 C 105.597656 502.058594 105.273438 502.820312 104.914062 503.5625 C 104.554688 504.304688 104.15625 505.027344 103.726562 505.734375 C 103.292969 506.4375 102.828125 507.117188 102.332031 507.777344 C 101.832031 508.433594 101.300781 509.066406 100.742188 509.675781 C 100.179688 510.28125 99.589844 510.859375 98.972656 511.40625 C 98.355469 511.957031 97.710938 512.472656 97.042969 512.957031 C 96.375 513.441406 95.683594 513.894531 94.972656 514.3125 C 94.257812 514.730469 93.527344 515.113281 92.777344 515.457031 C 92.027344 515.804688 91.261719 516.113281 90.480469 516.382812 C 89.699219 516.652344 88.90625 516.886719 88.105469 517.078125 C 87.300781 517.269531 86.488281 517.425781 85.671875 517.539062 C 84.851562 517.652344 84.03125 517.722656 83.203125 517.757812 Z M 83.203125 517.757812 " clip-rule="nonzero"/></clipPath><linearGradient x1="52.933448" gradientTransform="matrix(0.083514, 2.117041, -2.118699, 0.0835794, 160.021719, 351.035816)" y1="86.113998" x2="77.666547" gradientUnits="userSpaceOnUse" y2="86.113998" id="f8498d4f7d"><stop stop-opacity="1" stop-color="rgb(7.763672%, 47.050476%, 8.345032%)" offset="0"/><stop stop-opacity="1" stop-color="rgb(7.876587%, 47.164917%, 8.467102%)" offset="0.0625"/><stop stop-opacity="1" stop-color="rgb(8.103943%, 47.393799%, 8.709717%)" offset="0.125"/><stop stop-opacity="1" stop-color="rgb(8.329773%, 47.622681%, 8.953857%)" offset="0.1875"/><stop stop-opacity="1" stop-color="rgb(8.557129%, 47.851562%, 9.197998%)" offset="0.25"/><stop stop-opacity="1" stop-color="rgb(8.784485%, 48.08197%, 9.440613%)" offset="0.3125"/><stop stop-opacity="1" stop-color="rgb(9.010315%, 48.310852%, 9.684753%)" offset="0.375"/><stop stop-opacity="1" stop-color="rgb(9.237671%, 48.539734%, 9.928894%)" offset="0.4375"/><stop stop-opacity="1" stop-color="rgb(9.463501%, 48.768616%, 10.173035%)" offset="0.5"/><stop stop-opacity="1" stop-color="rgb(9.690857%, 48.999023%, 10.415649%)" offset="0.5625"/><stop stop-opacity="1" stop-color="rgb(9.918213%, 49.227905%, 10.65979%)" offset="0.625"/><stop stop-opacity="1" stop-color="rgb(10.144043%, 49.456787%, 10.903931%)" offset="0.6875"/><stop stop-opacity="1" stop-color="rgb(10.371399%, 49.685669%, 11.146545%)" offset="0.75"/><stop stop-opacity="1" stop-color="rgb(10.597229%, 49.916077%, 11.390686%)" offset="0.8125"/><stop stop-opacity="1" stop-color="rgb(10.824585%, 50.144958%, 11.634827%)" offset="0.875"/><stop stop-opacity="1" stop-color="rgb(11.051941%, 50.37384%, 11.878967%)" offset="0.9375"/><stop stop-opacity="1" stop-color="rgb(11.277771%, 50.602722%, 12.121582%)" offset="1"/></linearGradient><clipPath id="3a4011c828"><path d="M 140 612 L 171 612 L 171 643 L 140 643 Z M 140 612 " clip-rule="nonzero"/></clipPath><clipPath id="12e3722133"><path d="M 159.898438 347.949219 L 180.996094 882.746094 L -180.03125 896.988281 L -201.125 362.191406 Z M 159.898438 347.949219 " clip-rule="nonzero"/></clipPath><clipPath id="fabb132627"><path d="M 159.898438 347.949219 L 180.996094 882.746094 L -180.03125 896.988281 L -201.125 362.191406 Z M 159.898438 347.949219 " clip-rule="nonzero"/></clipPath><clipPath id="3c02a9507d"><path d="M 156.445312 642.300781 C 155.457031 642.339844 154.476562 642.28125 153.5 642.125 C 152.523438 641.972656 151.570312 641.722656 150.644531 641.382812 C 149.714844 641.039062 148.832031 640.613281 147.988281 640.09375 C 147.144531 639.578125 146.359375 638.988281 145.636719 638.316406 C 144.910156 637.644531 144.253906 636.910156 143.675781 636.113281 C 143.09375 635.3125 142.59375 634.464844 142.183594 633.566406 C 141.769531 632.671875 141.445312 631.742188 141.214844 630.78125 C 140.984375 629.820312 140.847656 628.847656 140.808594 627.863281 C 140.769531 626.875 140.828125 625.894531 140.984375 624.917969 C 141.136719 623.941406 141.386719 622.992188 141.726562 622.0625 C 142.070312 621.136719 142.5 620.253906 143.015625 619.410156 C 143.53125 618.566406 144.125 617.785156 144.796875 617.058594 C 145.46875 616.332031 146.203125 615.679688 147.003906 615.101562 C 147.800781 614.519531 148.652344 614.023438 149.546875 613.609375 C 150.445312 613.195312 151.375 612.871094 152.335938 612.640625 C 153.296875 612.410156 154.273438 612.277344 155.257812 612.238281 C 156.246094 612.199219 157.230469 612.253906 158.207031 612.410156 C 159.183594 612.5625 160.132812 612.8125 161.0625 613.152344 C 161.988281 613.496094 162.875 613.925781 163.714844 614.441406 C 164.558594 614.957031 165.34375 615.550781 166.070312 616.21875 C 166.796875 616.890625 167.449219 617.625 168.03125 618.421875 C 168.613281 619.222656 169.109375 620.070312 169.523438 620.96875 C 169.9375 621.863281 170.257812 622.792969 170.492188 623.753906 C 170.722656 624.714844 170.855469 625.6875 170.894531 626.675781 C 170.933594 627.660156 170.875 628.644531 170.722656 629.617188 C 170.566406 630.59375 170.320312 631.546875 169.976562 632.472656 C 169.636719 633.398438 169.207031 634.28125 168.691406 635.125 C 168.171875 635.96875 167.578125 636.75 166.910156 637.476562 C 166.238281 638.203125 165.503906 638.855469 164.703125 639.4375 C 163.902344 640.015625 163.054688 640.515625 162.15625 640.925781 C 161.257812 641.339844 160.328125 641.664062 159.367188 641.894531 C 158.40625 642.125 157.433594 642.261719 156.445312 642.300781 Z M 156.445312 642.300781 " clip-rule="nonzero"/></clipPath><linearGradient x1="122.812049" gradientTransform="matrix(0.083514, 2.117041, -2.118699, 0.0835794, 160.021719, 351.035816)" y1="86.113998" x2="137.587933" gradientUnits="userSpaceOnUse" y2="86.113998" id="7fa4b1e9d5"><stop stop-opacity="1" stop-color="rgb(18.014526%, 57.414246%, 19.361877%)" offset="0"/><stop stop-opacity="1" stop-color="rgb(18.148804%, 57.550049%, 19.506836%)" offset="0.125"/><stop stop-opacity="1" stop-color="rgb(18.42041%, 57.824707%, 19.798279%)" offset="0.25"/><stop stop-opacity="1" stop-color="rgb(18.692017%, 58.097839%, 20.089722%)" offset="0.375"/><stop stop-opacity="1" stop-color="rgb(18.962097%, 58.372498%, 20.379639%)" offset="0.5"/><stop stop-opacity="1" stop-color="rgb(19.233704%, 58.64563%, 20.671082%)" offset="0.625"/><stop stop-opacity="1" stop-color="rgb(19.503784%, 58.920288%, 20.962524%)" offset="0.75"/><stop stop-opacity="1" stop-color="rgb(19.775391%, 59.194946%, 21.253967%)" offset="0.875"/><stop stop-opacity="1" stop-color="rgb(20.045471%, 59.468079%, 21.54541%)" offset="1"/></linearGradient></defs><g clip-path="url(#c21ae7e6de)"><path fill="#ffffff" d="M 0 0.199219 L 224.878906 0.199219 L 224.878906 757.296875 L 0 757.296875 Z M 0 0.199219 " fill-opacity="1" fill-rule="nonzero"/><path fill="#ffffff" d="M 0 0.199219 L 224.878906 0.199219 L 224.878906 749.800781 L 0 749.800781 Z M 0 0.199219 " fill-opacity="1" fill-rule="nonzero"/><path fill="#ffffff" d="M 0 0.199219 L 224.878906 0.199219 L 224.878906 749.800781 L 0 749.800781 Z M 0 0.199219 " fill-opacity="1" fill-rule="nonzero"/></g><g clip-path="url(#342899d5d3)"><g clip-path="url(#3995bb0c04)"><g clip-path="url(#0d7128620d)"><g clip-path="url(#3f00cf2e8b)"><path fill="url(#680d28ba8a)" d="M 172.054688 353.222656 L -15.351562 360.617188 L 0.269531 756.585938 L 187.671875 749.195312 Z M 172.054688 353.222656 " fill-rule="nonzero"/></g></g></g></g><g clip-path="url(#1a55027ae8)"><g clip-path="url(#e0f0eae524)"><g clip-path="url(#695ff7f580)"><g clip-path="url(#412b905cf7)"><path fill="url(#f8498d4f7d)" d="M 107.375 465.347656 L 54.976562 467.417969 L 57.042969 519.777344 L 109.441406 517.710938 Z M 107.375 465.347656 " fill-rule="nonzero"/></g></g></g></g><g clip-path="url(#3a4011c828)"><g clip-path="url(#12e3722133)"><g clip-path="url(#fabb132627)"><g clip-path="url(#3c02a9507d)"><path fill="url(#7fa4b1e9d5)" d="M 170.886719 611.011719 L 139.582031 612.246094 L 140.816406 643.527344 L 172.121094 642.292969 Z M 170.886719 611.011719 " fill-rule="nonzero"/></g></g></g></g></svg>