<svg xmlns="http://www.w3.org/2000/svg" xmlns:xlink="http://www.w3.org/1999/xlink" width="1920" zoomAndPan="magnify" viewBox="0 0 1440 809.999993" height="1080" preserveAspectRatio="xMidYMid meet" version="1.0"><defs><clipPath id="47921a6a8e"><path d="M 209 687 L 388.398438 687 L 388.398438 810 L 209 810 Z M 209 687 " clip-rule="nonzero"/></clipPath><clipPath id="fb436360c6"><path d="M 0 602.425781 L 80 602.425781 L 80 810 L 0 810 Z M 0 602.425781 " clip-rule="nonzero"/></clipPath><clipPath id="e9a84dcda8"><path d="M 441 695.070312 L 706 695.070312 L 706 810 L 441 810 Z M 441 695.070312 " clip-rule="nonzero"/></clipPath></defs><g clip-path="url(#47921a6a8e)"><path fill="#4d9b44" d="M 213.074219 813.925781 C 213.074219 813.925781 201.433594 774.722656 218.71875 749.886719 C 218.71875 749.886719 240.675781 786.230469 243.128906 792.417969 C 245.585938 798.605469 252.714844 794.296875 249.179688 788.636719 C 245.644531 782.976562 225.847656 753.460938 227.003906 738.78125 C 228.164062 724.105469 249.109375 715.46875 249.109375 715.46875 C 249.109375 715.46875 265.082031 757.785156 271.070312 762.121094 C 277.058594 766.457031 278.226562 762.304688 278.035156 759.292969 C 277.84375 756.28125 255.316406 729.003906 256.820312 714.292969 C 256.820312 714.292969 256.601562 706.390625 266.957031 701.503906 C 277.308594 696.613281 285.535156 692.09375 288.914062 693.230469 C 292.292969 694.363281 293.425781 698.117188 294.195312 704.332031 C 294.964844 710.546875 303.371094 733.488281 307.519531 734.25 C 311.667969 735.011719 310.898438 728.042969 309.578125 725.023438 C 308.253906 722.003906 294.746094 697.382812 298.34375 691.167969 C 299.554688 690.085938 300.925781 689.269531 302.457031 688.71875 C 303.984375 688.164062 305.558594 687.914062 307.183594 687.96875 C 312.617188 688.15625 315.824219 711.28125 315.824219 711.28125 C 315.824219 711.28125 316.59375 713.453125 318.097656 712.527344 C 319.601562 711.601562 318.652344 708.5625 318.175781 706.972656 C 317.699219 705.378906 314.796875 690.027344 317.25 688.15625 C 319.707031 686.289062 345.597656 685.699219 358.003906 715.988281 C 358.003906 715.988281 356.503906 724.261719 346.769531 728.042969 C 337.039062 731.824219 334.507812 735.175781 335.277344 738.636719 C 336.046875 742.097656 342.589844 735.625 345.042969 733.929688 C 347.496094 732.230469 360.0625 723.785156 362.515625 723.785156 C 364.972656 723.785156 371.882812 735.175781 373.976562 757.222656 C 373.976562 757.222656 371.332031 766.640625 345.597656 775.648438 C 345.597656 775.648438 342.777344 778.183594 344.730469 780.175781 C 346.683594 782.164062 367.589844 771.234375 374.902344 763.730469 C 374.902344 763.730469 383.164062 770.890625 381.867188 785.746094 C 381.867188 785.746094 377.90625 793.726562 360.167969 797.507812 C 342.425781 801.289062 349.078125 803.324219 349.078125 803.324219 C 352.183594 803.589844 355.1875 803.148438 358.082031 802 C 363.171875 800.121094 379.117188 795.078125 381.210938 795.820312 C 383.300781 796.566406 388.070312 813.925781 388.070312 813.925781 Z M 213.074219 813.925781 " fill-opacity="1" fill-rule="evenodd"/></g><g clip-path="url(#fb436360c6)"><path fill="#4d9b44" d="M 30.292969 813.925781 L 0.226562 813.925781 L 0.226562 667.265625 C 0.226562 667.265625 17.234375 633.828125 29.253906 630.160156 C 29.253906 630.160156 34.386719 636.902344 35.847656 652.609375 C 35.847656 652.609375 38.050781 643.089844 32.632812 625.597656 C 32.632812 625.597656 52.113281 603.601562 78.203125 602.425781 C 78.203125 602.425781 80.09375 610.058594 79.515625 626.195312 L 69.835938 631.90625 L 79.082031 629.414062 C 79.082031 629.414062 79.945312 672.113281 74.105469 695.304688 C 74.105469 695.304688 69.265625 699.703125 50.21875 704.402344 L 72.039062 702.628906 C 72.039062 702.628906 72.332031 710.414062 68.667969 712.320312 C 65.003906 714.222656 44.351562 719.511719 44.351562 719.511719 L 67.496094 717.453125 C 67.496094 717.453125 55.492188 776.878906 30.292969 813.925781 Z M 30.292969 813.925781 " fill-opacity="1" fill-rule="evenodd"/></g><path fill="#30833f" d="M 73.855469 762.433594 L 72.238281 780.113281 C 72.238281 780.113281 76.300781 764.347656 77.769531 761.550781 C 79.238281 758.757812 85.15625 758.953125 85.15625 758.953125 L 83.765625 775.621094 C 87.386719 761.082031 90.742188 757.398438 90.742188 757.398438 C 108.421875 752.976562 140.949219 753.726562 140.949219 753.726562 L 139.03125 760.78125 L 143.394531 753.398438 C 155.699219 752.992188 161.542969 754.453125 161.542969 754.453125 C 160.59375 774.359375 143.792969 789.21875 143.792969 789.21875 C 130.5 785.046875 123.226562 786.707031 123.226562 786.707031 C 135.183594 787.859375 140.320312 791.789062 140.320312 791.789062 C 137.457031 801.003906 111.949219 813.925781 111.949219 813.925781 L 0.226562 813.621094 L 0.285156 790.664062 C 28.5625 771.519531 73.855469 762.433594 73.855469 762.433594 Z M 73.855469 762.433594 " fill-opacity="1" fill-rule="evenodd"/><path fill="#205732" d="M 116.984375 801.046875 C 126.398438 809.214844 131.375 813.925781 131.375 813.925781 L 118.410156 813.925781 C 118.410156 813.925781 94.558594 791.589844 88.484375 770.757812 C 88.492188 770.757812 107.539062 792.871094 116.984375 801.046875 Z M 132.023438 764.035156 L 155.855469 813.925781 L 165.136719 813.925781 C 151.070312 782.425781 132.023438 764.035156 132.023438 764.035156 Z M 172.25 813.925781 L 180.253906 813.925781 C 176.589844 788.230469 153.1875 757.90625 153.1875 757.90625 Z M 137.46875 796.070312 C 125.773438 788.230469 110.097656 763.558594 110.097656 763.558594 C 111.050781 775.242188 121.332031 790.773438 127.054688 797.351562 C 132.773438 803.929688 139.6875 813.925781 139.6875 813.925781 L 148.65625 813.925781 C 148.65625 813.925781 149.132812 803.929688 137.46875 796.070312 Z M 197.535156 813.925781 L 206.980469 813.925781 C 206.167969 795.128906 195.746094 754.6875 195.746094 754.6875 Z M 175.300781 754.210938 C 175.300781 754.210938 175.929688 760.945312 177.210938 771.191406 C 178.488281 781.4375 185.058594 813.925781 185.058594 813.925781 L 194.667969 813.925781 C 194.667969 813.925781 194.355469 807.867188 191.140625 797.800781 C 187.925781 787.738281 175.300781 754.210938 175.300781 754.210938 Z M 246.015625 787.097656 C 246.015625 787.097656 236.097656 798.695312 231.464844 813.925781 L 241.695312 813.925781 C 244.847656 805.257812 246.289062 796.316406 246.015625 787.097656 Z M 210.984375 813.925781 L 224.050781 813.925781 C 222.769531 790.957031 217.480469 761.136719 217.480469 761.136719 Z M 15.261719 713.929688 C 21.832031 704.019531 42.648438 690.816406 42.648438 690.816406 C 32.804688 691.621094 19.722656 700.273438 14.183594 705.136719 C 8.644531 710 0.226562 715.808594 0.226562 715.808594 L 0.226562 723.386719 C 0.226562 723.386719 8.644531 723.785156 15.261719 713.929688 Z M 0.226562 743.308594 L 0.226562 750.066406 C 21.832031 746.976562 47.410156 727.246094 47.410156 727.246094 Z M 42.25 709.332031 L 0.226562 729.460938 L 0.226562 737.3125 C 26.757812 725.421875 42.25 709.332031 42.25 709.332031 Z M 36.582031 672.5625 C 19.039062 677.695312 0.226562 697.839844 0.226562 697.839844 L 0.226562 708.78125 C 0.226562 708.78125 4.191406 704.609375 11.070312 696.664062 C 17.949219 688.71875 36.582031 672.5625 36.582031 672.5625 Z M 0.226562 793.335938 L 0.226562 801.992188 C 7.535156 804.660156 15.074219 805.871094 22.851562 805.632812 C 16.070312 800.132812 8.527344 796.035156 0.226562 793.335938 Z M 0.226562 776.027344 L 0.226562 787.097656 C 19.566406 786.015625 44.714844 781.550781 44.714844 781.550781 Z M 0.226562 764.675781 L 0.226562 772.652344 C 16.058594 771.96875 50.125 763.195312 50.125 763.195312 Z M 50.523438 745.894531 C 50.523438 745.894531 44.851562 746.425781 36.21875 747.507812 C 27.585938 748.585938 0.226562 754.136719 0.226562 754.136719 L 0.226562 762.242188 C 0.226562 762.242188 5.308594 761.976562 13.800781 759.265625 C 22.296875 756.558594 50.523438 745.894531 50.523438 745.894531 Z M 50.523438 745.894531 " fill-opacity="1" fill-rule="nonzero"/><path fill="#4d9b44" d="M 369.945312 789.105469 L 369.945312 813.570312 L 489.070312 813.570312 C 489.070312 813.570312 516.25 799.730469 519.230469 789.945312 C 519.230469 789.945312 513.753906 785.800781 500.992188 784.589844 C 500.992188 784.589844 508.738281 782.796875 522.941406 787.199219 C 522.941406 787.199219 540.808594 771.351562 541.773438 750.117188 C 541.773438 750.117188 535.558594 748.582031 522.453125 749.078125 L 517.8125 756.953125 L 519.832031 749.433594 C 519.832031 749.433594 485.132812 748.726562 466.289062 753.480469 C 466.289062 753.480469 462.71875 757.417969 458.894531 772.925781 L 460.335938 755.160156 C 460.335938 755.160156 454.003906 754.921875 452.460938 757.90625 C 450.917969 760.886719 446.621094 777.699219 446.621094 777.699219 L 448.289062 758.859375 C 448.289062 758.859375 400.058594 768.605469 369.945312 789.105469 Z M 369.945312 789.105469 " fill-opacity="1" fill-rule="evenodd"/><path fill="#4d9b44" d="M 816.878906 813.570312 C 816.878906 813.570312 826.410156 781.460938 812.25 761.179688 C 812.25 761.179688 794.257812 790.886719 792.25 795.972656 C 790.238281 801.058594 784.398438 797.503906 787.316406 792.863281 C 790.238281 788.222656 806.410156 764.089844 805.476562 752.09375 C 804.542969 740.097656 787.316406 733.023438 787.316406 733.023438 C 787.316406 733.023438 774.234375 767.632812 769.324219 771.183594 C 764.414062 774.738281 763.472656 771.328125 763.617188 768.863281 C 763.761719 766.398438 782.261719 744.085938 781.007812 732.09375 C 781.007812 732.09375 781.175781 725.628906 772.722656 721.621094 C 764.269531 717.609375 757.496094 713.921875 754.730469 714.855469 C 751.964844 715.789062 751.03125 718.855469 750.410156 723.941406 C 749.789062 729.027344 742.878906 747.765625 739.492188 748.417969 C 736.105469 749.070312 736.726562 743.332031 737.804688 740.867188 C 738.882812 738.398438 749.933594 718.273438 746.992188 713.175781 C 745.996094 712.292969 744.871094 711.625 743.617188 711.171875 C 742.367188 710.722656 741.074219 710.519531 739.742188 710.566406 C 735.289062 710.710938 732.667969 729.636719 732.667969 729.636719 C 732.667969 729.636719 732.046875 731.410156 730.8125 730.671875 C 729.582031 729.9375 730.355469 727.429688 730.75 726.136719 C 731.144531 724.839844 733.515625 712.277344 731.507812 710.734375 C 729.496094 709.191406 708.285156 708.722656 698.121094 733.519531 C 698.121094 733.519531 699.355469 740.296875 707.351562 743.382812 C 715.347656 746.46875 717.367188 749.226562 716.734375 751.992188 C 716.105469 754.757812 710.75 749.523438 708.738281 748.136719 C 706.730469 746.75 696.433594 739.851562 694.421875 739.851562 C 692.414062 739.851562 686.75 749.234375 685.039062 767.25 C 685.039062 767.25 687.203125 774.945312 708.285156 782.308594 C 708.285156 782.308594 710.59375 784.382812 708.976562 786.007812 C 707.363281 787.632812 690.269531 778.757812 684.28125 772.542969 C 684.28125 772.542969 677.507812 778.40625 678.574219 790.554688 C 678.574219 790.554688 681.816406 797.082031 696.351562 800.179688 C 710.882812 803.273438 705.425781 804.933594 705.425781 804.933594 C 702.886719 805.164062 700.425781 804.820312 698.050781 803.894531 C 693.90625 802.351562 680.824219 798.210938 679.113281 798.832031 C 677.40625 799.453125 673.519531 813.570312 673.519531 813.570312 Z M 816.878906 813.570312 " fill-opacity="1" fill-rule="evenodd"/><g clip-path="url(#e9a84dcda8)"><path fill="#205732" d="M 674.410156 813.570312 L 686.242188 813.570312 L 705.011719 792.265625 C 705.011719 792.265625 682.003906 803.628906 674.410156 813.570312 Z M 683.578125 748.042969 C 679.34375 771.101562 653.644531 813.570312 653.644531 813.570312 L 638.011719 813.570312 C 653.199219 775.472656 683.578125 748.042969 683.578125 748.042969 Z M 654.328125 718.792969 C 651.632812 734.421875 628.183594 813.570312 628.183594 813.570312 L 621.035156 813.570312 C 622.382812 749.804688 654.328125 718.792969 654.328125 718.792969 Z M 622.816406 720.34375 C 621.035156 772.625 606.75 813.570312 606.75 813.570312 L 601.167969 813.570312 C 602.515625 729.460938 622.816406 720.34375 622.816406 720.34375 Z M 482.976562 813.570312 C 497.292969 807.417969 534.574219 803.65625 544.871094 803.429688 C 555.164062 803.203125 560.054688 799.640625 560.054688 799.640625 C 560.054688 799.640625 540.851562 799.855469 516.050781 799.640625 C 491.253906 799.421875 441.242188 788.027344 441.242188 788.027344 C 472.496094 782.445312 541.285156 791.351562 541.285156 791.351562 C 541.285156 791.351562 507.101562 771.265625 499.074219 766.8125 C 491.046875 762.359375 462.242188 729.273438 462.242188 729.273438 C 476.515625 731.5 534.136719 775.9375 534.136719 775.9375 C 507.777344 750.933594 496.628906 718.542969 496.628906 718.542969 C 517.160156 731.5 550.671875 788.027344 550.671875 788.027344 C 521.167969 729.71875 522.296875 695.101562 522.296875 695.101562 C 522.296875 695.101562 551.117188 769.476562 554.6875 780.433594 C 558.261719 791.394531 562.5 796.933594 562.5 796.933594 L 558.707031 775.285156 C 551.984375 731.066406 561.816406 699.804688 561.816406 699.804688 C 566.050781 718.792969 566.488281 784.671875 566.933594 793.394531 C 567.378906 802.113281 580.324219 808.804688 580.324219 808.804688 C 573.074219 757.304688 588.457031 744.4375 593.511719 698.902344 C 601.695312 720.273438 583 775.222656 590.15625 813.570312 L 578.316406 813.570312 L 574.742188 810.121094 C 572.734375 806.671875 562.914062 806.320312 562.914062 806.320312 C 544.621094 812.132812 520.703125 813.570312 520.703125 813.570312 Z M 482.976562 813.570312 " fill-opacity="1" fill-rule="evenodd"/></g></svg>