<svg xmlns="http://www.w3.org/2000/svg" xmlns:xlink="http://www.w3.org/1999/xlink" width="1220" zoomAndPan="magnify" viewBox="0 0 914.88 809.999993" height="1080" preserveAspectRatio="xMidYMid meet" version="1.0"><defs><clipPath id="3be090cf71"><path d="M 718 0.0546875 L 910 0.0546875 L 910 216 L 718 216 Z M 718 0.0546875 " clip-rule="nonzero"/></clipPath><clipPath id="78c1e376a2"><path d="M 903.664062 -64.914062 L 914.867188 219.078125 L 723.039062 226.648438 L 711.835938 -57.34375 Z M 903.664062 -64.914062 " clip-rule="nonzero"/></clipPath><clipPath id="f3660a2d29"><path d="M 903.664062 -64.914062 L 914.867188 219.078125 L 723.039062 226.648438 L 711.835938 -57.34375 Z M 903.664062 -64.914062 " clip-rule="nonzero"/></clipPath><clipPath id="45a3690b68"><path d="M 868.589844 214.984375 C 891.816406 212.15625 909.632812 192.199219 909.953125 168.878906 C 910.257812 150.851562 900.507812 135.246094 886.089844 127.03125 C 878.9375 122.925781 875.671875 114.382812 877.949219 106.410156 C 879.734375 100.261719 880.601562 93.582031 880.332031 86.839844 C 879.554688 67.050781 869.625 49.765625 854.652344 38.871094 C 845.945312 32.574219 841.695312 21.929688 842.964844 11.296875 C 843.570312 6.65625 843.605469 1.8125 843.078125 -3.007812 C 839.703125 -34.289062 812.9375 -58.230469 781.476562 -58.339844 C 745.726562 -58.503906 717.46875 -28.902344 718.859375 6.398438 C 719.4375 21.011719 725.03125 34.191406 733.777344 44.429688 C 742.644531 54.777344 742.785156 69.859375 734.066406 80.335938 C 723.953125 92.558594 718.386719 108.652344 719.96875 125.929688 C 722.914062 157.679688 750.042969 182.390625 781.953125 182.371094 C 785.671875 182.339844 789.15625 182.089844 792.742188 181.496094 C 804.726562 179.445312 816.644531 184.382812 823.46875 194.472656 C 832.933594 208.621094 849.964844 217.296875 868.589844 214.984375 Z M 868.589844 214.984375 " clip-rule="nonzero"/></clipPath><linearGradient x1="49.717331" gradientTransform="matrix(0.0443483, 1.124209, -1.125737, 0.0444086, 903.726923, -63.274132)" y1="86.113998" x2="249.412353" gradientUnits="userSpaceOnUse" y2="86.113998" id="fcbc260401"><stop stop-opacity="1" stop-color="rgb(28.805542%, 68.325806%, 30.960083%)" offset="0"/><stop stop-opacity="1" stop-color="rgb(28.691101%, 68.209839%, 30.836487%)" offset="0.0078125"/><stop stop-opacity="1" stop-color="rgb(28.462219%, 67.977905%, 30.59082%)" offset="0.015625"/><stop stop-opacity="1" stop-color="rgb(28.234863%, 67.745972%, 30.345154%)" offset="0.0234375"/><stop stop-opacity="1" stop-color="rgb(28.005981%, 67.515564%, 30.099487%)" offset="0.03125"/><stop stop-opacity="1" stop-color="rgb(27.7771%, 67.28363%, 29.853821%)" offset="0.0390625"/><stop stop-opacity="1" stop-color="rgb(27.548218%, 67.053223%, 29.606628%)" offset="0.046875"/><stop stop-opacity="1" stop-color="rgb(27.319336%, 66.821289%, 29.360962%)" offset="0.0546875"/><stop stop-opacity="1" stop-color="rgb(27.090454%, 66.589355%, 29.115295%)" offset="0.0625"/><stop stop-opacity="1" stop-color="rgb(26.861572%, 66.358948%, 28.869629%)" offset="0.0703125"/><stop stop-opacity="1" stop-color="rgb(26.63269%, 66.127014%, 28.623962%)" offset="0.078125"/><stop stop-opacity="1" stop-color="rgb(26.403809%, 65.895081%, 28.37677%)" offset="0.0859375"/><stop stop-opacity="1" stop-color="rgb(26.174927%, 65.664673%, 28.131104%)" offset="0.09375"/><stop stop-opacity="1" stop-color="rgb(25.946045%, 65.432739%, 27.885437%)" offset="0.101563"/><stop stop-opacity="1" stop-color="rgb(25.717163%, 65.200806%, 27.639771%)" offset="0.109375"/><stop stop-opacity="1" stop-color="rgb(25.488281%, 64.970398%, 27.394104%)" offset="0.117188"/><stop stop-opacity="1" stop-color="rgb(25.259399%, 64.738464%, 27.148438%)" offset="0.125"/><stop stop-opacity="1" stop-color="rgb(25.030518%, 64.506531%, 26.901245%)" offset="0.132813"/><stop stop-opacity="1" stop-color="rgb(24.801636%, 64.276123%, 26.655579%)" offset="0.140625"/><stop stop-opacity="1" stop-color="rgb(24.572754%, 64.044189%, 26.409912%)" offset="0.148437"/><stop stop-opacity="1" stop-color="rgb(24.343872%, 63.813782%, 26.164246%)" offset="0.15625"/><stop stop-opacity="1" stop-color="rgb(24.11499%, 63.581848%, 25.918579%)" offset="0.164063"/><stop stop-opacity="1" stop-color="rgb(23.886108%, 63.349915%, 25.671387%)" offset="0.171875"/><stop stop-opacity="1" stop-color="rgb(23.657227%, 63.119507%, 25.42572%)" offset="0.179688"/><stop stop-opacity="1" stop-color="rgb(23.428345%, 62.887573%, 25.180054%)" offset="0.1875"/><stop stop-opacity="1" stop-color="rgb(23.199463%, 62.65564%, 24.934387%)" offset="0.195312"/><stop stop-opacity="1" stop-color="rgb(22.970581%, 62.425232%, 24.688721%)" offset="0.203125"/><stop stop-opacity="1" stop-color="rgb(22.741699%, 62.193298%, 24.441528%)" offset="0.210938"/><stop stop-opacity="1" stop-color="rgb(22.512817%, 61.961365%, 24.195862%)" offset="0.21875"/><stop stop-opacity="1" stop-color="rgb(22.283936%, 61.730957%, 23.950195%)" offset="0.226563"/><stop stop-opacity="1" stop-color="rgb(22.055054%, 61.499023%, 23.704529%)" offset="0.234375"/><stop stop-opacity="1" stop-color="rgb(21.826172%, 61.26709%, 23.458862%)" offset="0.242188"/><stop stop-opacity="1" stop-color="rgb(21.59729%, 61.036682%, 23.21167%)" offset="0.25"/><stop stop-opacity="1" stop-color="rgb(21.368408%, 60.804749%, 22.966003%)" offset="0.257813"/><stop stop-opacity="1" stop-color="rgb(21.139526%, 60.574341%, 22.720337%)" offset="0.265625"/><stop stop-opacity="1" stop-color="rgb(20.910645%, 60.342407%, 22.47467%)" offset="0.273438"/><stop stop-opacity="1" stop-color="rgb(20.681763%, 60.110474%, 22.229004%)" offset="0.28125"/><stop stop-opacity="1" stop-color="rgb(20.452881%, 59.880066%, 21.981812%)" offset="0.289062"/><stop stop-opacity="1" stop-color="rgb(20.223999%, 59.648132%, 21.736145%)" offset="0.296875"/><stop stop-opacity="1" stop-color="rgb(19.995117%, 59.416199%, 21.490479%)" offset="0.304688"/><stop stop-opacity="1" stop-color="rgb(19.766235%, 59.185791%, 21.244812%)" offset="0.3125"/><stop stop-opacity="1" stop-color="rgb(19.537354%, 58.953857%, 20.999146%)" offset="0.320312"/><stop stop-opacity="1" stop-color="rgb(19.308472%, 58.721924%, 20.751953%)" offset="0.328125"/><stop stop-opacity="1" stop-color="rgb(19.07959%, 58.491516%, 20.506287%)" offset="0.335938"/><stop stop-opacity="1" stop-color="rgb(18.850708%, 58.259583%, 20.26062%)" offset="0.34375"/><stop stop-opacity="1" stop-color="rgb(18.621826%, 58.029175%, 20.014954%)" offset="0.351563"/><stop stop-opacity="1" stop-color="rgb(18.392944%, 57.797241%, 19.769287%)" offset="0.359375"/><stop stop-opacity="1" stop-color="rgb(18.164062%, 57.565308%, 19.522095%)" offset="0.367188"/><stop stop-opacity="1" stop-color="rgb(17.935181%, 57.3349%, 19.276428%)" offset="0.375"/><stop stop-opacity="1" stop-color="rgb(17.706299%, 57.102966%, 19.030762%)" offset="0.382812"/><stop stop-opacity="1" stop-color="rgb(17.477417%, 56.871033%, 18.785095%)" offset="0.390625"/><stop stop-opacity="1" stop-color="rgb(17.248535%, 56.640625%, 18.539429%)" offset="0.398437"/><stop stop-opacity="1" stop-color="rgb(17.019653%, 56.408691%, 18.292236%)" offset="0.40625"/><stop stop-opacity="1" stop-color="rgb(16.790771%, 56.176758%, 18.04657%)" offset="0.414062"/><stop stop-opacity="1" stop-color="rgb(16.563416%, 55.94635%, 17.800903%)" offset="0.421875"/><stop stop-opacity="1" stop-color="rgb(16.334534%, 55.714417%, 17.555237%)" offset="0.429688"/><stop stop-opacity="1" stop-color="rgb(16.105652%, 55.482483%, 17.30957%)" offset="0.4375"/><stop stop-opacity="1" stop-color="rgb(15.87677%, 55.252075%, 17.062378%)" offset="0.445313"/><stop stop-opacity="1" stop-color="rgb(15.647888%, 55.020142%, 16.816711%)" offset="0.453125"/><stop stop-opacity="1" stop-color="rgb(15.419006%, 54.789734%, 16.571045%)" offset="0.460938"/><stop stop-opacity="1" stop-color="rgb(15.190125%, 54.5578%, 16.325378%)" offset="0.46875"/><stop stop-opacity="1" stop-color="rgb(14.961243%, 54.325867%, 16.079712%)" offset="0.476563"/><stop stop-opacity="1" stop-color="rgb(14.732361%, 54.095459%, 15.83252%)" offset="0.484375"/><stop stop-opacity="1" stop-color="rgb(14.503479%, 53.863525%, 15.586853%)" offset="0.492188"/><stop stop-opacity="1" stop-color="rgb(14.274597%, 53.631592%, 15.341187%)" offset="0.5"/><stop stop-opacity="1" stop-color="rgb(14.045715%, 53.401184%, 15.09552%)" offset="0.507812"/><stop stop-opacity="1" stop-color="rgb(13.816833%, 53.16925%, 14.849854%)" offset="0.515625"/><stop stop-opacity="1" stop-color="rgb(13.587952%, 52.937317%, 14.602661%)" offset="0.523437"/><stop stop-opacity="1" stop-color="rgb(13.35907%, 52.706909%, 14.356995%)" offset="0.53125"/><stop stop-opacity="1" stop-color="rgb(13.130188%, 52.474976%, 14.111328%)" offset="0.539062"/><stop stop-opacity="1" stop-color="rgb(12.901306%, 52.243042%, 13.865662%)" offset="0.546875"/><stop stop-opacity="1" stop-color="rgb(12.672424%, 52.012634%, 13.619995%)" offset="0.554687"/><stop stop-opacity="1" stop-color="rgb(12.443542%, 51.780701%, 13.372803%)" offset="0.5625"/><stop stop-opacity="1" stop-color="rgb(12.214661%, 51.550293%, 13.127136%)" offset="0.570312"/><stop stop-opacity="1" stop-color="rgb(11.985779%, 51.318359%, 12.88147%)" offset="0.578125"/><stop stop-opacity="1" stop-color="rgb(11.756897%, 51.086426%, 12.635803%)" offset="0.585938"/><stop stop-opacity="1" stop-color="rgb(11.528015%, 50.856018%, 12.390137%)" offset="0.59375"/><stop stop-opacity="1" stop-color="rgb(11.299133%, 50.624084%, 12.142944%)" offset="0.601563"/><stop stop-opacity="1" stop-color="rgb(11.070251%, 50.392151%, 11.897278%)" offset="0.609375"/><stop stop-opacity="1" stop-color="rgb(10.84137%, 50.161743%, 11.651611%)" offset="0.617188"/><stop stop-opacity="1" stop-color="rgb(10.612488%, 49.92981%, 11.405945%)" offset="0.625"/><stop stop-opacity="1" stop-color="rgb(10.383606%, 49.697876%, 11.160278%)" offset="0.632812"/><stop stop-opacity="1" stop-color="rgb(10.154724%, 49.467468%, 10.913086%)" offset="0.640625"/><stop stop-opacity="1" stop-color="rgb(9.925842%, 49.235535%, 10.667419%)" offset="0.648437"/><stop stop-opacity="1" stop-color="rgb(9.69696%, 49.003601%, 10.421753%)" offset="0.65625"/><stop stop-opacity="1" stop-color="rgb(9.468079%, 48.773193%, 10.176086%)" offset="0.664062"/><stop stop-opacity="1" stop-color="rgb(9.239197%, 48.54126%, 9.93042%)" offset="0.671875"/><stop stop-opacity="1" stop-color="rgb(9.010315%, 48.310852%, 9.683228%)" offset="0.679688"/><stop stop-opacity="1" stop-color="rgb(8.781433%, 48.078918%, 9.437561%)" offset="0.6875"/><stop stop-opacity="1" stop-color="rgb(8.552551%, 47.846985%, 9.191895%)" offset="0.695313"/><stop stop-opacity="1" stop-color="rgb(8.323669%, 47.616577%, 8.946228%)" offset="0.703125"/><stop stop-opacity="1" stop-color="rgb(8.094788%, 47.384644%, 8.700562%)" offset="0.710938"/><stop stop-opacity="1" stop-color="rgb(7.865906%, 47.15271%, 8.453369%)" offset="0.71875"/><stop stop-opacity="1" stop-color="rgb(7.637024%, 46.922302%, 8.207703%)" offset="0.726563"/><stop stop-opacity="1" stop-color="rgb(7.408142%, 46.690369%, 7.962036%)" offset="0.734375"/><stop stop-opacity="1" stop-color="rgb(7.17926%, 46.458435%, 7.71637%)" offset="0.742188"/><stop stop-opacity="1" stop-color="rgb(6.950378%, 46.228027%, 7.470703%)" offset="0.75"/><stop stop-opacity="1" stop-color="rgb(6.721497%, 45.996094%, 7.223511%)" offset="0.757812"/><stop stop-opacity="1" stop-color="rgb(6.492615%, 45.76416%, 6.977844%)" offset="0.765625"/><stop stop-opacity="1" stop-color="rgb(6.263733%, 45.533752%, 6.732178%)" offset="0.773437"/><stop stop-opacity="1" stop-color="rgb(6.034851%, 45.301819%, 6.486511%)" offset="0.78125"/><stop stop-opacity="1" stop-color="rgb(5.805969%, 45.071411%, 6.240845%)" offset="0.789062"/><stop stop-opacity="1" stop-color="rgb(5.577087%, 44.839478%, 5.993652%)" offset="0.796875"/><stop stop-opacity="1" stop-color="rgb(5.348206%, 44.607544%, 5.747986%)" offset="0.804687"/><stop stop-opacity="1" stop-color="rgb(5.119324%, 44.377136%, 5.502319%)" offset="0.8125"/><stop stop-opacity="1" stop-color="rgb(4.891968%, 44.145203%, 5.256653%)" offset="0.820312"/><stop stop-opacity="1" stop-color="rgb(4.663086%, 43.913269%, 5.010986%)" offset="0.828125"/><stop stop-opacity="1" stop-color="rgb(4.434204%, 43.682861%, 4.76532%)" offset="0.835938"/><stop stop-opacity="1" stop-color="rgb(4.205322%, 43.450928%, 4.518127%)" offset="0.84375"/><stop stop-opacity="1" stop-color="rgb(3.97644%, 43.218994%, 4.272461%)" offset="0.851563"/><stop stop-opacity="1" stop-color="rgb(3.747559%, 42.988586%, 4.026794%)" offset="0.859375"/><stop stop-opacity="1" stop-color="rgb(3.518677%, 42.756653%, 3.781128%)" offset="0.867188"/><stop stop-opacity="1" stop-color="rgb(3.289795%, 42.524719%, 3.535461%)" offset="0.875"/><stop stop-opacity="1" stop-color="rgb(3.060913%, 42.294312%, 3.288269%)" offset="0.882812"/><stop stop-opacity="1" stop-color="rgb(2.832031%, 42.062378%, 3.042603%)" offset="0.890625"/><stop stop-opacity="1" stop-color="rgb(2.603149%, 41.83197%, 2.796936%)" offset="0.898437"/><stop stop-opacity="1" stop-color="rgb(2.374268%, 41.600037%, 2.55127%)" offset="0.90625"/><stop stop-opacity="1" stop-color="rgb(2.145386%, 41.368103%, 2.305603%)" offset="0.914062"/><stop stop-opacity="1" stop-color="rgb(1.916504%, 41.137695%, 2.058411%)" offset="0.921875"/><stop stop-opacity="1" stop-color="rgb(1.687622%, 40.905762%, 1.812744%)" offset="0.929688"/><stop stop-opacity="1" stop-color="rgb(1.45874%, 40.673828%, 1.567078%)" offset="0.9375"/><stop stop-opacity="1" stop-color="rgb(1.229858%, 40.44342%, 1.321411%)" offset="0.945313"/><stop stop-opacity="1" stop-color="rgb(1.000977%, 40.211487%, 1.075745%)" offset="0.953125"/><stop stop-opacity="1" stop-color="rgb(0.772095%, 39.979553%, 0.828552%)" offset="0.960938"/><stop stop-opacity="1" stop-color="rgb(0.543213%, 39.749146%, 0.582886%)" offset="0.96875"/><stop stop-opacity="1" stop-color="rgb(0.314331%, 39.517212%, 0.337219%)" offset="0.976563"/><stop stop-opacity="1" stop-color="rgb(0.0991821%, 39.300537%, 0.106812%)" offset="0.984375"/><stop stop-opacity="1" stop-color="rgb(0%, 39.199829%, 0%)" offset="1"/></linearGradient><clipPath id="31a981fbbd"><path d="M 848 0.0546875 L 876 0.0546875 L 876 26 L 848 26 Z M 848 0.0546875 " clip-rule="nonzero"/></clipPath><clipPath id="dc0adf5020"><path d="M 903.664062 -64.914062 L 914.867188 219.078125 L 723.039062 226.648438 L 711.835938 -57.34375 Z M 903.664062 -64.914062 " clip-rule="nonzero"/></clipPath><clipPath id="ca1fda894f"><path d="M 903.664062 -64.914062 L 914.867188 219.078125 L 723.039062 226.648438 L 711.835938 -57.34375 Z M 903.664062 -64.914062 " clip-rule="nonzero"/></clipPath><clipPath id="c9fa7cc1df"><path d="M 862.910156 25.261719 C 862.03125 25.292969 861.15625 25.242188 860.285156 25.105469 C 859.417969 24.96875 858.570312 24.746094 857.742188 24.445312 C 856.917969 24.140625 856.128906 23.757812 855.378906 23.300781 C 854.628906 22.839844 853.929688 22.3125 853.28125 21.714844 C 852.636719 21.117188 852.054688 20.464844 851.535156 19.753906 C 851.019531 19.042969 850.574219 18.289062 850.207031 17.488281 C 849.839844 16.691406 849.550781 15.863281 849.34375 15.011719 C 849.140625 14.15625 849.019531 13.289062 848.984375 12.410156 C 848.949219 11.53125 849.003906 10.660156 849.140625 9.789062 C 849.277344 8.921875 849.5 8.074219 849.804688 7.25 C 850.109375 6.425781 850.488281 5.636719 850.949219 4.890625 C 851.410156 4.140625 851.9375 3.441406 852.535156 2.796875 C 853.132812 2.148438 853.789062 1.570312 854.5 1.050781 C 855.210938 0.535156 855.96875 0.09375 856.765625 -0.277344 C 857.566406 -0.644531 858.394531 -0.929688 859.25 -1.136719 C 860.105469 -1.339844 860.972656 -1.460938 861.855469 -1.496094 C 862.734375 -1.53125 863.609375 -1.480469 864.476562 -1.34375 C 865.347656 -1.203125 866.195312 -0.984375 867.019531 -0.679688 C 867.847656 -0.375 868.632812 0.00390625 869.386719 0.464844 C 870.136719 0.925781 870.835938 1.453125 871.480469 2.046875 C 872.128906 2.644531 872.710938 3.300781 873.226562 4.011719 C 873.746094 4.722656 874.1875 5.476562 874.554688 6.273438 C 874.925781 7.074219 875.210938 7.898438 875.417969 8.753906 C 875.621094 9.609375 875.742188 10.476562 875.777344 11.351562 C 875.8125 12.230469 875.761719 13.105469 875.625 13.972656 C 875.484375 14.84375 875.265625 15.6875 874.960938 16.511719 C 874.65625 17.339844 874.273438 18.125 873.8125 18.875 C 873.351562 19.625 872.824219 20.324219 872.226562 20.96875 C 871.628906 21.613281 870.976562 22.195312 870.261719 22.710938 C 869.550781 23.230469 868.792969 23.671875 867.996094 24.039062 C 867.195312 24.40625 866.367188 24.695312 865.511719 24.898438 C 864.65625 25.105469 863.789062 25.226562 862.910156 25.261719 Z M 862.910156 25.261719 " clip-rule="nonzero"/></clipPath><linearGradient x1="54.323853" gradientTransform="matrix(0.0443483, 1.124209, -1.125737, 0.0444086, 903.726923, -63.274132)" y1="86.113998" x2="77.682857" gradientUnits="userSpaceOnUse" y2="86.113998" id="b41fbe91ea"><stop stop-opacity="1" stop-color="rgb(28.131104%, 67.642212%, 30.235291%)" offset="0"/><stop stop-opacity="1" stop-color="rgb(28.022766%, 67.533875%, 30.119324%)" offset="0.0625"/><stop stop-opacity="1" stop-color="rgb(27.809143%, 67.3172%, 29.888916%)" offset="0.125"/><stop stop-opacity="1" stop-color="rgb(27.59552%, 67.100525%, 29.658508%)" offset="0.1875"/><stop stop-opacity="1" stop-color="rgb(27.380371%, 66.88385%, 29.428101%)" offset="0.25"/><stop stop-opacity="1" stop-color="rgb(27.166748%, 66.667175%, 29.197693%)" offset="0.3125"/><stop stop-opacity="1" stop-color="rgb(26.953125%, 66.4505%, 28.967285%)" offset="0.375"/><stop stop-opacity="1" stop-color="rgb(26.737976%, 66.235352%, 28.738403%)" offset="0.4375"/><stop stop-opacity="1" stop-color="rgb(26.524353%, 66.018677%, 28.507996%)" offset="0.5"/><stop stop-opacity="1" stop-color="rgb(26.309204%, 65.802002%, 28.277588%)" offset="0.5625"/><stop stop-opacity="1" stop-color="rgb(26.095581%, 65.585327%, 28.04718%)" offset="0.625"/><stop stop-opacity="1" stop-color="rgb(25.881958%, 65.368652%, 27.816772%)" offset="0.6875"/><stop stop-opacity="1" stop-color="rgb(25.666809%, 65.151978%, 27.586365%)" offset="0.75"/><stop stop-opacity="1" stop-color="rgb(25.453186%, 64.935303%, 27.355957%)" offset="0.8125"/><stop stop-opacity="1" stop-color="rgb(25.239563%, 64.718628%, 27.127075%)" offset="0.875"/><stop stop-opacity="1" stop-color="rgb(25.024414%, 64.501953%, 26.896667%)" offset="0.9375"/><stop stop-opacity="1" stop-color="rgb(24.810791%, 64.285278%, 26.66626%)" offset="1"/></linearGradient><clipPath id="636241a947"><path d="M 893 75 L 910 75 L 910 92 L 893 92 Z M 893 75 " clip-rule="nonzero"/></clipPath><clipPath id="36364e359d"><path d="M 903.664062 -64.914062 L 914.867188 219.078125 L 723.039062 226.648438 L 711.835938 -57.34375 Z M 903.664062 -64.914062 " clip-rule="nonzero"/></clipPath><clipPath id="67bcdba586"><path d="M 903.664062 -64.914062 L 914.867188 219.078125 L 723.039062 226.648438 L 711.835938 -57.34375 Z M 903.664062 -64.914062 " clip-rule="nonzero"/></clipPath><clipPath id="d4a0fa4d20"><path d="M 901.824219 91.394531 C 901.296875 91.414062 900.777344 91.386719 900.257812 91.304688 C 899.738281 91.222656 899.234375 91.089844 898.742188 90.90625 C 898.246094 90.726562 897.777344 90.5 897.328125 90.226562 C 896.882812 89.949219 896.464844 89.636719 896.078125 89.28125 C 895.695312 88.925781 895.347656 88.535156 895.039062 88.109375 C 894.730469 87.6875 894.464844 87.234375 894.246094 86.757812 C 894.023438 86.28125 893.851562 85.789062 893.730469 85.28125 C 893.609375 84.769531 893.535156 84.253906 893.515625 83.726562 C 893.496094 83.203125 893.527344 82.683594 893.609375 82.164062 C 893.691406 81.648438 893.820312 81.140625 894.003906 80.648438 C 894.183594 80.15625 894.414062 79.6875 894.6875 79.242188 C 894.960938 78.792969 895.277344 78.378906 895.632812 77.992188 C 895.992188 77.605469 896.382812 77.261719 896.804688 76.953125 C 897.230469 76.644531 897.683594 76.378906 898.160156 76.160156 C 898.636719 75.941406 899.128906 75.769531 899.640625 75.644531 C 900.152344 75.523438 900.667969 75.453125 901.195312 75.429688 C 901.71875 75.410156 902.238281 75.441406 902.757812 75.523438 C 903.277344 75.605469 903.785156 75.738281 904.277344 75.917969 C 904.769531 76.101562 905.238281 76.328125 905.6875 76.601562 C 906.136719 76.875 906.550781 77.191406 906.9375 77.546875 C 907.324219 77.902344 907.671875 78.292969 907.980469 78.714844 C 908.289062 79.140625 908.550781 79.589844 908.773438 80.066406 C 908.992188 80.542969 909.164062 81.035156 909.285156 81.546875 C 909.410156 82.058594 909.480469 82.574219 909.5 83.097656 C 909.523438 83.621094 909.492188 84.144531 909.410156 84.660156 C 909.328125 85.179688 909.195312 85.683594 909.011719 86.175781 C 908.832031 86.667969 908.601562 87.136719 908.328125 87.585938 C 908.054688 88.03125 907.738281 88.449219 907.382812 88.835938 C 907.027344 89.21875 906.636719 89.566406 906.210938 89.875 C 905.785156 90.183594 905.335938 90.445312 904.859375 90.667969 C 904.382812 90.886719 903.886719 91.058594 903.375 91.179688 C 902.867188 91.304688 902.347656 91.375 901.824219 91.394531 Z M 901.824219 91.394531 " clip-rule="nonzero"/></clipPath><linearGradient x1="122.811862" gradientTransform="matrix(0.0443483, 1.124209, -1.125737, 0.0444086, 903.726923, -63.274132)" y1="86.113998" x2="137.58809" gradientUnits="userSpaceOnUse" y2="86.113998" id="26ba5feb55"><stop stop-opacity="1" stop-color="rgb(18.084717%, 57.484436%, 19.436646%)" offset="0"/><stop stop-opacity="1" stop-color="rgb(17.948914%, 57.347107%, 19.290161%)" offset="0.125"/><stop stop-opacity="1" stop-color="rgb(17.677307%, 57.073975%, 18.998718%)" offset="0.25"/><stop stop-opacity="1" stop-color="rgb(17.405701%, 56.799316%, 18.708801%)" offset="0.375"/><stop stop-opacity="1" stop-color="rgb(17.13562%, 56.524658%, 18.417358%)" offset="0.5"/><stop stop-opacity="1" stop-color="rgb(16.864014%, 56.251526%, 18.125916%)" offset="0.625"/><stop stop-opacity="1" stop-color="rgb(16.593933%, 55.976868%, 17.834473%)" offset="0.75"/><stop stop-opacity="1" stop-color="rgb(16.322327%, 55.703735%, 17.54303%)" offset="0.875"/><stop stop-opacity="1" stop-color="rgb(16.052246%, 55.429077%, 17.251587%)" offset="1"/></linearGradient><clipPath id="b10c775b03"><path d="M 785 198 L 811 198 L 811 224 L 785 224 Z M 785 198 " clip-rule="nonzero"/></clipPath><clipPath id="378f66af87"><path d="M 903.664062 -64.914062 L 914.867188 219.078125 L 723.039062 226.648438 L 711.835938 -57.34375 Z M 903.664062 -64.914062 " clip-rule="nonzero"/></clipPath><clipPath id="250dffdf78"><path d="M 903.664062 -64.914062 L 914.867188 219.078125 L 723.039062 226.648438 L 711.835938 -57.34375 Z M 903.664062 -64.914062 " clip-rule="nonzero"/></clipPath><clipPath id="e2fddbaaef"><path d="M 798.570312 223.488281 C 797.742188 223.523438 796.917969 223.472656 796.101562 223.34375 C 795.28125 223.214844 794.484375 223.007812 793.707031 222.722656 C 792.929688 222.433594 792.1875 222.078125 791.480469 221.644531 C 790.773438 221.210938 790.117188 220.714844 789.507812 220.152344 C 788.898438 219.59375 788.351562 218.976562 787.867188 218.308594 C 787.378906 217.636719 786.960938 216.929688 786.613281 216.175781 C 786.269531 215.425781 785.996094 214.648438 785.804688 213.84375 C 785.609375 213.039062 785.496094 212.222656 785.464844 211.394531 C 785.433594 210.570312 785.480469 209.746094 785.609375 208.929688 C 785.738281 208.113281 785.949219 207.316406 786.234375 206.539062 C 786.519531 205.761719 786.878906 205.023438 787.3125 204.316406 C 787.746094 203.613281 788.242188 202.953125 788.804688 202.347656 C 789.367188 201.738281 789.984375 201.191406 790.65625 200.707031 C 791.324219 200.21875 792.035156 199.804688 792.789062 199.457031 C 793.542969 199.109375 794.320312 198.839844 795.125 198.644531 C 795.933594 198.453125 796.75 198.339844 797.578125 198.308594 C 798.402344 198.273438 799.226562 198.324219 800.046875 198.453125 C 800.863281 198.582031 801.660156 198.789062 802.4375 199.074219 C 803.214844 199.363281 803.957031 199.722656 804.664062 200.152344 C 805.371094 200.585938 806.027344 201.082031 806.636719 201.644531 C 807.246094 202.207031 807.792969 202.820312 808.28125 203.488281 C 808.765625 204.160156 809.183594 204.871094 809.53125 205.621094 C 809.878906 206.371094 810.148438 207.148438 810.34375 207.953125 C 810.535156 208.757812 810.648438 209.574219 810.679688 210.402344 C 810.714844 211.226562 810.664062 212.050781 810.535156 212.867188 C 810.40625 213.683594 810.199219 214.480469 809.910156 215.257812 C 809.625 216.035156 809.265625 216.773438 808.832031 217.480469 C 808.398438 218.1875 807.902344 218.84375 807.339844 219.449219 C 806.777344 220.058594 806.160156 220.605469 805.492188 221.089844 C 804.820312 221.578125 804.109375 221.996094 803.355469 222.339844 C 802.605469 222.6875 801.824219 222.957031 801.019531 223.152344 C 800.214844 223.34375 799.398438 223.457031 798.570312 223.488281 Z M 798.570312 223.488281 " clip-rule="nonzero"/></clipPath><linearGradient x1="228.145482" gradientTransform="matrix(0.0443483, 1.124209, -1.125737, 0.0444086, 903.726923, -63.274132)" y1="86.113998" x2="251.454432" gradientUnits="userSpaceOnUse" y2="86.113998" id="a066f85bef"><stop stop-opacity="1" stop-color="rgb(2.632141%, 41.862488%, 2.830505%)" offset="0"/><stop stop-opacity="1" stop-color="rgb(2.52533%, 41.75415%, 2.714539%)" offset="0.0625"/><stop stop-opacity="1" stop-color="rgb(2.311707%, 41.537476%, 2.484131%)" offset="0.125"/><stop stop-opacity="1" stop-color="rgb(2.098083%, 41.320801%, 2.255249%)" offset="0.1875"/><stop stop-opacity="1" stop-color="rgb(1.88446%, 41.105652%, 2.024841%)" offset="0.25"/><stop stop-opacity="1" stop-color="rgb(1.670837%, 40.888977%, 1.795959%)" offset="0.3125"/><stop stop-opacity="1" stop-color="rgb(1.457214%, 40.673828%, 1.565552%)" offset="0.375"/><stop stop-opacity="1" stop-color="rgb(1.243591%, 40.457153%, 1.33667%)" offset="0.4375"/><stop stop-opacity="1" stop-color="rgb(1.029968%, 40.240479%, 1.106262%)" offset="0.5"/><stop stop-opacity="1" stop-color="rgb(0.816345%, 40.02533%, 0.87738%)" offset="0.5625"/><stop stop-opacity="1" stop-color="rgb(0.602722%, 39.808655%, 0.646973%)" offset="0.625"/><stop stop-opacity="1" stop-color="rgb(0.389099%, 39.593506%, 0.418091%)" offset="0.6875"/><stop stop-opacity="1" stop-color="rgb(0.175476%, 39.376831%, 0.187683%)" offset="0.75"/><stop stop-opacity="1" stop-color="rgb(0.0335693%, 39.233398%, 0.0366211%)" offset="1"/></linearGradient></defs><g clip-path="url(#3be090cf71)"><g clip-path="url(#78c1e376a2)"><g clip-path="url(#f3660a2d29)"><g clip-path="url(#45a3690b68)"><path fill="url(#fcbc260401)" d="M 909.957031 -7.539062 L 708.910156 0.390625 L 717.769531 224.890625 L 918.8125 216.957031 Z M 909.957031 -7.539062 " fill-rule="nonzero"/></g></g></g></g><g clip-path="url(#31a981fbbd)"><g clip-path="url(#dc0adf5020)"><g clip-path="url(#ca1fda894f)"><g clip-path="url(#c9fa7cc1df)"><path fill="url(#b41fbe91ea)" d="M 875.769531 -1.003906 L 847.957031 0.09375 L 848.992188 26.351562 L 876.804688 25.253906 Z M 875.769531 -1.003906 " fill-rule="nonzero"/></g></g></g></g><g clip-path="url(#636241a947)"><g clip-path="url(#36364e359d)"><g clip-path="url(#67bcdba586)"><g clip-path="url(#d4a0fa4d20)"><path fill="url(#26ba5feb55)" d="M 909.496094 74.78125 L 892.863281 75.433594 L 893.519531 92.046875 L 910.152344 91.390625 Z M 909.496094 74.78125 " fill-rule="nonzero"/></g></g></g></g><g clip-path="url(#b10c775b03)"><g clip-path="url(#378f66af87)"><g clip-path="url(#250dffdf78)"><g clip-path="url(#e2fddbaaef)"><path fill="url(#a066f85bef)" d="M 810.675781 197.277344 L 784.4375 198.3125 L 785.472656 224.519531 L 811.707031 223.484375 Z M 810.675781 197.277344 " fill-rule="nonzero"/></g></g></g></g></svg>