<svg xmlns="http://www.w3.org/2000/svg" xmlns:xlink="http://www.w3.org/1999/xlink" width="1920" zoomAndPan="magnify" viewBox="0 0 1440 809.999993" height="1080" preserveAspectRatio="xMidYMid meet" version="1.0"><defs><clipPath id="8840dbdda6"><path d="M 1137 511 L 1440 511 L 1440 810 L 1137 810 Z M 1137 511 " clip-rule="nonzero"/></clipPath><clipPath id="ec899c9cec"><path d="M 1622.988281 581.210938 L 1563.367188 876.757812 L 1095.050781 782.28125 L 1154.675781 486.734375 Z M 1622.988281 581.210938 " clip-rule="nonzero"/></clipPath><clipPath id="872037f2ce"><path d="M 1622.988281 581.210938 L 1563.367188 876.757812 L 1095.050781 782.28125 L 1154.675781 486.734375 Z M 1622.988281 581.210938 " clip-rule="nonzero"/></clipPath><clipPath id="7b56da0a7d"><path d="M 0 0 L 327 0 L 327 144.363281 L 0 144.363281 Z M 0 0 " clip-rule="nonzero"/></clipPath></defs><g clip-path="url(#8840dbdda6)"><g clip-path="url(#ec899c9cec)"><g clip-path="url(#872037f2ce)"><path fill="#ffffff" d="M 1472.878906 858.5 C 1436.648438 850.101562 1404.054688 830.425781 1379.714844 802.316406 C 1372.332031 794.277344 1365.582031 785.820312 1358.882812 777.101562 C 1346.6875 761.8125 1330.394531 750.613281 1311.679688 744.652344 C 1298.941406 740.171875 1285.886719 737.265625 1273.148438 732.785156 C 1249.402344 724.722656 1225.707031 716.394531 1204.910156 701.828125 C 1172.949219 680.367188 1150.292969 647.960938 1140.917969 610.589844 C 1137.375 597.050781 1135.71875 583.617188 1138.785156 569.769531 C 1141.957031 555.398438 1148.011719 541.609375 1156.6875 529.714844 C 1158.894531 526.886719 1161.101562 524.054688 1163.835938 521.332031 C 1171.875 512.582031 1184.050781 509.035156 1195.425781 512.148438 C 1209.949219 515.898438 1223.839844 521.429688 1236.835938 528.691406 C 1263.457031 542.792969 1292.289062 552.703125 1322.070312 557.894531 C 1333.976562 559.75 1346.25 559.769531 1358.367188 557.847656 C 1380.925781 555.574219 1403.800781 553.09375 1426.515625 550.035156 C 1451.488281 546.613281 1471.667969 554.777344 1488.527344 572.644531 C 1492.089844 576.636719 1495.648438 580.628906 1498.894531 584.832031 C 1511.085938 600.117188 1523.019531 615.351562 1535.214844 630.640625 C 1550.394531 650.078125 1564.363281 670.089844 1572.453125 693.554688 C 1578.507812 710.878906 1582.777344 728.933594 1585.105469 747.140625 C 1586.503906 757.792969 1585.121094 768.703125 1580.960938 778.507812 C 1576.589844 789.363281 1572.6875 800.582031 1567.582031 811.015625 C 1562.054688 823.546875 1552.804688 834.234375 1540.9375 841.664062 C 1525.394531 851.082031 1509.4375 858.507812 1491.023438 859.160156 C 1484.152344 859.410156 1476.96875 858.507812 1472.878906 858.5 Z M 1313.941406 558.980469 C 1285.152344 552.902344 1257.476562 542.679688 1231.378906 528.679688 C 1219.640625 521.945312 1206.957031 517.203125 1193.902344 514.296875 C 1183.519531 511.65625 1172.761719 514.945312 1165.511719 522.488281 C 1159.679688 528.40625 1154.789062 535.0625 1151.105469 542.507812 C 1143.105469 557.8125 1137.097656 574.070312 1139.269531 591.699219 C 1144.707031 633.734375 1163.6875 668.128906 1197.421875 694.3125 C 1220.257812 712.292969 1246.625 722.25 1273.726562 731.265625 C 1286.519531 735.484375 1299.78125 738.707031 1312.78125 743.238281 C 1332.023438 749.304688 1348.734375 761.136719 1361.085938 777 C 1365.847656 783.144531 1370.925781 789.082031 1375.949219 795.28125 C 1396.46875 820.707031 1423.394531 840.058594 1454.164062 851.179688 C 1465.066406 855.289062 1476.601562 857.617188 1488.351562 857.53125 C 1507.027344 856.929688 1523.085938 850.34375 1538.890625 840.980469 C 1550.96875 833.863281 1560.480469 823.230469 1566.0625 810.4375 C 1570.90625 799.949219 1574.808594 788.730469 1579.125 778.140625 C 1583.339844 768.070312 1584.667969 757.425781 1583.21875 747.035156 C 1580.574219 729.035156 1576.460938 711.554688 1570.617188 694.546875 C 1562.890625 671.976562 1549.394531 652.332031 1535.15625 633.628906 C 1523.070312 617.820312 1510.402344 602.164062 1498 586.5625 C 1494.492188 582.304688 1491.246094 578.105469 1487.425781 574.058594 C 1471.039062 556.558594 1451.382812 548.5 1427.195312 552.082031 C 1406.15625 554.933594 1385.332031 556.738281 1364.609375 559.378906 C 1347.765625 561.710938 1330.925781 562.683594 1313.941406 558.980469 Z M 1313.941406 558.980469 " fill-opacity="1" fill-rule="nonzero"/></g></g></g><path fill="#4d9b44" d="M 438.09375 -2.636719 L 438.09375 -40.886719 L 251.816406 -40.886719 C 251.816406 -40.886719 209.3125 -19.25 204.648438 -3.949219 C 204.648438 -3.949219 213.21875 2.527344 233.175781 4.421875 C 233.175781 4.421875 221.058594 7.222656 198.851562 0.34375 C 198.851562 0.34375 170.910156 25.117188 169.402344 58.3125 C 169.402344 58.3125 179.121094 60.710938 199.613281 59.933594 L 206.867188 47.625 L 203.710938 59.382812 C 203.710938 59.382812 257.972656 60.484375 287.4375 53.050781 C 287.4375 53.050781 293.027344 46.898438 299.003906 22.65625 L 296.75 50.425781 C 296.75 50.425781 306.648438 50.800781 309.0625 46.136719 C 311.476562 41.472656 318.199219 15.191406 318.199219 15.191406 L 315.589844 44.648438 C 315.589844 44.648438 391.007812 29.410156 438.09375 -2.636719 Z M 438.09375 -2.636719 " fill-opacity="1" fill-rule="evenodd"/><g clip-path="url(#7b56da0a7d)"><path fill="#205732" d="M -38.011719 -40.886719 L -56.511719 -40.886719 L -85.863281 -7.578125 C -85.863281 -7.578125 -49.886719 -25.339844 -38.011719 -40.886719 Z M -52.347656 61.550781 C -45.722656 25.507812 -5.535156 -40.886719 -5.535156 -40.886719 L 18.90625 -40.886719 C -4.839844 18.671875 -52.347656 61.550781 -52.347656 61.550781 Z M -6.605469 107.28125 C -2.394531 82.847656 34.277344 -40.886719 34.277344 -40.886719 L 45.453125 -40.886719 C 43.347656 58.800781 -6.605469 107.28125 -6.605469 107.28125 Z M 42.667969 104.851562 C 45.453125 23.125 67.792969 -40.886719 67.792969 -40.886719 L 76.523438 -40.886719 C 74.417969 90.601562 42.667969 104.851562 42.667969 104.851562 Z M 261.34375 -40.886719 C 238.957031 -31.265625 180.660156 -25.390625 164.558594 -25.03125 C 148.457031 -24.675781 140.8125 -19.105469 140.8125 -19.105469 C 140.8125 -19.105469 170.84375 -19.445312 209.621094 -19.105469 C 248.398438 -18.765625 326.605469 -0.953125 326.605469 -0.953125 C 277.734375 7.773438 170.164062 -6.152344 170.164062 -6.152344 C 170.164062 -6.152344 223.617188 25.246094 236.171875 32.210938 C 248.722656 39.171875 293.769531 90.894531 293.769531 90.894531 C 271.449219 87.414062 181.339844 17.945312 181.339844 17.945312 C 222.5625 57.035156 239.992188 107.671875 239.992188 107.671875 C 207.890625 87.414062 155.488281 -0.953125 155.488281 -0.953125 C 201.621094 90.199219 199.855469 144.316406 199.855469 144.316406 C 199.855469 144.316406 154.792969 28.046875 149.203125 10.917969 C 143.613281 -6.214844 136.988281 -14.878906 136.988281 -14.878906 L 142.917969 18.964844 C 153.429688 88.09375 138.058594 136.964844 138.058594 136.964844 C 131.433594 107.28125 130.753906 4.292969 130.058594 -9.339844 C 129.359375 -22.976562 109.113281 -33.4375 109.113281 -33.4375 C 120.453125 47.074219 96.398438 67.1875 88.492188 138.371094 C 75.695312 104.964844 104.933594 19.0625 93.742188 -40.886719 L 112.253906 -40.886719 L 117.84375 -35.492188 C 120.988281 -30.101562 136.34375 -29.550781 136.34375 -29.550781 C 164.949219 -38.636719 202.347656 -40.886719 202.347656 -40.886719 Z M 261.34375 -40.886719 " fill-opacity="1" fill-rule="evenodd"/></g></svg>