<svg xmlns="http://www.w3.org/2000/svg" xmlns:xlink="http://www.w3.org/1999/xlink" width="1920" zoomAndPan="magnify" viewBox="0 0 1440 809.999993" height="1080" preserveAspectRatio="xMidYMid meet" version="1.0"><defs><clipPath id="7385d2e2a6"><path d="M 0 81 L 190.390625 81 L 190.390625 675.375 L 0 675.375 Z M 0 81 " clip-rule="nonzero"/></clipPath></defs><g clip-path="url(#7385d2e2a6)"><path fill="#ffffff" d="M -584.574219 479.253906 C -584.003906 477.710938 -582.542969 476.753906 -580.988281 476.753906 C -580.546875 476.753906 -580.097656 476.832031 -579.660156 476.996094 L -561.222656 483.824219 C -559.242188 484.558594 -558.230469 486.757812 -558.964844 488.738281 C -559.695312 490.722656 -561.894531 491.734375 -563.875 491 L -582.316406 484.171875 C -584.296875 483.4375 -585.308594 481.234375 -584.574219 479.253906 Z M -579.625 281.523438 L -560.976562 275.28125 C -558.972656 274.609375 -557.894531 272.441406 -558.566406 270.4375 C -559.101562 268.835938 -560.589844 267.824219 -562.191406 267.824219 C -562.59375 267.824219 -563 267.886719 -563.402344 268.023438 L -582.050781 274.265625 C -584.050781 274.9375 -585.132812 277.105469 -584.460938 279.109375 C -583.792969 281.113281 -581.625 282.191406 -579.625 281.523438 Z M -598.101562 470.164062 L -616.539062 463.335938 C -616.976562 463.171875 -617.425781 463.09375 -617.867188 463.09375 C -619.421875 463.09375 -620.882812 464.050781 -621.453125 465.59375 C -622.1875 467.574219 -621.175781 469.777344 -619.195312 470.507812 L -600.753906 477.339844 C -598.773438 478.074219 -596.574219 477.058594 -595.84375 475.078125 C -595.109375 473.097656 -596.121094 470.898438 -598.101562 470.164062 Z M -508.558594 511.492188 L -490.117188 518.320312 C -488.136719 519.054688 -485.9375 518.042969 -485.203125 516.0625 C -484.472656 514.082031 -485.484375 511.878906 -487.460938 511.148438 L -505.902344 504.316406 C -506.339844 504.152344 -506.789062 504.078125 -507.230469 504.078125 C -508.785156 504.078125 -510.246094 505.03125 -510.816406 506.574219 C -511.546875 508.554688 -510.539062 510.757812 -508.558594 511.492188 Z M -616.914062 294.007812 L -598.269531 287.765625 C -596.265625 287.09375 -595.1875 284.925781 -595.855469 282.921875 C -596.390625 281.324219 -597.882812 280.3125 -599.480469 280.3125 C -599.882812 280.3125 -600.292969 280.375 -600.695312 280.507812 L -619.34375 286.753906 C -621.34375 287.421875 -622.425781 289.589844 -621.753906 291.59375 C -621.085938 293.597656 -618.917969 294.679688 -616.914062 294.007812 Z M -545.4375 497.832031 L -526.996094 504.660156 C -525.015625 505.394531 -522.816406 504.382812 -522.082031 502.402344 C -521.351562 500.417969 -522.363281 498.21875 -524.34375 497.484375 L -542.78125 490.65625 C -543.21875 490.492188 -543.667969 490.414062 -544.109375 490.414062 C -545.664062 490.414062 -547.125 491.371094 -547.695312 492.914062 C -548.429688 494.894531 -547.417969 497.097656 -545.4375 497.832031 Z M -542.332031 269.035156 L -523.683594 262.792969 C -521.683594 262.121094 -520.601562 259.953125 -521.273438 257.949219 C -521.808594 256.351562 -523.296875 255.335938 -524.898438 255.335938 C -525.300781 255.335938 -525.707031 255.402344 -526.109375 255.535156 L -544.757812 261.78125 C -546.757812 262.449219 -547.839844 264.617188 -547.167969 266.621094 C -546.5 268.625 -544.332031 269.707031 -542.332031 269.035156 Z M -691.5 318.980469 L -672.855469 312.738281 C -670.851562 312.066406 -669.773438 309.898438 -670.441406 307.898438 C -670.976562 306.296875 -672.46875 305.285156 -674.066406 305.285156 C -674.46875 305.285156 -674.878906 305.347656 -675.28125 305.480469 L -693.929688 311.726562 C -695.929688 312.394531 -697.011719 314.5625 -696.339844 316.566406 C -695.671875 318.570312 -693.503906 319.648438 -691.5 318.980469 Z M -728.792969 331.46875 L -710.148438 325.226562 C -708.144531 324.554688 -707.066406 322.386719 -707.734375 320.382812 C -708.269531 318.78125 -709.761719 317.769531 -711.359375 317.769531 C -711.761719 317.769531 -712.171875 317.832031 -712.574219 317.96875 L -731.21875 324.210938 C -733.222656 324.882812 -734.304688 327.050781 -733.632812 329.054688 C -732.960938 331.058594 -730.796875 332.136719 -728.792969 331.46875 Z M -471.675781 525.152344 L -453.238281 531.984375 C -451.257812 532.71875 -449.058594 531.707031 -448.324219 529.722656 C -447.59375 527.742188 -448.601562 525.539062 -450.582031 524.808594 L -469.023438 517.976562 C -469.460938 517.8125 -469.910156 517.738281 -470.347656 517.738281 C -471.902344 517.738281 -473.363281 518.691406 -473.933594 520.234375 C -474.667969 522.21875 -473.65625 524.417969 -471.675781 525.152344 Z M -727.179688 422.351562 C -727.617188 422.191406 -728.0625 422.113281 -728.503906 422.113281 C -730.058594 422.113281 -731.519531 423.070312 -732.089844 424.613281 C -732.824219 426.59375 -731.8125 428.792969 -729.832031 429.527344 L -711.394531 436.359375 C -709.414062 437.09375 -707.214844 436.078125 -706.480469 434.097656 C -705.746094 432.117188 -706.757812 429.914062 -708.738281 429.183594 Z M -505.039062 256.550781 L -486.390625 250.308594 C -484.390625 249.636719 -483.308594 247.46875 -483.980469 245.464844 C -484.515625 243.863281 -486.003906 242.851562 -487.605469 242.851562 C -488.007812 242.851562 -488.414062 242.914062 -488.816406 243.050781 L -507.464844 249.292969 C -509.464844 249.964844 -510.546875 252.132812 -509.875 254.136719 C -509.207031 256.140625 -507.039062 257.222656 -505.039062 256.550781 Z M -634.980469 456.503906 L -653.421875 449.671875 C -653.859375 449.511719 -654.304688 449.433594 -654.746094 449.433594 C -656.300781 449.433594 -657.761719 450.390625 -658.332031 451.933594 C -659.066406 453.914062 -658.054688 456.117188 -656.074219 456.847656 L -637.632812 463.679688 C -635.652344 464.414062 -633.453125 463.398438 -632.722656 461.417969 C -631.988281 459.4375 -633 457.238281 -634.980469 456.503906 Z M -671.859375 442.84375 L -690.300781 436.011719 C -690.738281 435.851562 -691.183594 435.773438 -691.625 435.773438 C -693.179688 435.773438 -694.640625 436.730469 -695.210938 438.273438 C -695.945312 440.253906 -694.933594 442.457031 -692.953125 443.1875 L -674.511719 450.019531 C -672.53125 450.753906 -670.332031 449.738281 -669.601562 447.757812 C -668.867188 445.777344 -669.878906 443.574219 -671.859375 442.84375 Z M -654.207031 306.496094 L -635.5625 300.253906 C -633.558594 299.582031 -632.480469 297.414062 -633.148438 295.410156 C -633.683594 293.808594 -635.175781 292.796875 -636.773438 292.796875 C -637.175781 292.796875 -637.585938 292.859375 -637.988281 292.996094 L -656.636719 299.238281 C -658.636719 299.910156 -659.71875 302.078125 -659.046875 304.082031 C -658.378906 306.085938 -656.210938 307.167969 -654.207031 306.496094 Z M -266.1875 593.109375 L -284.625 586.28125 C -285.0625 586.117188 -285.511719 586.039062 -285.953125 586.039062 C -287.507812 586.039062 -288.96875 586.996094 -289.539062 588.539062 C -290.273438 590.519531 -289.261719 592.722656 -287.28125 593.453125 L -268.839844 600.285156 C -266.859375 601.019531 -264.660156 600.007812 -263.929688 598.027344 C -263.195312 596.042969 -264.207031 593.84375 -266.1875 593.109375 Z M -303.066406 579.449219 L -321.503906 572.617188 C -321.941406 572.457031 -322.390625 572.378906 -322.832031 572.378906 C -324.386719 572.378906 -325.847656 573.335938 -326.417969 574.878906 C -327.152344 576.859375 -326.140625 579.0625 -324.160156 579.792969 L -305.71875 586.625 C -303.738281 587.359375 -301.539062 586.347656 -300.808594 584.367188 C -300.074219 582.382812 -301.085938 580.183594 -303.066406 579.449219 Z M -318.574219 194.117188 L -299.929688 187.875 C -297.925781 187.203125 -296.84375 185.035156 -297.515625 183.03125 C -298.050781 181.433594 -299.542969 180.417969 -301.140625 180.417969 C -301.542969 180.417969 -301.953125 180.484375 -302.355469 180.617188 L -321 186.863281 C -323.003906 187.53125 -324.082031 189.699219 -323.414062 191.703125 C -322.742188 193.707031 -320.578125 194.789062 -318.574219 194.117188 Z M -355.867188 206.605469 L -337.21875 200.359375 C -335.21875 199.691406 -334.136719 197.523438 -334.808594 195.519531 C -335.34375 193.917969 -336.832031 192.90625 -338.433594 192.90625 C -338.835938 192.90625 -339.246094 192.96875 -339.648438 193.105469 L -358.292969 199.347656 C -360.296875 200.019531 -361.375 202.1875 -360.707031 204.191406 C -360.035156 206.195312 -357.867188 207.277344 -355.867188 206.605469 Z M -339.945312 565.789062 L -358.386719 558.957031 C -358.824219 558.796875 -359.269531 558.71875 -359.710938 558.71875 C -361.265625 558.71875 -362.726562 559.675781 -363.296875 561.21875 C -364.03125 563.199219 -363.019531 565.402344 -361.039062 566.132812 L -342.601562 572.964844 C -340.617188 573.699219 -338.421875 572.6875 -337.6875 570.703125 C -336.953125 568.722656 -337.964844 566.523438 -339.945312 565.789062 Z M -393.160156 219.089844 L -374.511719 212.847656 C -372.511719 212.175781 -371.429688 210.007812 -372.101562 208.003906 C -372.636719 206.40625 -374.125 205.390625 -375.726562 205.390625 C -376.128906 205.390625 -376.539062 205.457031 -376.941406 205.589844 L -395.585938 211.835938 C -397.589844 212.503906 -398.667969 214.671875 -398 216.675781 C -397.328125 218.679688 -395.160156 219.757812 -393.160156 219.089844 Z M -376.824219 552.128906 L -395.265625 545.296875 C -395.703125 545.136719 -396.148438 545.058594 -396.589844 545.058594 C -398.144531 545.058594 -399.605469 546.015625 -400.175781 547.558594 C -400.910156 549.539062 -399.898438 551.738281 -397.917969 552.472656 L -379.480469 559.304688 C -377.5 560.039062 -375.300781 559.027344 -374.566406 557.042969 C -373.832031 555.0625 -374.84375 552.863281 -376.824219 552.128906 Z M -434.796875 538.8125 L -416.359375 545.644531 C -414.378906 546.378906 -412.179688 545.367188 -411.445312 543.382812 C -410.710938 541.402344 -411.722656 539.199219 -413.703125 538.46875 L -432.144531 531.636719 C -432.582031 531.472656 -433.03125 531.398438 -433.46875 531.398438 C -435.023438 531.398438 -436.484375 532.351562 -437.054688 533.898438 C -437.789062 535.878906 -436.777344 538.078125 -434.796875 538.8125 Z M -430.453125 231.578125 L -411.804688 225.335938 C -409.804688 224.664062 -408.722656 222.496094 -409.394531 220.492188 C -409.929688 218.890625 -411.417969 217.878906 -413.019531 217.878906 C -413.421875 217.878906 -413.828125 217.941406 -414.230469 218.078125 L -432.878906 224.320312 C -434.878906 224.992188 -435.960938 227.160156 -435.289062 229.164062 C -434.621094 231.167969 -432.453125 232.246094 -430.453125 231.578125 Z M -467.746094 244.0625 L -449.097656 237.820312 C -447.097656 237.148438 -446.015625 234.980469 -446.6875 232.976562 C -447.222656 231.378906 -448.710938 230.363281 -450.3125 230.363281 C -450.714844 230.363281 -451.121094 230.429688 -451.523438 230.5625 L -470.171875 236.808594 C -472.171875 237.476562 -473.253906 239.644531 -472.582031 241.648438 C -471.914062 243.652344 -469.746094 244.730469 -467.746094 244.0625 Z M -356.980469 543.269531 C -308.753906 524.625 -259.949219 555.015625 -249.167969 599.714844 C -250.6875 599.753906 -252.101562 600.6875 -252.660156 602.199219 C -253.394531 604.179688 -252.382812 606.382812 -250.402344 607.117188 L -247.664062 608.128906 C -246.371094 618.171875 -246.933594 628.777344 -249.835938 639.609375 C -206.3125 589.839844 -124.738281 610.566406 -110.222656 675.089844 C -94.796875 610.777344 -12.941406 591.199219 29.878906 641.578125 C 13.667969 577.460938 77.058594 522.054688 138.367188 546.75 C 94.238281 497.519531 124.636719 418.980469 190.390625 412.335938 C 128.453125 389.265625 118.894531 305.585938 174.035156 269.125 C 108.476562 277.496094 61.152344 207.851562 93.042969 149.921875 C 38.882812 187.824219 -35.367188 148.160156 -34.03125 82.039062 C -64.386719 140.785156 -148.546875 140.195312 -178.074219 81.027344 C -177.859375 116 -198.683594 143.269531 -226.277344 155.492188 C -226.371094 155.484375 -226.460938 155.449219 -226.554688 155.449219 C -226.957031 155.449219 -227.367188 155.511719 -227.769531 155.644531 L -243.585938 160.941406 C -264.117188 165.007812 -286.511719 161.230469 -306.089844 147.117188 C -275.015625 205.484375 -323.3125 274.460938 -388.746094 265.167969 C -334.125 302.402344 -344.859375 385.9375 -407.113281 408.136719 C -341.457031 415.703125 -312.167969 494.660156 -356.980469 543.269531 Z M -1143.152344 385.046875 C -1143.042969 387.277344 -1142.882812 389.492188 -1142.667969 391.695312 C -1142.375 394.753906 -1141.980469 397.78125 -1141.488281 400.777344 C -1141.488281 400.789062 -1141.488281 400.789062 -1141.488281 400.789062 C -1140.222656 408.550781 -1138.308594 416.09375 -1135.820312 423.371094 C -1135.328125 424.804688 -1134.824219 426.214844 -1134.28125 427.625 C -1133.472656 429.765625 -1132.609375 431.886719 -1131.691406 433.988281 C -1129.988281 437.886719 -1128.109375 441.703125 -1126.054688 445.421875 C -1118.320312 459.5 -1108.214844 472.089844 -1096.289062 482.660156 C -1094.234375 484.5 -1092.136719 486.257812 -1089.972656 487.953125 C -1089.699219 488.183594 -1089.417969 488.402344 -1089.132812 488.621094 C -1088.3125 489.265625 -1087.472656 489.898438 -1086.632812 490.519531 C -1084.6875 491.964844 -1082.699219 493.351562 -1080.679688 494.6875 C -1071.699219 500.644531 -1061.988281 505.59375 -1051.71875 509.34375 C -1041.34375 513.171875 -1030.398438 515.785156 -1019.023438 517.019531 C -1013.96875 517.585938 -1008.8125 517.871094 -1003.601562 517.871094 C -996.761719 517.871094 -990.042969 517.378906 -983.457031 516.429688 C -983.445312 516.429688 -983.445312 516.429688 -983.4375 516.429688 C -982.300781 516.265625 -981.164062 516.078125 -980.027344 515.890625 L -980.015625 515.890625 C -979 515.71875 -977.984375 515.53125 -976.96875 515.335938 C -973.34375 514.632812 -969.78125 513.792969 -966.265625 512.820312 C -965.335938 512.570312 -964.417969 512.296875 -963.5 512.023438 C -958.269531 510.460938 -953.167969 508.589844 -948.21875 506.457031 C -947.386719 506.097656 -946.558594 505.726562 -945.726562 505.34375 C -943.378906 504.273438 -941.074219 503.148438 -938.800781 501.945312 C -938.773438 501.929688 -938.742188 501.910156 -938.710938 501.894531 C -936.746094 500.859375 -934.8125 499.765625 -932.902344 498.644531 C -932.339844 498.3125 -931.78125 497.96875 -931.222656 497.628906 C -929.75 496.738281 -928.296875 495.816406 -926.863281 494.871094 C -926.375 494.550781 -925.882812 494.234375 -925.398438 493.902344 C -921.566406 491.3125 -917.875 488.53125 -914.328125 485.582031 C -914.039062 485.335938 -913.75 485.089844 -913.460938 484.84375 C -911.855469 483.488281 -910.28125 482.09375 -908.742188 480.667969 C -908.5625 480.503906 -908.382812 480.339844 -908.207031 480.175781 C -904.667969 476.863281 -901.304688 473.371094 -898.125 469.707031 C -898.054688 469.628906 -897.984375 469.542969 -897.917969 469.464844 C -896.339844 467.636719 -894.804688 465.773438 -893.320312 463.867188 C -893.316406 463.859375 -893.308594 463.851562 -893.300781 463.839844 L -755.628906 420.875 L -755.628906 420.851562 C -755.472656 420.855469 -755.320312 420.878906 -755.160156 420.878906 C -754.574219 420.878906 -754.003906 420.8125 -753.421875 420.789062 L -748.273438 422.695312 C -746.292969 423.433594 -744.09375 422.417969 -743.359375 420.4375 C -743.207031 420.019531 -743.144531 419.59375 -743.136719 419.175781 C -724.621094 413.929688 -711.039062 396.933594 -711.039062 376.726562 C -711.039062 355.902344 -725.46875 338.488281 -744.851562 333.835938 C -744.875 333.515625 -744.921875 333.191406 -745.027344 332.871094 C -745.5625 331.269531 -747.054688 330.257812 -748.652344 330.257812 C -749.054688 330.257812 -749.464844 330.320312 -749.867188 330.453125 L -755.183594 332.234375 L -896.703125 288.070312 C -922.332031 257.613281 -960.695312 238.246094 -1003.601562 238.246094 C -1042.171875 238.246094 -1077.09375 253.875 -1102.382812 279.179688 C -1105.277344 282.078125 -1108.050781 285.09375 -1110.683594 288.242188 C -1112.519531 290.429688 -1114.289062 292.671875 -1115.984375 294.976562 C -1119.183594 299.285156 -1122.132812 303.796875 -1124.820312 308.476562 C -1127.417969 313 -1129.777344 317.679688 -1131.867188 322.5 C -1134.628906 328.882812 -1136.921875 335.507812 -1138.714844 342.339844 C -1139.480469 345.195312 -1140.132812 348.078125 -1140.703125 351 C -1140.921875 352.132812 -1141.128906 353.28125 -1141.335938 354.429688 C -1141.566406 355.796875 -1141.773438 357.164062 -1141.96875 358.527344 C -1142.023438 358.964844 -1142.089844 359.402344 -1142.144531 359.839844 C -1142.332031 361.285156 -1142.503906 362.738281 -1142.648438 364.203125 C -1142.710938 364.902344 -1142.777344 365.601562 -1142.832031 366.3125 C -1142.898438 367.078125 -1142.964844 367.863281 -1143.007812 368.640625 C -1143.0625 369.417969 -1143.105469 370.191406 -1143.148438 370.980469 C -1143.191406 371.875 -1143.226562 372.773438 -1143.257812 373.667969 C -1143.28125 374.347656 -1143.292969 375.011719 -1143.300781 375.691406 C -1143.3125 376.476562 -1143.324219 377.277344 -1143.324219 378.0625 C -1143.324219 380.40625 -1143.265625 382.734375 -1143.152344 385.046875 Z M -1143.152344 385.046875 " fill-opacity="1" fill-rule="nonzero"/><path fill="#ffce00" d="M -329.3125 376.636719 C -329.3125 254.703125 -230.179688 155.5 -108.328125 155.5 C 13.523438 155.5 112.660156 254.703125 112.660156 376.636719 C 112.660156 498.574219 13.523438 597.777344 -108.328125 597.777344 C -230.179688 597.777344 -329.3125 498.574219 -329.3125 376.636719 Z M -407.113281 408.132812 C -344.859375 385.9375 -334.125 302.402344 -388.746094 265.164062 C -323.3125 274.460938 -275.015625 205.484375 -306.089844 147.117188 L -306.089844 147.113281 L -306.089844 147.117188 C -286.511719 161.230469 -264.117188 165.007812 -243.585938 160.941406 C -237.621094 159.761719 -231.8125 157.941406 -226.277344 155.492188 C -198.683594 143.269531 -177.859375 116 -178.074219 81.027344 C -148.546875 140.195312 -64.386719 140.785156 -34.03125 82.039062 C -35.367188 148.160156 38.882812 187.824219 93.042969 149.921875 C 61.152344 207.847656 108.476562 277.496094 174.035156 269.125 C 118.894531 305.585938 128.453125 389.265625 190.390625 412.335938 C 124.636719 418.980469 94.238281 497.519531 138.367188 546.75 C 77.058594 522.054688 13.667969 577.460938 29.878906 641.574219 C -12.941406 591.199219 -94.796875 610.777344 -110.21875 675.085938 L -110.21875 675.089844 C -124.738281 610.566406 -206.3125 589.839844 -249.835938 639.609375 C -246.933594 628.773438 -246.371094 618.171875 -247.664062 608.128906 C -248.027344 605.28125 -248.507812 602.464844 -249.167969 599.714844 C -259.949219 555.015625 -308.753906 524.625 -356.980469 543.269531 C -312.167969 494.660156 -341.457031 415.703125 -407.113281 408.132812 Z M -336.960938 376.636719 C -336.960938 502.792969 -234.394531 605.425781 -108.328125 605.425781 C 17.742188 605.425781 120.304688 502.792969 120.304688 376.636719 C 120.304688 250.484375 17.742188 147.851562 -108.328125 147.851562 C -234.394531 147.851562 -336.960938 250.484375 -336.960938 376.636719 Z M -756.5 394.164062 C -750.945312 394.164062 -746.445312 389.660156 -746.445312 384.101562 C -746.445312 378.546875 -750.945312 374.039062 -756.5 374.039062 C -762.054688 374.039062 -766.554688 378.546875 -766.554688 384.101562 C -766.554688 389.660156 -762.054688 394.164062 -756.5 394.164062 Z M -747.449219 371.382812 C -747.449219 375.25 -744.316406 378.386719 -740.449219 378.386719 C -736.585938 378.386719 -733.449219 375.25 -733.449219 371.382812 C -733.449219 367.515625 -736.585938 364.378906 -740.449219 364.378906 C -744.316406 364.378906 -747.449219 367.515625 -747.449219 371.382812 Z M -774.257812 358.976562 C -777.238281 358.976562 -779.65625 361.394531 -779.65625 364.378906 C -779.65625 367.359375 -777.238281 369.777344 -774.257812 369.777344 C -771.277344 369.777344 -768.859375 367.359375 -768.859375 364.378906 C -768.859375 361.394531 -771.277344 358.976562 -774.257812 358.976562 Z M -785.621094 354.886719 C -785.621094 357.011719 -783.902344 358.734375 -781.777344 358.734375 C -779.65625 358.734375 -777.933594 357.011719 -777.933594 354.886719 C -777.933594 352.765625 -779.65625 351.042969 -781.777344 351.042969 C -783.902344 351.042969 -785.621094 352.765625 -785.621094 354.886719 Z M -769.835938 356.292969 C -768.023438 356.292969 -766.554688 354.824219 -766.554688 353.011719 C -766.554688 351.195312 -768.023438 349.726562 -769.835938 349.726562 C -771.648438 349.726562 -773.117188 351.199219 -773.117188 353.011719 C -773.117188 354.824219 -771.648438 356.292969 -769.835938 356.292969 Z M -775.25 347.011719 C -773.988281 347.011719 -772.964844 345.984375 -772.964844 344.722656 C -772.964844 343.457031 -773.988281 342.433594 -775.25 342.433594 C -776.511719 342.433594 -777.539062 343.457031 -777.539062 344.722656 C -777.539062 345.984375 -776.515625 347.011719 -775.25 347.011719 Z M -735.371094 396.101562 C -735.371094 398.910156 -733.097656 401.1875 -730.289062 401.1875 C -727.480469 401.1875 -725.207031 398.910156 -725.207031 396.101562 C -725.207031 393.289062 -727.480469 391.015625 -730.289062 391.015625 C -733.097656 391.015625 -735.371094 393.292969 -735.371094 396.101562 Z M -739.316406 398.996094 C -741.605469 398.996094 -743.460938 400.855469 -743.460938 403.144531 C -743.460938 405.4375 -741.605469 407.292969 -739.316406 407.292969 C -737.027344 407.292969 -735.171875 405.4375 -735.171875 403.144531 C -735.171875 400.855469 -737.027344 398.996094 -739.316406 398.996094 Z M -739.316406 345.914062 C -737.910156 345.914062 -736.769531 344.773438 -736.769531 343.367188 C -736.769531 341.960938 -737.910156 340.816406 -739.316406 340.816406 C -740.722656 340.816406 -741.863281 341.960938 -741.863281 343.367188 C -741.863281 344.773438 -740.722656 345.914062 -739.316406 345.914062 Z M -766.148438 415.320312 C -763.449219 415.320312 -761.261719 413.132812 -761.261719 410.433594 C -761.261719 407.734375 -763.449219 405.542969 -766.148438 405.542969 C -768.84375 405.542969 -771.03125 407.734375 -771.03125 410.433594 C -771.03125 413.132812 -768.84375 415.320312 -766.148438 415.320312 Z M -775.140625 404.125 C -776.492188 404.125 -777.585938 405.222656 -777.585938 406.574219 C -777.585938 407.921875 -776.492188 409.019531 -775.140625 409.019531 C -773.792969 409.019531 -772.695312 407.921875 -772.695312 406.574219 C -772.695312 405.222656 -773.792969 404.125 -775.140625 404.125 Z M -775.140625 404.125 " fill-opacity="1" fill-rule="nonzero"/></g></svg>