<?xml version='1.0' encoding='utf-8'?>
<svg xmlns="http://www.w3.org/2000/svg" version="1.1" id="Capa_1" x="0px" y="0px" viewBox="0 0 363.9 431.1" style="enable-background:new 0 0 363.9 431.1;"> <style type="text/css"> .st0{fill:#7A4035;stroke:#000000;stroke-width:0.216;stroke-linecap:round;stroke-linejoin:round;stroke-miterlimit:2.4142;} .st1{fill:#7A4035;} .st2{fill:none;} .st3{fill:#5C3028;stroke:#000000;stroke-width:0.216;stroke-linecap:round;stroke-linejoin:round;stroke-miterlimit:2.4142;} .st4{fill:#5C3028;} .st5{fill:#0A0F0F;stroke:#3E4F53;stroke-width:0.432;stroke-linecap:round;stroke-linejoin:round;stroke-miterlimit:2.4142;} .st6{fill:#0A0F0F;} .st7{fill:#172022;} .st8{fill:#2B383B;} .st9{fill:#415053;} .st10{fill:#5B6A6D;} .st11{fill:#778487;} .st12{fill:#B5BBBD;stroke:#96A0A2;stroke-width:0.432;stroke-linecap:round;stroke-linejoin:round;stroke-miterlimit:2.4142;} .st13{fill:#3D201A;} .st14{fill:#0A0E0F;stroke:#8A8883;stroke-width:0.432;stroke-linecap:round;stroke-linejoin:round;stroke-miterlimit:2.4142;} .st15{fill:none;stroke:#0A0E0F;stroke-width:6.984;stroke-linecap:round;stroke-linejoin:round;stroke-miterlimit:2.4142;} .st16{fill:none;stroke:#232D2C;stroke-width:5.904;stroke-linecap:round;stroke-linejoin:round;stroke-miterlimit:2.4142;} .st17{fill:none;stroke:#414B43;stroke-width:4.896;stroke-linecap:round;stroke-linejoin:round;stroke-miterlimit:2.4142;} .st18{fill:none;stroke:#61604E;stroke-width:3.816;stroke-linecap:round;stroke-linejoin:round;stroke-miterlimit:2.4142;} .st19{fill:none;stroke:#837050;stroke-width:2.808;stroke-linecap:round;stroke-linejoin:round;stroke-miterlimit:2.4142;} .st20{fill:none;stroke:#A67748;stroke-width:1.8;stroke-linecap:round;stroke-linejoin:round;stroke-miterlimit:2.4142;} .st21{fill:#A8B3AF;stroke:#465556;stroke-width:0.432;stroke-linecap:round;stroke-linejoin:round;stroke-miterlimit:2.4142;} .st22{fill:#E6EDEF;} .st23{fill:#E2E7E9;stroke:#CBD2D3;stroke-width:0.432;stroke-linecap:round;stroke-linejoin:round;stroke-miterlimit:2.4142;} .st24{fill:#3E4F53;stroke:#5A696D;stroke-width:0.432;stroke-linecap:round;stroke-linejoin:round;stroke-miterlimit:2.4142;} .st25{fill:#3A4D52;} .st26{fill:none;stroke:#FFF2C7;stroke-width:1.944;stroke-linecap:round;stroke-linejoin:round;stroke-miterlimit:2.4142;} </style> <g> <path class="st0" d="M311.1,216.1c0.6,5.8,0.1,8.9-0.7,7.1c-1-2,0.6,19,2.3,26.1c1.2,3.9-4.5-6.9-2,1.2c2.6,8.1-2.2,1.6-0.3,5.6 c1.9,4-1.9,7.8,0.6,13.7c2.3,5.8-3.6-1.7-0.9,3.5c2.6,5.2-1.3,2.2,0,5.9c1.2,3.8-1.9-1.3-0.7,8.2c0.9,6.6,4.8,11,2.7,9.7 c-2-1.4-1.4,0.4-0.4,3c1,2.5-2.3-1-0.4,2.6c1.9,3.8-1.7,6.2,3.9,21.6c1,2.9-3-0.6-0.7,3c2.5,3.5-0.6,1.6,1.6,4.6s1,5,2.9,7.8 c2.2,2.7-0.1,3.2,2.7,5.3c2.9,2.2,5.3,3.8,7.9,3.8c2.7,0-2.5,1.9,0.7,1.6c3.2-0.1,2.7,1.2,2.7,1.2s-4.2,0.3,0.7,1.2 c4.9,0.7,4.9,2.3,4.6,3.2c-0.4,0.9,2.9,0,3.3,1.3c0.4,1.4,5.2-0.3,8.5,2c3.5,2.5,8.7,3.9,10.4,9.1c1.6,5.2,3.9,6.8,3.2,10.8 s-2.6,1.2-2.7,4.5c-0.1,3.5-2.2,2.9-2.2,2.9s-2-0.3-3.3,2c-1.4,2.3-2-0.7-3.3,2.6c-1.2,3.2-3.3-1.7-4.2,0.1c-0.7,1.9-2.5,0.3-4.2,2 c-1.7,1.6-2.2-0.9-4.3,1.2c-2.2,2-2.3,0.4-4.6,0c-2.2-0.6-3.8,1-3.8,1s-6.3,4.6-14,0.9c-0.7-0.3,2.2,3.3-1.6,1.2 c-3.7-2.2,0.4,2.3-4.2,0.1c-4.5-2.2-3.9,1.6-7.6-2.2c-3.9-3.8-0.9,1.7-4.3-1.3c-3.3-3-6.1-5.8-7.1-4.6c-1,1.2,1.3,4-1,1.3 c-2.2-2.6-1.4,0.9-3.3-1.3c-1.9-2.2-3.2-0.4-5.5-2.6c-2.5-2.3-6.8,0-9.7-5c-2.9-5-2,2.9-4.3-3.6c-1.6,2.7-1.7,2.9-2.2-1.4 c-0.6-4.5-2.4-2.4-2.4-2.4s-1-5.2-3.9-6.5c-2.9-1.4,0-3,0.4-6.1c0.3-3-1,1-2.7,1s1.6-1.7,0.6-4.9c-1.4,2-2.6,1.9-2.6-2.2 s-0.7-6.9-2-5.5c-1.3,1.6-3.2,2.9-3.2,2.9s3.2-5.5,2-6.2s1.2-3.5-0.3-5.2c-1.6-1.7-0.9,3.8-3.5,3.6c-2.4-0.3,2.9-4,2.3-9.4 c-0.4-5.2-0.4,0-2,2.3c-1.7,2,0.4-6.9-1.6-2.3c-2,4.8,0.1-4.9-2.9,2.9c-1.4,3.9-0.7-9.2-4.9-0.3c-4.2,8.9-9.5,6.2-13,11.4 c-3.3,5.2-1.2-2.3-4,3.8c-0.6,1.4-1.6,4.2-1.6,4.2s0.1,0.6,0.1,2.9c0.1,2.5,0.9,3,1.9,3.9c0.9,1,1.3,2.3,0.7,2.6 c1.9,1.3,1.4,3.5,1.6,4.8c2.5,2.9,2.9,6.1,5,5c0.7-0.3,2.2,4,7.6,6.1c2.3,0.9,11.7,10.4,10.4,13.9c3.6,4.6,7.2,17.6,1.6,18.8 c-1.6,0.4-1.9,1.4-1.6,2.7s-1.6,2.3-3,3.7c-1.6,1.6-4.2,0.4-4.3,2.5c-0.3,2-4.5,0.3-5.6,1.9c-1.2,1.4-2.3-1.6-2.3-1.6s0.6,2-5,3.2 c-5.8,1.3-10.2,2.6-10.8,1.3c-0.4-1.4-3.2,0.9-4.3-1.3c-1.2-2-1.6,2.6-6.6,2.9c-5.1,0.4-3.9-3-8.9-3.6c-5.3-0.7-10-2.7-8.7-1 c1.3,1.6-3.8-2.2-3.9-0.6c-0.1,2.9-2.3-3.8-3.3-1.9c-0.9,1.9-3.3-5.3-4.2-2.5c-0.7,2-1.7-1.7-2.9-2.6c-1.3-0.9,0.4,4.5-2.3-0.1 c-2.6-4.5-1.7,0.1-4-3.3c-2.2-3.6-3.2-0.6-3.9-2.3c-0.9-1.9-6.8-1.4-8.5-7.1c-1.6-5.8-1.3-1.9-3-6.1c-1.6-4.3-4-5.8-5.6-6.8 c-1.7-1-1.9-2.2,1.7-1.4c3.8,1-4.8-2.7,0.4-1.7c5.2,1-0.4-2.9-2.2-3.6c-1.9-0.6,5.3,0.6,1.4-1.7c-3.9-2-5.5-3.5-1.4-3.2 c4,0.4,1.3-1.3-1.3-2.5c-2.5-1.2-1.6-2.9,0.7-2.6c2.3,0.4-1-2-3.5-3c-2.6-0.9-0.7-5-3.8-5.5c-0.4,6.5-6.1,17.9-11.5,18.9 c-5.3,0.9-4.5,3-5.8,5.2c-1.4,2.2-4.9,5.8-10.5,6.5c-5.5,0.7-6.2,2-7.2,3.3c-3.3,4.8-10,4.2-11,6.1c-0.9,2.2,0.9-4-3-0.4 c-3.8,3.5-4.2-1.2-6.5,2.7c-2.3,3.7-3-0.6-5.9,1.3c-2.7,1.9-4.5-2.3-5.3-0.6c-0.9,1.9-2-0.9-2.7,2.3c-1.3-2.9-4.6-5.5-5-8.1 c-0.3-2.7-1.3,2.4-2.5-1.6s-1.4-0.4-2.7-3.2s-7.2-9.1-7.6-5.1c-0.6,4-0.4-0.3-4-4c-3.8-3.7-6.5-7.6-6.9-5.2c-0.6,2.3-3.5-3-4-1.7 c-0.7,1.4-6.2-5.6-7.1-8.2c-0.9-2.6-1-2.9-1.6-0.4c-0.4,2.3-0.6-2.6-2.5-5.8c-1.9-3.2-2.9-5.1-3-3.6c-0.3,1.6-1.4-6.1-2.5-3.5 c-1,2.6-3.3-6.6-6.1-10.8c-6.2-9.4-3.2-15.4-5.5-17.7c-2.3-2.4,1.6-7.5-2-4.3c-0.7-6.6,2.2-11.4-1.6-22.2c-1-3.3-3,0-3,0 s2.5-9.7-0.7-6.2c-3.3,3.6,0.6-6.2,2.6-9.4s2-4.9,3.3-10.4c2.5-11.1,6.8-12.4,3.3-12.3c-3.6,0.1,7.2-6.2,2.2-6.1 c-5,0.1,3.9-2.3,6.3-4.9c2.6-2.7,11.4-6.2,15-10.2c1.3-1.6,5-2.9,5-2.9s0-2.2-1.4-1.9c-1.6,0.3,0.3-2.2,2.5-2.2s-1.3-1.9,0.9-3.8 c2.2-1.7-2-1-2-1s0.6-1.2,1.9-1.4c1.2-0.4-3.5-1,0.3-2.2c3.8-1.3,1.4-2.2-0.7-1.6s-3,0.1-0.9-1.3c7.5-5.2,3.6-4.9,5.9-6.6 c2.5-1.6,3.5-6.1,0.6-4.6c-0.3-0.7,1-1.7,2.3-2.9L311.1,216.1L311.1,216.1z"/> <path class="st1" d="M48.4,216.1c1-0.7,2-1.7,1.9-2.6c-0.7-2.6,2.9-3.3,2-5.5s2.3-3.2,1.7-4.6c-0.7-1.3,3.6-3,2.3-5.5 c-1.3-2.6,0.1-0.7,2.5-4c2.5-3.5,5.6-10.7,8.9-16.2c3.5-5.6,8.9-14.9,12.7-16.3c3.6-1.6-0.6-2,2.3-3.2c2.9-1.3,5.8-4.6,2.9-4.3 c-2.9,0.4,1.9-1.3,4.6-6.5c2.9-5.2,3.9-9.2,7.1-12.4c3.3-3.3-2.5-0.4,0.9-2.9c6.6-5-0.1-2.4,3.6-4.9c3.8-2.6-1.6-2.3,3.8-5.2 c5.2-2.9-3.5-1.2,3.3-4.5c6.8-3.2,1.2-3.9,5-4.5c3.8-0.6,0.1-2.3,3.6-2.3c3.6,0,1.7-1.9,1.7-1.9s6.2-0.9,2-2 c-3-0.9,9.8-0.1,2.9-2.4c0-1.6,2.2-0.3,4-2.3c2.5-2.9,6.2-2.2,6.1-4c-0.1-1.9,6.3-3,6.8-6.1c0.3-3-2.2-2.3-0.6-3.5 c1.4-1.2,0.6-3-0.6-1.9c-1.3,1.2-2.2-3.8-2.7-2c-0.7,1.7-2.7-1.6-3.5-4.9c-0.6-3.3-0.4-5.6-1.4-3.9c-1.2-1.7-0.9-4.9-2-2.5 c-0.1-1.9-0.1-2.9-0.1-2.9s-1.6,2-2,2c-0.6,0,1.7-5.6-1.9-8.5c-3.5-2.7-0.9-4.2-2.6-2.7c0.7-2.2-0.6-2.7,1.2-4.6 c2-1.9-3.6-1.3-0.1-2.9c3.6-1.4,4.3-3,1.9-2.5c0-1.3,2-1.6,4-1.9s1.9-1,0.4-1.2c-1.6-0.1-0.6-1,2.2-1.2c2.6-0.1,4.6-1,2.5-1.6 c0.9-0.9,5.6,1.4,3.9-0.6s4,2,3.3,0.4c-0.6-1.6,3-0.1,3.9,0.6c0.9,0.6,3.2-0.9,4.9,0.3s1.3-1.3,3-0.9c1.7,0.6,4.8-3.9,2.7-3.3 c-0.1-1,4.9-3.3,1.6-3.2c0-1.4,4-2,2.6-3.6c-1.6-1.6,3.2-1.6,3-3c-0.1-1.4,7.1-3.3,3-3c2.5-4.5,13-4.9,10.5-5.9c-2.3-1,3.3-1,5.5-1 s0.9-2,4.3-1.6c3.6,0.3,5.2-1,5.1-2.2c-0.1-1.3,2.3,1.7,3.5-0.7c1.3-2.6,1.2,1.9,5.2-2c2.2-2.2,1.9,1,6.8-3.9 c2.9-2.7-1,4.2,4.5-1.9c1.4-1.6-0.3,2.3,5.3-1.2c2.7-1.7,4.5,2.5,7.4,0.4c3.8-2.3,5.2-0.7,3,0.3s6.3-2,3.8,0s2.3,0,5.3,0.6 c3,0.7-1.2,0.4,2.7,1.9c3.9,1.6,5.2-1,7.8,0.7c2.5,1.7,3.2,0.6,4.6-0.9c1.6-1.6,4.2-2,5.9-5.6c1.7-3.5,3.7-3.6,4.9-3.3 s1.3-2.3,4.3-1.4c3,0.9,1.7-2,4.6-0.1c2.2-1.7,7.1-2.2,9.2,1c2.2,3,1.9,3.2,3.2,3.5s-0.6,1.3,1.6,3.2c1.9,1.9,0.1,1,0.1,4 s0,3.5,1,3.9c-0.9,0.9-7.2,19.8-1.6,32.3c5.6,12.7,3.5,83.4,11.8,84.7c0,1.3,1,3.5,4,7.4c-0.9,1-2.3,0.9,1.2,3.3 c3.6,2.6-2.9,0.4,2.9,6.3c-0.9,1.3-2.7-1.6,0.7,4.2c3.3,5.6-4.6-3.5,0.7,7.5c2.5,4.9,2.3,7.4,2.6,11.5c0.3,4.3,1.6,8.5-0.3,6.1 c-2.2-2.3-1,0.7,0.4,4.6c1.3,3.9,2.9,9.8,3.2,13.1c0.4,3.3-2.7-4.9-1.7,0c1,4.9,1.3,4.9,0,7.8c-1.2,2.7,0.1,6.8,0.1,6.8 s-1.7-4.3-0.9,2.2c0,0.6,0.1,1,0.1,1.3L48.4,216.1L48.4,216.1z"/> <path class="st2" d="M49.4,216.1h260.8"/> <path class="st3" d="M287.3,17.9c0,0-1.7,3-0.1,4.3c1.9,1.6,0.6,4.9,0.6,8.4c0,6.5,1.7,3.3,0.6,6.2c-0.9,2.3-1,3.7,0,5.3 c0.6,0.9,1.2,1.9,1.3,3c0,1.2-0.1,2,1.2,2.7s5.6,3,6.1,7.2c0.3,4.3,2.3,1.6,2.9,4.3c0.6,3,3.8,3.6,3.8,8.8c0,0.7,1.2,0.9,1.7,3 c0.7,3.3,3.2,3.3,1.6,4.3s-1,1.9-0.3,3c0.9,1,0.4,0.9-0.6,1.4c-1.2,0.6-1.2,1.2,0,2.6c2.5,2.6-1.6,1.2,0.4,2.9c0.9,0.7,0,1-1.2,2 c-1,0.9-1.9,1.3-0.3,2.9c0.9,0.9-4.6,3.2-1.2,3.9c2.3,0.6,1,1-0.1,2.3c-3,3.3,0.9,1.7-1.7,5.3c-1.9,2.6-2.5,3.9-0.7,3.9 c0.6,0,1.4-0.3,0.3,0.9c-1,1.2-2.9,3-0.1,2.5c2.5-0.6,1.2,0.4,0.3,1.6c-1,1.2-2.2,2.3-0.7,4.3c1.4,1.9-1.7,1.2-1.7,5.9 c0,1.4,0.3,2.9-1,4.5c-1.3,1.7-0.9,2.7-0.3,4.2c1.2,2.9-2.4-0.1-1.4,3.3C293.9,129.7,268.6,23.7,287.3,17.9L287.3,17.9z"/> <path class="st4" d="M185,22.2c2,0.6,7.6,4,4,3.2c-3.5-0.7-4.8-0.9-4.8-0.3c0.1,1.4,7.1,1.3,5,2.5c-1.9,1-4.9,0.6-5,1.7 c-0.3,1.2,7.5-0.7,9.2,0.9c1.6,1.7-2.9,0.9-2.9,2.2c0,1.3,6.3-0.6,7.2,0.9c0.9,1.6,0.7,2.6-1,2.9s1.2,1.9-0.6,2.7 c-1.6,0.7-3.2,2.5,0.7,1.7c3.9-0.6,6.5,2.7,3.3,2.5c-3.2-0.4-4.2,0.6-1.6,1.4c2.5,0.9,4.5,1.4,2.6,1.9s4.3,1.7,0.6,2.6 c-3.8,0.7-4.5,1.6-2.5,2.3c2.3,0.7,6.6,3.5,4,3.2c-2.5-0.4-2.9,0.4-0.7,1.3c2.2,0.9,2.3,2.2-0.3,1.9c-2.5-0.3-1.6,1.7-3,2 c-1.3,0.3,1.7,0.6,3.5,2c1.7,1.6,5,2.9,2.2,2.5c-2.9-0.3-2.7,0.3-1,1.3s2.3,2.2,0,1.2s-0.3,1.9-2.3,1.3c-2-0.4-3.2,0-0.1,1.4 c3,1.3,3.7,1.7,3.3,3c-0.4,1.2,4.3,3.5,1.2,2.5s-3.7-0.1-3,1.2c0.7,1.4,0.4,2.6-1.7,2.7c-2.2,0.1-4.9,2.9-2.5,2.6 c2.3-0.1,2.5,2.3,0.1,2.2c-2.3-0.3-0.7,4.9-3.8,3.8s2.9,4-0.4,2.9c-3.3-1.2-5.6-1.6-3.8,0c2.7,2.3,0.4,1.7,1.6,3.2 c1.3,1.4,2.3,1.4,2.9,3.6c0.4,2.2,0.4,2.9,1.3,1.9c1-0.9,1.3-1.3,1.2-2.6c-0.1-1.4-0.6-3,0.7-1.4s2.9,1,2,0.4 c-1-0.6-1.4-2.3-1.3-3.2c0-0.9,1-0.3,2.7,1.6c1.6,1.9,1.9,0.4,0.9-1c-0.9-1.4-1.3-2,0.7-1.2c2,1,3.5,0.7,3.5,0.7s-2.5-1.6-1.2-1.9 c1.4-0.1,2.7,1.4,3.9,1.2c1.3-0.3-0.1,4.9,0.9,4.2s1.6,1.7,0.4,4.6c-1.2,2.9-1.2,4.3-0.4,6.9c0.6,2.4-1.9,2.3-1.9,6.8 c0,4.3,0.6,3,0.6,3s1.3,0.1,0.3,1.7c-1,1.7,0.9,0.4,0,2.3c-0.9,1.7,1.9-1.4,1,1.7c-0.9,3.2-0.1,3.9,1.2,4.6s1.9,1.6,1.3,4 c-0.4,2.3,0.7,4.3,1.4,5.3c0.6,1,0.3-0.4,0.3-2.6c0-2.3,2.4-2.5,1.6-4.9c-0.7-2.6-1.4-9.8-2.2-8.9c-1.9,2.5,0.6-3.5-0.4-2.2 s-0.4-2.6-1-2.3c-0.7,0.4-0.6-1.3,0.6-2.3c1.3-1,0.7-3.2,0.7-3.2s1.6,1,1.4,3.2c-0.3,2.2,1.6,2.3,1.2,3.6c-0.6,1.2-0.3,2.5,0.4,1.6 c0.7-0.7,1.6,0,1,2.2c-0.4,1.9-0.1,4.9,0.7,5.6c0.9,0.7,3.9,3,2.3,3.8c-1.4,0.7,4.2-0.6,3,1c-1.2,1.4,4.5,0.6,2.3,2.5 c-1.9,1.9-1.6,3.7-1.6,3.7s2-3.3,2.9-2c0.9,1.3-0.7,1.7-1.3,2.7c1.7-0.3,3.7-2.3,4.3-0.3c0.3,1.4-4.9,3.2-5.5,4.2 c-0.4,1.3,12.3-3.3,14.9-3.5c2.5-0.1-5.2,0.3-3.9-2s2.9,0,4-1.7c1.2-1.6-1.3-1.4-1.4-3.3c-0.1-1.9,0.7-1.7,0.7-1.7s-3.2-0.9-2.2-2 c1-1.2,2.6-2.2,0.7-1.9c-1.9,0.4,0.3-1.3-0.9-2.3c-1.2-1,0.3-3.2-0.3-5.2c-0.7-2-0.4-2.6,0.3-1.9s1.4-1.3-0.9-2.3 c-2.2-1-2-3.9-1.2-4.2c0.9-0.4,1.4-1-0.1-1.7c-1.7-0.7-2.3-3.7-1.2-5s0.1-1.9-1.4-0.3c-1.4,1.4-1.4,0.9-0.9-1.4 c0.4-2.2,2.6-3.9,0.9-3.5c-1.6,0.4-2.6,3-2.5,1.2c0.1-1.9,1.7-3,2.5-3.8c0.9-0.6,2.7-2.7,0-1.6c-2.6,1.2-1.7,0.4-1.2-0.7 c0.7-1.2,0.4-2.2,2-2.9c1.7-0.6,1-2.3,1-2.3s4.3-5.2,2.7-6.9c-1.6-1.6,1.9-5.3,2.4-6.3c0.7-1-2,1-3.5,2.5c-1.4,1.6,0.4-2.9,0.4-2.9 s-1.6,2.2-3.5,3.2c-1.9,0.9,1.2-3.5,1.2-3.5s-2.6,1.6-1.3-1.2s-1.7,0.9-3.6,2.7c-1.7,1.9-3,1.2-2.3-0.4c0.7-1.4,0.3-5.8-0.6-4 c-0.7,1.9-1.6,3-1.7,0.1c-0.1-2.7-0.9,0.9-2.5,2.2c-1.4,1.2-2.3-3.6-0.7-6.5c1.4-2.9-1.3-0.1-2.6,1c-1.3,1.3,1.4-4.6,2.7-6.5 c1.2-1.9-2.3,0.3-3.8,1.9c-1.6,1.4,0.3-2.7,1.7-4.5c1.3-1.6-4.9,4.3-1.6-0.4c3.5-4.8-2.5,0.4,0-2.9c2.6-3.3-2.5,0.1-3.3,1.3 c-0.9,1.2-0.9-2.5,1.4-5.3c2.5-2.9,0.4-2.5-0.6-1.3c-1,1.2-1.7-0.6-0.4-2.5c1.4-1.7,3.3-1.6,4.9-3.2c1.7-1.4,5.8-4.9,8.1-5 s1.7-1.4-0.6-0.9c-2.5,0.7-3.7,1-3.7,1s1.4-2.6,4-3.6c2.4-1-3.8,0-4.5,1.3c-0.6,1.3,0.1-1.9,1.2-2.5c2-1.6,10.2-1.2,7.4-0.3 c-2.9,0.9-3,1.4-0.9,1.4s2.7,0.3,1.3,2.2c-1.3,1.9-1.4,5.5,0.6,3.5s14.1-3.3,13.4-6.5s-8.8-6.1-12.3-7.8c-3.6-1.6-3.8-3.8-5.8-3 s-5.5,0.4-7.6,2.6s-1.6-0.4,0-1.9c1.4-1.6,4.5-3.6,5.9-3.8c1.6-0.1-1.9-0.9-3.8,0.4c-1.9,1.2-5.8,3.3-3.9,0.6 c1.9-2.7,4.5-4.9,2-3.3c-2.4,1.4-4.8,4-4.6,2.5c0.3-1.4-4.5,2.6-3.3-0.9c1.2-3.3,4-6.8,6.6-7.6c2.5-0.9,4-2.6,4-2.6s-1,0.1-2.3-0.6 s-2.2-1-3.8-0.1c-1.4,1-3.5,1.9-4.3,0.9c-0.4-0.6-4.3,4.9-4.3,2.2c0.1-2.2-2.2,3-5.8,2.7c-1.7,0-3.6,3.8-5.8,2.5 c-1.3-0.9-0.6,2.6-3.8,1.2c-0.9-0.3-0.4-0.4-1,0.7c-0.4,1.2-2.6,1.4-4.3,1.4C187.5,21.1,186.3,20.3,185,22.2L185,22.2z"/> <path class="st1" d="M220.9,146c-1,2.9,1,5.6,2,6.9c1.2,1.4,5.9,6.3,8.1,7.4c1.3,0.6,5.6,1.2,5.8,2.2c0.9,3.8,2.6,1.2,2.4,0.3 c0-1.3,1.7-2.3,2.9-3c3.3-2.3,2.9-3.9,3.9-6.3c1-2.6,2.6-5.2,2.6-7.6c-0.1-2.5-0.6-5.1-6.5-5.6C236.2,139.5,222.4,142,220.9,146 L220.9,146z"/> <path class="st5" d="M238.7,159.4c0.4-0.4,1-0.4,2.5-1c4-1.9,3.3-6.2,5.2-8.4c1.3-1.4,1.3-3.6-0.1-5.8c-2.5-3.8-20.9-0.9-23.2,2.4 c-1.7,2.6,0.6,5.8,2.3,6.3c2.3,0.9,2.9,1.7,5.8,4.5c1.4,1.3,3.9,2.2,5.6,2.3c0.3,0.9,0.4,1.6,0.6,3.2c0.3,2.5,0.1,2.7-2,3.6 c-2.6,1-5.6,0.6-7.5,1.7c-1.9,1.2-6.5-0.1-8.8-1.2c-2-0.7-0.4,2.2,1.6,2.5c1,0.3,6.8,1.3,11.5,0.6c4.6-0.6,11.1-2.7,15-4 c3.9-1.2,6.9-5.6,7.5-6.8c0.7-1.2-1-0.9-2.2,0.1c-5.3,4.9-8.7,4.8-10.5,4.9c-2,0.3-2.3-0.1-2.6-1.4 C239,161.7,238.5,160,238.7,159.4L238.7,159.4z"/> <path class="st6" d="M231.3,139.6c1.7-0.4,0.9-4.9,2-4.9c2.6-0.3,3,4,5.8,4.5c6.6,0.7,9.2,2.6,8.8,6.5c-0.3,3.8-3.5,4.2-5,3.2 c-1.7-1-3.3,0.3-2.7,1.9s0.6,6.9-3.6,7.5c-4.2,0.4-5.5-5.2-6.2-7.2c-0.6-2.2-5.3,2.4-7.8-0.6c-2.4-2.9-1.2-5.3,0.4-6.5 C224.7,142.5,227.7,140.6,231.3,139.6L231.3,139.6z"/> <g> <path class="st7" d="M223.1,144.1c1.7-1.3,4.8-3.3,8.4-4.3c1.7-0.4,0.9-4.8,1.9-4.8c2.4-0.3,2.9,3.9,5.5,4.2 c6.2,0.9,9.4,2.6,8.9,6.2c-0.3,3.8-3.2,4.2-4.9,3.2s-3.5-0.3-3.2,1.4c0.4,1.9,0.9,6.8-2.9,7.6c-2.2,0.6-4-0.7-4.8-3.2 c-0.6-1.6-1-3.2-1.4-4c-0.3-1-1.4-0.7-2.9,0c-2,1-4,1.3-5.2-0.3C220.5,147.6,221.5,145.3,223.1,144.1L223.1,144.1z"/> <path class="st8" d="M223.1,144.1c1.7-1.2,4.9-3.2,8.5-4.2c1.7-0.6,0.9-4.6,1.9-4.8c2.3-0.1,2.7,3.9,5,4.2 c5.8,0.7,9.5,2.3,9.1,5.9s-2.7,4.2-4.6,3c-1.9-1-3.8-0.7-3.8,1.2c0,2,1,6.6-2,7.6c-2,1-4.2,0-5-2.9c-0.4-1.7-0.9-3.3-1.3-4.3 c-0.4-1.2-1.6-1-3-0.1c-2.3,1.6-4.3,1.6-5.3,0.1C220.8,147.6,221.5,145.4,223.1,144.1L223.1,144.1z"/> <path class="st9" d="M223.2,144.2c1.6-1.2,5-3,8.5-4.2c1.9-0.6,0.9-4.5,1.7-4.6c2.2-0.1,2.6,3.8,4.8,4c5.2,0.6,9.7,2.2,9.2,5.6 c-0.6,3.3-2.5,4-4.3,3c-2-1.2-4-1.4-4.2,0.6c-0.3,2.3,1.2,6.6-1.4,7.9c-1.7,1.2-4.3,0.6-5-2.9c-0.4-1.7-0.9-3.5-1.3-4.5 c-0.6-1.2-1.7-1.2-3.2-0.1c-2.6,2.2-4.6,1.9-5.5,0.4C221.2,147.6,221.5,145.5,223.2,144.2L223.2,144.2z"/> <path class="st10" d="M223.4,144.4c1.4-1.2,5.1-3,8.5-4.2c1.9-0.7,0.7-4.3,1.7-4.5c1.9-0.1,2.5,3.6,4.3,3.8 c4.6,0.7,9.7,2.2,9.2,5.3c-0.4,3.3-2,4-4,2.9c-2-1.2-4.2-1.7-4.6,0.4c-0.6,2.5,1.3,6.5-0.7,7.9c-1.4,1.6-4.5,1.4-5-2.6 c-0.3-1.9-0.7-3.7-1.3-4.8c-0.7-1.3-1.9-1.4-3.3-0.3c-2.9,2.7-4.9,2.2-5.6,0.9C221.5,147.7,221.5,145.7,223.4,144.4L223.4,144.4z"/> </g> <path class="st11" d="M222.5,149c-0.6-1.3-0.9-3.2,1-4.5c1.4-1.2,5.2-3,8.5-4.2c1.9-0.7,0.7-4.2,1.6-4.3c1.9-0.3,2.5,3.5,4,3.6 c4.2,0.7,9.8,1.9,9.4,5.1c-0.6,3.2-1.7,4-3.8,2.9c-2-1.3-4.6-2.5-5.2-0.1c-0.9,2.7,1.4,6.3,0.1,8.2c-1.4,1.9-4.6,2-5.2-2.6 c-0.4-4.5-2.2-7.8-4.8-5.2C225.1,151.2,223.1,150.2,222.5,149L222.5,149z"/> <path class="st12" d="M226.7,144.4c-1.9,1-4.5,2.3-2.7,3.9c1.3,1.3,3.5-1.6,4.6-2.5c1.6-1.2,3.5-0.9,5.6-1.3c2.3-0.6,3.9-1,6.1-0.7 c3.2,0.4,4.9,2,5.2,1.6c0.7-0.9-2.6-3-5.2-3C237.5,142.4,231.9,141.6,226.7,144.4L226.7,144.4z"/> <path class="st4" d="M283.1,9.8c-1.3-2.6-2.5-5.8-4.2-5.2c-1.7,0.4-2,0.4-3.2,0c-1.2-0.6-2.7,0-4.9,1.6c-2.2,1.7-5.8,2.2-6.8,3.9 c-1,1.9-0.3,2.9-2.3,3.3c-2,0.6-2.9,2.6-5.2,1.9c-2.5-0.6-2.2-1.3-3.6-0.1c-1.3,1.2-3.3-0.1-3.3-0.1s-1.3,1.2-0.3,1.9 s3.3,2.5,0.1,2.3c-3.2-0.1-3.6,0.9-0.7,2c2.9,1.2,1.9,2.7,1.9,2.7s-3.8-2.3-4.3-0.7c-0.7,1.7-1,2.5-3.8,1.9c-6.2-1.2-7.5,1-7.5,1 s12.6,6.2,15.7,9.8c3.2,3.5,15,10.8,19.2,5.9C274.2,36.6,284,14.7,283.1,9.8L283.1,9.8z"/> <path class="st4" d="M296.8,134.9c0,3.2,0,1.6-2.7,3.2c-2.7,1.4-6.2,3.3-4.2,4.2c2,0.7-6.1,4.2-3.9,3.6c2.2-0.4-1.3,2.5-4,2 c-4.3-0.4-14.9,9.8-18.6,11.3c-3.9,1.6-4.6-1.3-1.9-5.8c2.6-4.6,24.2-59.1,14-81.8c0.1-2-2.7-2.7-3.5-5.2c-0.7-2.6-0.1-2.5,3-0.3 c3.2,1.9,6.1,1.7,6.1,1.7s-2.7-1.2-2.7-2.5c0-1.4,1.3,0.4,3,0.7c1.9,0.1,0.4-2.6,2.5-0.6s1.9-1.7,4.5,0.7c2.7,2.3,1.3-1.4,0.1-3 c-1-1.7-2.5-3.6-1.4-3.8s0.4-1.6-2.2-4.8c-2.7-3.2-1.2-4.3-2.2-5.2c-1-0.9-0.9-2-0.9-2s-2.7-0.3-3.8-3c-1-2.6-1.6-1.9-3.5-1.6 c-1.9,0.1-0.9-3.8-1.9-5.3c-1-1.4-2.6-2.2-2.6-2.2s2.3-0.6,0.6-2.3s-1.2-2.5,0.1-2.7s1,1.9,3.3-0.4c2.5-2.5,1.6-3.3,1.3-5.8 c-0.6-3.2,2-3.6,2.5-5c0.7-2.2-2.7-2.3-0.6-3.9c2.3-1.4,0.9-3.8-1.6-2.9c-2.6,1-3.7,3.7-4.2,0.9c-0.6-2.9-1.6-1.4-3.3-0.1 c-1.6,1.3-3.2,1.3-1.9-0.1c1.2-1.4,0.9-3.7,3-3.7c1.9,0,3.2,0.6,3.6-1c0.6-1.4,2,1.6,3,0c1-1.4,2.6-0.4,3.9,0.4 c1.3,0.7,4.2,0.3,3.9,2.3s1.9,3,1.9,4.8c0,1.6,1.7,1.6,1.7,1.6C280.1,29.9,294.6,133.1,296.8,134.9L296.8,134.9z"/> <path class="st4" d="M253.7,156.1c2.7,1,4.9,2.5,8.1-4.8c3.2-7.2,21.1-58.4,15.6-74.6c-4-12.4,7.4-4.5,11-5.2 c2.5-0.6,5.8-6.2-1.4-18c-3.8-6.1-5.9-9.2-8.1-10.5c-1.2-0.6-4.9-9.4-9.8-12.5c-2.7-1.9-2.5,0.9-3.5,0.4c-1.4-0.6-3-2.5-3.5-1.6 c-1.6,2.7-6.8-2.3-7.9-2c-0.4,0.1,3.5,3.8,1.3,4s2.3,3.3,3.3,3.3c3.5-0.4,5.2,6.5,3,5.8c-1.4-0.4,4.3,8.1,4.2,9.1 c-0.7,5.9,1.4,14,2.3,17.3c1.6,5.2-4.6,37.5-7.8,46.4C257.1,122.2,253.7,156.1,253.7,156.1L253.7,156.1z"/> <path class="st4" d="M224.1,369.1c0.4,2.5,0,2.6,0.6,3.5c0.6,0.6,1.7,2,2.5,3.5c0.9,2,2.3,1.6,3,1.3s0.6,0.4,1.6,1.6 c1.2,1.3,2.7,3,4.8,3.9c2.2,0.9,3.2,1.4,4.9,3.2s-6.1-3.2-13.1-2.9s-9.1,1.6-5.8,3c3.5,1.3,1.7,1.3-5.6,0.7 c-7.5-0.7-9.1,0.6-7.8,2.6s-0.3,2.3-4,1.7c-3.8-0.7-14.9-2.3-14.1,0s-5.3-1-5.1,1.7c0.3,2.6-6.6,1.6-7.2-0.7 c-0.7-2.3-0.3-14.9-1.7-11.1c-2.6,7.4-3-1-3.8-8.4c-0.3-4.2-2.9,2.3-2.9,2.3s0.6-9.1-2.2-5.8c-2.6,3.5-0.3-4-0.6-7.4 c-0.3-3.3-3,0-3,0s3.3-5.3,4.6-11.1c1.4-5.8-7.1,3.8,0-12.8c7.1-16.4-2.6-5-2.6-5s3-17.2-0.4-9.7c-3.3,7.4-1.3-10.5-3.6-6.5 s-3-1.6-0.7-7.6c2.5-6.1,3.3-12.8,0.3-13.1c3.8-4.8,6.5-13.8,2.5-10.5c-4,3.5-3.3-0.3-0.3-5.6s20.9-14.6,17-15.1 c-3.9-0.7-5.6,2.3-5.6,2.3s2-8.1,6.5-11.4c4.8-3.3,4.5-9.1,1.7-6.4c-2.6,2.6,0-7.8-3.9-4.2c-4,3.8-1-2.9,1.3-6.6s6.1-15.9,11-20.5 c5.2-4.6-1-6.6-3.3-2.6c-0.7-5.8,6.3-9.1,7.4-14.1c1.2-5-3.3-1.3-3.3-1.3s-3-7.8-7.8-6.5c-4.5,1.4-5.9,3.7-5.9,3.7s1.4-5.8,4.6-8.7 c3.5-3-2.3-2.2-2.3-2.2s5.3-4.9,3.6-7.6c-1.6-2.7,17.9-1.4,25.7-1.4c7.6,0,35.9,1.4,45-8.7s14-14.4,24.4-21.9 c10.5-7.4,14.1-8.7,14.1-8.7c-0.1,1.7-1.2,3.5-2.9,4.9c-1.6,1.6-1.3,2.6,0,2.9c1.4,0.4-3.3,1.3,0,1.9c3.5,0.7-3.5,1-1,2 c2.6,1-5.2,1-2.5,2.6c2.7,1.4,6.3,4.2,3.6,3.7c-4.5-0.6,0.7,2.3-1.3,1.9c-2-0.3,3.8,1.7,5.9,3.3c2.2,1.4,0,0.6,1.3,3.2 c1.4,2.5,0.3,2-1.7,0.6c-2-1.3,0.6,4-1.2,2.9c-1.6-1.2,9.4,5.8,9.1,12.1c-0.4,6.3,1.3,11.8-0.7,9.4c-2-2.3-3,0.4-1.4,3 c1.7,2.7,2.5,8.5,2.5,8.5s-1.4-2-4.8-3.5c-3.3-1.3,1,2,2.3,6.1c1.4,4-1.6,0.4-3.3,1.4c-1.6,1,2.3,5.3,2.3,8.4c0,2.9,1,7.9,1,18.8 c0,10.7,6.8,24.2,3.5,21.5c-3.5-2.7-4.8,0.7-1.3,8.1c3.3,7.4,1.9,10.4,1.9,10.4s-4.6-8.1-4.6-2.6c0,5.3,3.3,6.3,2,13.7 c-1.4,7.5,0.7,0-2-1.7c-2.7-1.6-2.5,1-0.7,7.5c1.7,6.4-2.7-0.4-1,5.3s0,3.5,0.4,8.1c0.3,4.8,5.3,3,2.3,7.8c-3,4.6,0,10.4,2,14.4 s-1.4,8.1,2.3,9.8c3.8,1.6-5.3,3-0.7,7.4c4.8,4.3,6.9,0,10.4,2.7c3.3,2.6-1.2,4,4,5.5c5.1,1.6,10.8,2.6,14.1,3.3 c4.2,1,6.3,3-2.5,2.5c-8.7-0.7-6.2,3.9-11,4.2c-4.6,0.3-6.9,3-3.6,3s-0.3,1.7-6.8,1.3c-6.3-0.3-8.8,1.7-7.1,3.8s-5.3,2-3.3,3.3 c2,1.4-5.5-0.3-3.8,6.3c1.7,6.8-3,1.9-1.7,4.3c1.4,2.3,1,4.6,1,4.6s-4.5,1.7-3.6,4.6c-1.2-1.7-1.7-2-2.5-1.4c-1,0.9-1-1.6-4-1.9 c-3-0.3-1.7-1.9-6.1-2.6c-4.2-0.6-5.3-2.2-6.3-3.8c-1-1.7-1.7-2.5-2.6-1.4c-0.7,1.2-1.3-1.4-1.9-2.3c-0.7,0.3-1.3,3-1.6,1 c-0.4-2-0.4-6.5-2.7-4.9c-0.9-3.5-2-5.3-4-6.3c-1.9-0.9-0.6-2.5-0.1-3.2c1-1.9,1.2-5.2,0-4c-1,1.2-1.7,2.2-2.2,1.9 c-0.3,0,1.9-2.3,0.4-4.8c-0.9,0.9-1.7,2.2-2-1.4s-0.3-6.6-1.7-6.9c-1-0.1-1,0.3-1.7,0.7c1-1.6,1.9-2.4,0.6-3.3 c-0.9-0.9,1.2-3.6-0.6-5.5c-0.7-0.7-1.2-0.4-1.3-0.4c0,0-0.7,0.4-0.3-0.6c0.7-1.2,1-0.9,0.6-4.2c-0.3-3.3-1.4-3-1.7-2 c-0.3,1.2-0.1,1.2-0.7,1.7c-0.6,0.3-0.3-1.9-1-1.7c-0.7,0-0.9,0.6-1.3,1.2c-0.1,0.3-0.6-0.7-1.2-0.3c-0.9,0.7-1.4,1.2-1.6,0.9 c-0.6-0.6-1-1.2-2.2-1c-1.3,0.1-2,2.6-2.9,4c-0.6,1.4-2,4.3-6.8,6.5c-4.8,2.2-5.1,2.6-6.2,4c-1,1.4-1.3,1.7-1.7,1 c-0.3-0.6-1,0.1-1.4,0.9c-0.4,0.7-1.2,3.2-2,5c-0.3,0.6-0.6,1.4-0.7,1.7c0.6,2.3-1,4.8,0.6,6.2c0.9,0.7,2.5,2.6,1.2,2.9 C222.6,367.2,223.9,368.7,224.1,369.1L224.1,369.1z"/> <path class="st4" d="M249.5,325.9c0,0,7.1-7.6,7.1-12.7c0.6,6.1-2.5,11.7-2.5,11.7s5.5-5.3,6.5-13.1c1-7.6,2.3,6.5,3.3-2.3 c1-8.7,4.3,4,4.8,9.1c0.3,5,2.5-2.3,1.3-8.8c-1.2-6.3,1.6-1,2,1.7c0.6,2.7,1.4-1.3,0.7-3.5c-0.7-2.3,2,3.5,1.6,7.2 c1.3-6.9,1.4-11,0.4-14s2-1.2,2.9,1.4c0.7,2.7,1.7,0.9,0.4-3c-1.2-3.9,3,2.7,3.2,6.8c0.1,4,1.3-6.2,0-9.8c-1.2-3.5,2.4-2.2,0-7.1 c-2.3-4.8,2.7-1.7,4,1.4c1.4,3.2,1.6-2.6-0.1-4.9c-1.6-2.3,2.6,0.7,4,3.5c1.6,2.9,1.7-2.2,0.1-4.3c-1.4-2.2,1.9,0.7-0.1-2.2 s-1.7-5.9,0-3.8c1.7,2.2,4.8,7.5,4,1.9c-0.6-5.6-2.5-7.2-3.6-9.2c-1.3-2,0.6-1.3,2,0.4c1.6,1.9,2-0.7,0.6-2.4 c-1.3-1.7,1.9,0.3,2.7,1.9c0.9,1.4,0-3.9-3.6-7.1c-3.5-3.2-3.5-5-2-4.9c1.6,0.1-2.5-2.9-0.4-2.2c2,0.6,5.8,2.3,7.1,4.5 c1.2,2.3,1.4-1.7-0.4-4.8c-1.7-3-2.2-5-0.3-3.9c1.9,1.2,5,4.2,2-1s-2.9-6.1,0.7-4.5c3.5,1.7-0.9-2.5-3.7-3.5 c-2.9-1-6.8-3.8-6.5-6.1c0.1-2.3,3.5-0.7,3.5-0.7s-5.2-4.8-2.3-4.5c2.7,0.3,4.3,1.4,4.3,1.4s0.7-2.6-1.9-3.2 c-2.5-0.6,2-2.9-2.9-2.2c-4.8,0.7-5.2-1.6-6.8,0.6c-1.7,1.9,0.9,4.2,0.9,4.2s-3.6-0.4-4.9-1.7c-1.4-1.4-1.2,0.7,1,2.7 c2.2,2,0.4,3.2-1.3,2.2c-1.6-1-1.9-0.4,0.3,1.3s-0.3,3.2-0.3,3.2s-2.2,0.4-0.6,2.9c1.4,2.6,0.9,2.7-1.7,1.6c-2.4-1.3-3.3,1-3.3,1 s1,2.2-2.3,1.2c1.4,1.4,3.8,2.2,3.8,2.2s-2.9,3.2-5.9,1.9c0.7,2,3.9,2.3,3.9,2.3s-3.2,1.6-5.3,1.6c-2.2,0,0.3,1.9,2.7,2.3 c2.3,0.3-3.9,0.1-5.5,2.3c-1.4,2.3,2.7-1.2,4.2,1.6c-2.7,0.7-4.3,1.4-4.9,4c-0.7,2.4,0.1,6.1-1.2,5c-1.2-1-2.4-0.4-3.3,1.3 s-1.9-0.1-1.9-0.1s0.3,6.1-0.7,3.2c-1.2-2.9-2,5.3-2.3,2.5c-0.1-2.9-1.2,6.5-2.3,2.3c-1.2-4.2,0.1,3.3-2,7.1 c-2.2,3.6-1.9,7.4-1.9,7.4s-1.4-4.2-1.4,2c0,6.2-1.9,5.3-1.9,5.3s0.1,3.6-3,4.9s-2.2,7.1-2.2,7.1s1.6-5.3,1.2,1.4 c-0.4,6.9,2.2-2.2,2.2,1.7c0,3.9-0.9,13-3,15.1s0.3,5-0.7,8.2c1-1.3,1.7-2.6,2-3.6c0.4-0.9,1.6-2.6,2.5-2.6c1.2,0,1.6,3,2,3 c0.3,0.1,0.9-2.7,1.9-2.7c0.6,0,0.6,0.9,0.7,0.9c0.1,0.1,0.7-1.9,1.4-1.9c0.6,0,0.1,2.4,0.6,2.7c0.4,0.1,1-1.7,1.3-2.6 c0.1-0.9,0.7-1.2,0.9,0c0.3,1.6,0.7,3.6-0.7,6.5c-1.3,2.7-2.5,3.9-1.9,4.2c0.4,0.4,1.4,0.1,1.9-1c0.4-1.2,0.6-2.6,1.3-2.6 s1.3,1,1.2,2.2c0,1.7-0.9,2.9-0.1,3.3c0.6,0.4,0.3,2.3-1.7,5.8c0.9-0.7,2.3-1.9,2.7-2.5c0.6-0.7,1.3-0.3,1.6,0.4 c0.9,2.2,0.4,6.8,0.9,7.8c0.4,0.7,0.7,1.3,2.2-0.6c-1-1.7-0.9-3.8-0.1-4.9c0.6-1.3-1.3-2.6,0.6-6.3c1.9-3.9,1-10.1,1-10.1 s-1.3,5.6-1.7,2.6c-0.4-2.9,0.1-2.9,0.1-2.9s-1.9,5.3-2.3,1.7s0.1-5.3,0.1-5.3s-2.5,4.6-2.3-0.7c0.1-5.5-2,5.9-3.2-1 c-0.1-1.2-0.9,2-1.3-0.9c-0.4-2.9-1-3.3-1-3.3S249,326.6,249.5,325.9L249.5,325.9z"/> <path class="st13" d="M214.4,301c-0.6-7.4-1-15.6,0-12.5s2.4-11,2.4-7.4c0,3.7,2,0.7,1.3-5.8c-0.7-6.3,3-9.4,3-9.4s0.7,1.7,0.3-6.3 c-0.3-8.1,3-7.8,3.5-3.8c0.3,4-10.1-31.9-5.5-24.5c4.8,7.4,5.5,2.7,5.5-4s0.7-14,5.3-10.8c2.7,2.2-6.5-15.4-7.4-10 c-1,5.8-2.5,2.5-3-2.3c-0.7-4.8-2,2-3.5-1.3c-1.3-3.5,4.8-1.7,4-5.8c-0.6-4,2.7,2.7,6.1,4.3c3.5,1.7,2,2,0.3-2.6 c-1.6-4.8,2.5,1,4.8,2.6c2.5,1.7-1.3-2-1.3-4.3s3.8,1.4,5.8,1.4s6.6-10.8,6.6-10.8s4,3,8.4,4.6c4.5,1.7,6.8,2.5,7.5,0 c0.7-2.3,3.8-0.3,3.3,2.5c-0.3,2.6,2.7,0.3,2-3.8c-0.6-4,4-4.3,4-2s3.3,3.3,3.3-0.6c0-4.2,5.5-1.2,2.2,3.9c-3.5,5-4.5,9.1-8.1,12.8 c-3.8,3.8,1-8.7-3.5-0.7c-1.7,3-5,5.8-4-1c1-6.6-1.6,3.5-4.3,6.5s0,4.3-2,7.2c-2,3,3.3,3.6,1.3,7.4s0.4,5,2,0.7 c1.7-4.5,4.5,4,3.5,6.1c-1.2,2-6.5,12.4-3,7.8c3.3-4.8,3.3,0,1.6,3c-1.6,2.9-4.6,10.7-2,7.1c2.7-3.8-3,5.9-5.6,8.9 c-2.7,3-0.4,3.5,3,1.4c3.3-2,4-5.3,4-5.3s-0.7,5.3-3,8.4c-2.5,3-0.7,6.3,0.3,5s4-5.8,4-5.8s1.7,3-1.3,7.1c-3,4,4.3-2,4.3-2 s7.1-6.1,3.6,1.3c-3.3,7.5-23.7,67.5-25,70.1c-1,2-2.9,5-6.6,6.1c-3.8,1.2-12.4,4-12.6-5.9c0-10-3.8-12.1-4.9-16.4 c-1.2-4.5-1.6-9.5-2.3-5.5c-0.9,4-2-0.4-1-3.9c1-3.3,1.7-4.2,1.2-9.5C212.3,297.9,214.3,298.2,214.4,301L214.4,301z"/> <path class="st13" d="M269.7,113.1c1.9,3.2,1.4-3.8,1.7-6.3c0.3-1.9,2-3,0.7-8.5c3.9,3.8,0.3-3.5,0.3-5.2c0.1-2.6,3,4.8,1.9-5.5 c2.2,2.3,3-2.2,1.7-4.9c1.3,0.3,0.4-1.4-0.6-5.2c1-0.9-2.3-9.5-2.3-9.5c1.7,1.6,2.3,1.9,2,3c-0.1,1.3-0.1,2,2.6,2.6 c2.6,0.4,2.9,1.9,3.2,2.9s-4.9-0.1-1.3,1c3.5,1.2,0.7,2.4,4,3.7c3.2,1.4-3.6-0.3,0.4,2.5c4.9,3.2-0.3,2,1,3.5 c1.4,1.6,2.6,3.8,0.1,3c-2.3-0.6,0.1,1.2,1.9,4.5c1.7,3.2-2.6-1.3-0.4,1.9c3,4.5-2.6,0-0.1,4c1,1.9-1.2,1.2-0.3,4.3 c1.7,5.5-1.4,0.3-0.9,2.6c1.6,5-1.4,2.3-0.4,4.9c1,2.7-1.3,0.7-0.9,3.2c0.4,2.6,1.2,6.6,0.1,6.9c-1,0.4,1,3.9-0.4,1.9 c-1.6-2-1.3-0.3-1.6,2.3c-0.1,2.7-1.9-0.9-1.9,2c0,2.9-2.6,1.4-3,3.9c-0.3,2.6-0.7,7.9-1.7,4.5c-1-3.6-1,0.3-1.7,2.6 c-1.4,5.1-1.2-0.9-2.7,4.5c-0.9,3.2-1.7,0-3,4c-1.2,3.9-2.2,0.9-3.3,3.3c-1.2,2.3-2.6,4.5-3.8,5.5c-1,1,1.2,0.9,3.2-0.9 c2.3-1.6,4.3-0.3,4.3-2.2c0-1.9,2.2-1.6,3.6-1.9c1.6-0.1-1.6-0.6,1-2c2.7-1.3,2.5-2.9,0-1.6c-2.3,1.3-0.4-0.9,1.6-2 c2-1.2-1.9-1.2,0.3-2.9c2.2-1.7,0.1-1.3,2-3c1.9-1.7,2.6-2.5,2.6-4.2s0.6-1.3,2-1.2c1.3,0.1,2.4,1.2,4.5-0.4c2-1.4,4.3-2.6,2.3-0.6 c-1.9,2-0.1,2.3,1.3,1.2c1.3-1.2,3.5-2.9,3.5-2s-0.1,2.3-1.7,2.6c-1.4,0.4,0.7,2.5-1.9,3.8c-2.7,1.4-4.3,3.3-2.9,3.2 c1.3-0.1,2,0.6-0.9,1.7c-2.9,1.2-2.9,2.9-1.9,2.6c1-0.4,0.9,0.4-1.3,1.4c-2.3,1-2.5,2.5-3.6,3.8s-4,1.2-6.2,3.5 c-2.2,2.4-2.9,1.9-4.9,2.2c-2,0.4-5.3,3.8-2.6,3c2.6-0.6,3.2-0.1,1.6,0.9c-1.4,1-5.2,4-2.9,3.5c2.5-0.7-0.4,2.2-2.6,3.2 c-2.2,1,1.6,2.5-1.7,2.5s-0.3,2-4.3,2.2s-3.3,0.7-2,1.6c1.3,0.9,1.4,1-1.9,1.4c-3.3,0.6,0,1.2-3,2.5c-3,1.2-0.6,0.7,2,1.6 c2.5,0.9,3.9,2.2-0.6,2.2c-4.3,0-2.6,0.6-1.3,1.7c1.3,1.2-2.4,0.6-0.1,2.7c2.3,2.2,1.3,2.9-0.1,2.6c-1.6-0.1,2.7,2,1,2 c-1.9,0,2.3,3.5,1.2,4.3c-1.2,0.7,2.2,4.5-0.4,2.9c-4.3-2.9,0.7,2.6-1.9,1.7c-4.3-1.3,1.9,3.9-2.6,3c-1.7-0.3-0.1,1.2-2.3,2.3 c-2.2,0.9,2.2,0.4-0.6,2.5c-2.6,2,2.9,0.4-0.6,3c-3.6,2.5,0.3,1-0.6,2.6c-0.9,1.7-1.4,3.2,0.7,2.6c2.2-0.4-2.5,3.5-0.1,3.9 c2.2,0.4,3.2,2,0.4,2s0.6,1.2-0.6,1.9c-1.3,0.6-2.5,4.9-1.4,4.5c1-0.3,0.7-0.1,0.7,2.3c0,2.6,2,2.6,0.3,5.3 c-1.7,2.6,0.6,3.8-1.9,6.5c-2.3,2.9-5.3,11.1-6.5,10.8s4.2-8.1,3.6-10.8c-0.4-2.6,1.7-5.2,0.6-7.9c-1.2-2.6-2.7-1-4.9,0.7 c-2.2,1.7,0-0.7,2.2-4.8c2.2-4,2.9-6.8,0.7-4.9c-2.2,1.7-0.4-1.2,0.7-3.6c1.2-2.5-0.6-3.5-1.6-3.2s3.9-4.3,0.4-2.7 c-3.6,1.7,9.5-12.7,2.6-8.7c-6.9,4.2,7.2-9.4,1.2-6.3s4.5-6.2,2.2-7.5c-2.2-1.4,0.6-6.5-4.5-2.6c-5,3.9-1.7-1,0.6-3.5 c2.4-2.6,2.7-3.9-0.1-1.7c-2.7,2.2-2.2,1.3-0.3-1.4c1.9-2.9,1.2-4.5-0.3-3.5c-1.6,1-0.4-2.2-4.6-0.3s-3.3-2.5-7.2-0.7 c-3.9,1.9,0.4-3.2-3.5-0.6c-3.9,2.5,0.4-2.6-12.3,8.1c-2.2,1.6,4.3-5.9-4.8,1.6c3.3-4.5,6.5-7.8,4-7.1c-2.6,0.9-7.9,4.9-5.9,2.6 c2-2.5-2-1.6-5.8,0.9c-3.6,2.3,8.2-8.5-0.3-3.9c-8.4,4.5,5.9-4.2-1.4-1.6c-7.5,2.7,3.3-2.9-4.9-0.3c-8.2,2.5-4-2-6.9-1.2 c-2.7,0.9-5.8,1.4-3.9-0.1c1.9-1.7,1.9-2.6-1.2-2.6s-5.3-1.9-4.8-2.6c0.6-0.6-3.9-2.6-5.6-3.5c-1.9-0.9,10.5,2.7,13.8,3.9 s7.4,0.4,9.5,1.2s5.1,0.1,7.1-0.4c2-0.7,7.6-1.7,5.5-0.4c-2.2,1.4,2.5,0.9,4.6,0c2.2-0.9,2.9,1.4,5.9,0c4.2-1.9,8.4-2.9,8.4-2.9 s0.4,1.6,2.5,1.4c2,0,1,1.3,1,1.3s0.1,0.4,1.7,0c1.6-0.4,3-0.6,2.5,0.6s0.4,0.6,1.3,0c0.9-0.4,1.6,1.6,2.6,0.4c1-1.3,3-1.9,2.2-0.4 c-0.7,1.3,1.9,0.3,2.7-1.2c1-1.4,4.6,0.3,3.8-0.6c0-0.1,1.6-1.7,1.6-1.7s0.4,2,0.9,1c0.6-0.9,0.6-1.9,1.3-1.6c0.7,0.4,3.6,0,3.6,0 s-2.3-0.7,0-1.3c2.2-0.6,2.7-0.7,3.5-1.7s-2,0,0-1s2.7-0.4,3.6-1.6s-2-0.7-0.4-1.3c3.6-1.2,0.4-1.9,1.3-3.5 c1.2-1.6-0.4-1.6-0.3-2.6c0.1-1-0.9-1.4-1.7-2.3c-0.9-1,4.3,2.6,4.3-4.8c0-3.5,1.7,0.6,1.7-5.2c0-2.2,1.9,0.6,1.4-4 c-0.6-5.2,1.9-1,1.9-3.2c-0.1-2.7-1.2-2.3-1.3-5c-0.1-2,1.2,0.7,1.2-1.3c-0.1-2.9-1.2-9.5,0.6-7.9c2.9,2.9,1-4.2,1.9-6.2 C268.1,116,270.4,118.6,269.7,113.1L269.7,113.1z"/> <path class="st4" d="M239.4,138c3.2,0.1,6.3-3.5,5.8-5.9c-0.7-2.6-0.9-7.6-0.1-10.2c0.6-2.7-0.7-6.3-1.9-7.6s-1.7-4.8-0.3-6.8 c1.6-2,1.6,2.3,2.2,3.3c1.7,3.6,3.5,5.2,2.6,6.6c-0.9,1.6,0.6,3.5,0.1,5.9c-0.3,2.5,3.6,5.5,4,2c0.6-3.5,2-5.9,0.3-9.4 c-2-3.6,0-5.2-2.5-7.9c-2.3-2.7,1.3-1.9,1.3-4.2c0-2.5,2-0.6,1.6-4.2c-0.4-3.7,1.2-4,1.9-6.2c0.6-2.3,0.3-1.9-2.6-1.4 c-2.7,0.6-8.2,0.6-10.1-2.6c-1.9-3.3-2.2-2.7-3.5-1.9c-1.4,0.7,0.1-1.4-2.2,0.3c-2.5,1.7,0.1-2.6,1.3-4.9s-1.2-1.2,0.1-4.5 c1.4-3.5,5.2-7.4,4.9-5.9c-0.3,1.3,3-0.3,4.9-1.2c1.9-0.9,3.3-0.4,4,0.7s2.9,1.4,3.8-0.1c0.9-1.4,7.2,0,4.8-5.6 c-2.3-5.8-4.3-5.6-6.1-4.9c-1.6,0.7,1.9-2.9-1.7-1.7c-3.8,1.2-0.6-1.7-2.9-2c4.6-2.6,2.6-1.6,2.2-3.5c-0.6-1.9-1.4-1.4-4.6-3.6 c-0.4-0.3,3-2.2-1.4-2.2c-4.6,0,2.2-3-1.6-2.3c-3.6,0.6-3.9-1.6-2.4-2.6c1.3-1-0.1-2.5-1.9-1.3c-1.7,1.2-2.2-2.7-4.3-1 c-2.3,1.7-2.3,0-0.6-1.9s2.3-1.4,4.6-1.7c2.2-0.1,3-0.3,3.2-1.7c0.1-1.6,2.9-2.7,0.1-2.7s-2.2-2.6-3.9,0.4 c-0.3-2.3-1.9-2.6-2.5-1.3c-0.7,1.3,0.9-2.9-2.6-3.5c-3.5-0.7-2.9-3.6-4.9-3.8c-2-0.1,1.3-2.2,2.2-1.2c1.9,2,4.5,1.4,5.5,2.9 c1,1.3,7.6,1.2,8.8,2.6c0.9,1.6,3.3,1.4,4,3c0.6,1.7,5.9,0.6,5.9,2.7c0.3,3.3,6.6,3.2,7.5,5.2c0.9,2,7.2,0.6,8.7,2.9 c1.6,2.3,4.6-0.9,5.5,0.6c0.7,1.6,2.3,3.3,3.5,3.5s-1.7,0.1,0.6,2c2.2,1.9-0.3,1.3,2.3,4.3c2.5,3,4.5,4.8,2.9,5.3 c-1.7,0.4,0.4,1.4,1.3,3.3c0.9,1.7,2.2,3.5-1.2,1c-3.3-2.6-6.2-5.6-5.9-3.9c0.3,1.6-5.8-3.2-4-1s2.7,4.2,0.1,2.9 c-2.5-1.4-3.5-2.6-3-0.7c0.6,1.9-2.2-1.6-2.5,0.4c-0.4,2.3,0.4,5.5,2.7,7.5c0.6,0.6-0.7,3.6,0.3,7.8c1.6,5.9-1.7,0.4-0.1,7.2 c0.7,3.9-3,1-1.3,5.2c0.9,2.2-3-1.6-0.9,6.1c0.6,2.2-2.6-2.5-1.3,5.8c0.6,3.3-1.9-2.6-1,4.6c0.3,3-2.6,2.5-2.6,4.3 c-0.1,3.8-2.6,3.3-1.9,8.4c0.7,5.5-3.3-0.6-2.3,6.5c0.4,4.2,0,11.1-1.3,10c-1.2-1.1,1.2,7.5-0.6,5.1c-1.7-2.6,1.4,5.5-0.4,4.2 c-1.7-1.3,0.6,4.6-0.7,3.6c-1.4-1.2,0,5.2-2.6,5.6c-2.6,0.6-2.2,4.8-4.6,6.9c-3,2.9-4.8,2.5-4.6,3.3c0.1,0.7-2.3,0-2.6,0.9 c-0.3,1-1-0.1-2.2,0.4s-1.6,0.1-2.5,0c-0.7-0.1-1.6-2.9-1.3-2.9c1,0,0.9-1.9,1.7-1.2c0.7,0.7,2.9-0.3,3.8-1.4 c0.9-1.2,3.9-1.6,3.7-3.5c-0.1-1.9,1.9-2.2,1.4-4.3c-0.6-2.3,1.7-2.2,1.4-4.5c-0.1-2.3-0.3-4-0.9-4.8s-1.9-3-2.9-2.6 c-1.2,0.3,0.1,1-1,1.3c-0.3,0-0.1,0.1-1.7-0.6c-1.6-0.6-2.9-0.9-4.9-1c-1.7-0.1-2.3-1.3-2.3-1.3S238.1,138.2,239.4,138L239.4,138z"/> <path class="st4" d="M169.3,97.5c-0.6,2-2.5,1.7-2-0.7c0.3-2.6-1.9-0.3-1.2-2.6c0.9-2.2-2.2-1.2-1-3.8c1.3-2.7,1.3-4.5-0.6-3.3 c-1.9,1.2,2.7-3,1-2.9c-1.7,0.3-0.7-2.2,1.2-3.3c1.9-1.2,1.7-2.9,0.6-2.7c-1.3,0.3,0-2,0.9-3c1-0.7,1.9-3.3,0.4-2.6 c-1.6,0.7-1.2-0.9,1.3-2.7c2.5-1.9,4-3.8,2.2-3.5c-1.7,0.3,1.6-2.5,2.6-3.3c1-1.2,1.4-2,1.4-3.2s1.6-2,3-2.6c1.6-0.7,3-1,2.2-1.9 c-0.9-0.9,1-0.7,2.2-1.6c1-0.7,3.3-2.3,1.7-1.9c-1.4,0.3-0.7-1.9-1.4-3.5c-0.7-1.4,0.6,3-1,1.2c-1.4-1.9,0,2-2.2,0.4 c-2.5-1.7,1.2,2.3,0.6,2.3s-3-0.9-3.6-0.1c-0.7,0.7,1.9,3,0.1,3c-1.9,0-3.2-0.6-3,0.7c0.1,1.2,1.2,2-0.7,2.5c-1.9,0.3-5,2-3.5,2.3 c1.4,0.3-2.7,0.3-3.5,2.6c-0.6,2.2,0.3,2.3-1.9,3c-1.9,0.6,0.6,0.6-1.3,2.2c-1.9,1.4-3.6,3.9-1,3.3c2.7-0.4-2.5,3-0.3,2.6 c2.2-0.6-1.7,3.3-2.6,5.2c-0.9,1.9,1.7-0.3,0,2.2c-1.6,2.5,1.6,1.3-1,4.2c-2.5,2.9,0.1,2.3,1,1.6c0.9-0.9,0.4,1.6-0.3,3.2 c-0.7,1.4-1.3,4.3-0.3,4.2s-0.6,3.2,0.1,5c0.7,1.9-2.2-0.3-2.2-1.9c0-1.4-1.3-2.2-1,1.6c0.1,3.6,2,11.5,3.2,13.7 c3.2,6.2-2.6,12-2.7,17c0,2,0.6,4.9,0.6,3.2c0-1.6,1,2.6,1,5.2c0,2.7,1.3-2.9,1.4-0.3c0.1,3,1.7,6.1,1.6,3.5 c-0.1-2.4,1.4,0.3,1.4,5.5c0,1.3,1.7-4.2,1.7-0.1s1.6,7.9,1.6,5.6c0-2.2,1.3,4.2,1.7,2.6c0.6-1.7,2.7-1,2.6,1.2 c-0.1,2.2,2.2-0.3,2.5,2.5c0.3,2.9,0.7,4.2,2,2.3c1.3-2,1.7,0.1,1.6,1.7c-0.3,1.7,1,4.5,1.7,2.9c0.9-1.4,2.3-0.6,2.6,2 c0.3,2.7,2.7,1,4.6,1.2c1.9,0.3-1.9,3.5,0.7,2.6c2.7-0.9,4.3-0.9,2.5,0.4c-1.9,1.4,1.9,1,4.2,0.7s9.5-3.3,7.4-1.4 c-2.2,1.7-1,1.9,2.9,0.6s7.1-0.7,5.6,0.4c-1.6,1.2-0.3,1.3,3,0.3c3.2-1,1.3,2,4.3,0.4c3-1.4,5.9-1.6,6.2-2.4s-0.7,0.9-3.3-0.9 c-1-0.7-2.6-1.6-2-3c0.4-1.3,2.7-0.1,4.3,0.3c2.6,0.9,5.3,1.7,7.6,0c2.2-1.6-2,1.3-7.6-1.3c-5.8-2.6-5.2-3.7-6.2-2.3 c-1,1.3-3.2-0.9-3.8-2.9c-0.4-2-1.9-4.6-3.9-5.9s-1-4.3-2.2-5.5c-1.2-1.2-2.3-4.2-3-3.9c-0.6,0.3-1-5-1.6-3.6 c-0.7,1.6-0.4-8.4-1.7-5.2c-1.3,3.2-0.9-0.1-0.6-3.2c0.4-3-0.3-6.9-1.3-5c-1,1.9-0.9-0.1-0.7-2.9c0.1-2.6-1.3-1.2-1.4-3.6 c-0.1-2.6-1-3.5-0.3-4.6c0.6-1.2-2.6-0.9-0.7-3.6c1.9-2.9-2.2-0.6,0.1-3c2.3-2.6,0.7-2.5,2-4.8c1.4-2.3,0.7-2.2,1.2-4.6 c0.6-2.3,0.9-4.2-0.4-2.7c-1.4,1.6,0.1-2.6-2.9-4.5c-3-1.9,0.7-1.9-2.3-3.6c-3-1.9-2.9-3.5-4.9-2.6s-2.7,0.7-3.7-0.7 c-1-1.3-0.7,2.3-3,1.2c-2.5-0.9-1.7,0.9-3.3,2.6c-1.7,1.7-3.3,1.2-3.8,3c-0.6,1.9-1.9,4.3-2.2,2.7 C170.3,94.9,169.7,96.2,169.3,97.5L169.3,97.5z"/> <path class="st4" d="M158,43.4c3.5-1.9,3.2-2.3,5.5-3.5s5.5-4.6,8.4-5c2.9-0.6-1.6,0.9-2.6,3.5c-0.7,2.7,3-1,1.3,2 c-1.9,3-4.2,5.8-2.2,5.2c2-0.4-3,2.2-2.6,4.5c0.6,2.2-2.9,1.6-2.9,3.3S157,57,155.6,63c-0.3,1.3-5.3,3.8-2.7,3.8 c2.7,0-1.2,2.4-1.4,3.9c-0.3,1.6,1.7,0.3,1.4,2.2c-0.1,1.9,2.9-2.2,1.4,0.4c-1.6,2.5-5,5.8-5.5,7.9c-0.3,2.3,1.9-0.9,2.9-1.7 c1-0.9-0.6,2.2-1.2,3.6c-0.4,1.6,1.2,0.3,1.7-0.6c0.4-0.9,0.3,0.6-0.7,2.7c-1,2.3,2-0.6,1.6,1.2c-0.6,1.6-1.6,5.3-0.7,5.6 c0.9,0.3,0.9,3.2,0.9,4.9c0,1.6,1.3,1,1.3-1.2s1,2.2,1.2,3c0.1,0.9,0.7,8.2-2.3,14.6c-3,6.5-5.5,12.4-5.5,18.2 c0,5.8-1.3,0.7-1.3-2.3c0-3-1.2,3-0.4,6.9c0.6,3.8,1.6,1.2,1.7,5.3c0.6,7.2,2.4-2.7,2.9,2.2c0.6,4.9,2.7,8.4,5,9.8 c2.4,1.3,3.2,0.1,4.3,3.2c1.7,5.2,1.6-0.9,2.5,1.7c0.9,2.5,3,4,2.7,2.2c-0.4-1.9,1.9-0.4,2.6,2c0.9,2.3,2.9,3.6,2.9,2.3 s1.9-1.6,2.2,1.2c0.4,2.7,1.9,4.9,2.5,2.9c0.4-2,2,0,3.2,1.2c1.2,1.3,4.5,0.7,4.9,2.2c0.3,1.6,1.6,1.7,2.3,1.4c0.7-0.4,8.1,1.7,1,2 c-6.9,0.3-8.8-0.6-11.7-1.7c-2.9-1.2,2.6-1.3-2.3-2.2c-4.9-0.9-2.2-2.2-6.3-1.6c-4.3,0.7-2.6-1.4-0.9-1.9c1.7-0.6,1.7-2.2-2.9-2.6 c-4.5-0.4-5.3-2.9-2.3-1.9s-2.7-3.5-6.1-4.8c-3.3-1.2-4-2.5-1.7-2.5s0.1-2.2-3.8-2.9c-3.8-0.7-1.2-1-0.6-2c0.4-1-5.8-6.6-2.9-5.5 c2.9,1.2,1.2-1.9-1.3-4.3c-2.6-2.3,1.3-5.8-3-8.5c-4.3-2.6,2.3-2-1.6-4.6c-3.9-2.5,3.3,2,0-4.2c-1-1.7,4.9-3.8-0.1-5.6 c-2.6-1-0.7-1.6,0.4-3.5c0.9-1.7,1.4-4.9-0.7-3c-2.2,2,1.6-4.6,0-3.5c-1.7,1.2-1-2.4,0.9-5.3c1.7-2.9,6.1-8.9,3.3-7.1 c-2.7,1.7-1-1-0.3-3.8c0.6-2.7,0.4-3.6-1.7-1.2c0.3-1.3-0.9-2.6-0.9-2.6s1.7-1.6,0.9-2.6c-0.9-1.2-0.9-0.6-1.4-0.3 c-0.4,0.3-0.7,0-1.6-1.6c-0.9-1.4-2.5-4.3-2.3-6.8c0.1-2.5,0.3-4.9-0.9-3.9c-1,1,1.9-4.6-1-4.6c-2.9,0,0.4-2.6-1.6-3.8 c-2-1.2-1.9-3.3-2.3-5.9c-0.4-2.5,1.4-0.3,2.2-2.6c0.7-2.5,3.3,0.6,5.3-1.9c2.2-2.6,4.6-3.6,6.3-2.7c1.6,0.9,4.5-0.9,4.3,0.7 c-0.1,1.4,1.9-0.6,2,0.6c0.1,1.3,1.6-1.7,4.9-3c3.2-1.2,6.1-2.3,4.6-3.3c-1.3-1-2.3,0.4-3.6-0.4c-1.4-0.9-2.3,0-3.3-0.3 c0.9-1,1.3-1.2,1.7-0.9C155,46.2,157,45.3,158,43.4L158,43.4z"/> <path class="st1" d="M187.5,54.8c-2.3,0.9-8.5,7.4-6.6,7.1c1.7-0.1-0.1,2.6-1.7,3.5c-1.4,0.9-2.2,4-2.2,4s3.8-3.6,5.6-3.3 c2,0.1-2.5,3.3-4.8,5.6c-4,3.9,3.2,1-0.9,4.5c-2.6,2-4,4.9-4.3,6.5c-0.4,1.4,2-2.2,4-3.6c2-1.3,3.2-0.4,1.3,0.9s-3.5,3.9-5.2,6.9 c-1.4,2.4-2.5,6.1-0.6,3.3c2.2-2.6,4.3-5.6,3.8-3.8c-0.4,1.7,1.7,0.3,2.9-2.5s3.5-3.9,4.9-3.5c1.3,0.3,6.2,2.2,3.7,3.2 c-2.6,1,2.3,0.4,3.6,1.6c1.3,1.3,3.6,0,1.3-2.5c-2.2-2.5,3.5-5.6-0.4-3.9c-3.7,1.7,3.8-3.5,0.7-2.7c-5.1,0.9-6.6,0.7-4.9-1 c1.6-1.6,6.3-3.8,7.5-4.2c1.2-0.3-3.5-1-6.2,0.4c-2.7,1.3,1.4-1.9,3.3-2.6c2.2-0.7,1.2-1.9-1.4-0.9c-3.2,1.3-2.6,0.3-1-1 c1-0.7,3.8-3,2.2-3c-1.4,0-3.2,0.6-1.9-0.9c1.4-1.6,3.5-4.5,0-2.7c-1.3,0.7-1.4-0.7-0.9-1.9c0.7-1.2,0.4-3.6,2.2-4.9 c1.6-1.3,0.1-1.9-1.9,0.3C187.6,56.1,184.7,58.6,187.5,54.8L187.5,54.8z"/> <path class="st1" d="M232.5,69.7c-1.7,1.4-2.2,1.2-1.4-1.3c0.6-2.6-0.9-2.9-3-0.4c0.1-3,0.4-3,1.4-5.6c1-2.7,0.1-2.9-1-1.3 c-1.2,1.7-1.6,4.5-1.6,0.7s2.3-6.3,0.7-5c-1.4,1.3-2.7,3.5-2.7,3.5s-0.7-2.3,0.4-4.9c1.2-2.7,0-3.2-0.7-1.7c-0.6,1.6-2.5,4-2.2,1.6 c0.3-2.6,2.6-5.5,3.6-6.2c0.9-0.9-0.3-5-1-2.9c-0.9,2-2.7,3.8-2.7,3.8s0-3.2,2.9-5.6c2.9-2.6,5.2-3,4.6-2.2 c-0.4,0.9-3.3,1.9-3.3,2.7s3.6,0.3,2,2c-1.6,1.9,0,2.3-0.9,3.9c-0.9,1.7,1.7-2.5,4-4c2.5-1.4,1,0.9-0.1,3c-1.2,2.3,0.1,3,0.1,3 s0.6-1.3,2.2-2.2c1.7-0.9-1.2,1.9-1,3.5c0.3,1.7,2.6-2,4.8-2.7c2.2-0.7,0.9,0.9,0.1,1.7c-0.7,0.7,0,1.3,0.6,1 c0.4-0.1,0.9,0.3-0.6,1.4c-1.3,1.2-1.4,3.2-1.4,3.2s1.9-1.9,2.7-1.9c0.7,0-0.9,1.9-1.2,2.9c-0.1,1,1.7,0,1.7,0s-0.6,1.7,3.6,0.9 c4.2-0.9-0.6,1-1.9,1.9c-1.4,0.9-1,3,0.1,2.3c1.2-0.7,4.3-1.2,2.4-0.1c-1.7,1-1.3,1.9,0.7,1.7c2-0.1-0.3,1.9,2.9,1.7 s-1.2,1.6-3,2.5c-1.9,0.7-4.6,2.6-3.3,0.6c1.2-1.9,0.3-1.9-1.3-0.7c-1.4,1.2-3.3,1.4-3.3,1.4s-0.9-0.6,0.7-1.9c1.4-1.3-2.6,0-2.9,1 C234.1,71.8,235.5,67.2,232.5,69.7L232.5,69.7z"/> <path class="st1" d="M199,96.6c0.7,1.4,0.9,4.2-0.3,6.9c-1.2,2.6-0.7,3.5,0.1,2.5c0.9-1,2.5,0,0.9,2.3c-1.7,2.5-1.9,4.5-1.9,4.5 s3.2-4.6,2.7-1.3c-0.6,3.5-2.6,3.9-2,5.3c0.4,1.3,1.7-0.4,3.2-1.7c1.3-1.3,3.5-1.2,2.3,0.1c-1.2,1.4-0.9,2-0.9,2s3.2-1.6,1.7,0.3 c-1.6,1.9-4.3,4.6-4.8,7.1c-0.3,2.6,1.4,1,1,4c-0.3,3,0.7,8.5,1.2,5.6c0.6-2.9,2.2-3.2,2.2-3.2s-1.2,3.5-0.4,6.2 c0.7,2.6,1.6,2.6,0.9,4.5c-0.7,1.9,1.2,4.8,1.2,4.8s0.3-5.3,1.2-3s-0.1,3.9,1,5.9s2.5,3.9,2.2,2.9c-0.1-1-1.3-5.9,0-6.1 c1.4-0.3,0.6,6.6,1.7,8.5c1.2,1.9,3.3,3.5,2.7,2.2c-0.7-1.2-0.9-4.9-0.1-3.6c0.6,1.2,0.7,5,2.2,5.8c1.3,0.9-0.4-2.3,0.9-1.7 c1.2,0.4,4.3-1.4,5.9,0.3c1.7,1.7,3.2,1.7,1.9,0.3c-1.3-1.3-5-3.3-4.9-5.5c0.3-2.2-1.2-1-0.7-2.7c0.3-1.6-2.2-3.2-1-4.6 c1.2-1.6,2.9-3.5,3.2-4.6s-1.2-4.2-1-3.2s-1.4,3.6-1.2,1.4c0.1-2-0.6-4.2-0.9-2.6c-0.3,1.4-1.2,2-0.7,4.2c0.6,2.2,1.2,5.5-1,4 c-2.2-1.6-3.2-3-3.3-4.9c-0.1-1.9-1.9,4.2-1.9,0.3s-0.4-6.6-0.4-6.6s-0.7,1.1-1.4,3c-0.7,1.9-0.7,5.3-1,3.3s-2.7-2.5-1.6-4.9 c1-2.3,0.4-3.3,0-2.5c-0.6,0.7,0.4-1.7,1.2-2.7c0.6-1,0.4-4-0.1-2.3c-0.7,1.6-3.9,1.3-3-0.1c0.7-1.6,1.4-3.2,0.3-2.5 c-1.2,0.9-1.9-0.6-0.6-2.9c1.4-2.2,3-6.3,1.9-6.1c-1.2,0.4-1.3-0.1-0.9-0.6c0.6-0.6,1.6-4.8,0.4-4c-1.2,0.6-1.7,0.3-0.4-1.2 c1.4-1.6,1.7-2.7,1.7-2.7s-1.2,0-2.7,1.2c-1.4,1.2,0.3-1.3,1-2.7c0.9-1.3,1.3-4.5,0.4-4.6s-0.4,1.4-1.4,1.9 c-0.9,0.3-0.7-2.6,0.7-3.6c1.6-1,0.4-2.6,0.4-2.6s-2,3-1.9,1.3c0.1-1.7,0.6-3.6,0.6-3.6s-1.7,3.7-2,2.5c-0.3-1.4-1.4,2.3-1.9,1 C201,96.2,199.4,98.8,199,96.6L199,96.6z"/> <path class="st14" d="M241.1,80.5c-1.3,2,0.3,2-0.9,3.2c-1.2,1.2,0.4,1.3-0.1,2.2c-0.7,0.9-0.6,2.3,0.7,1.9 c1.4-0.6,1.7,2.3,5.1,2.5c3.5,0.3,6.3-0.6,8.1-4.3c1.9-3.8,1.4-4.8,1.3-6.2c-0.3-1.6,1-2.3,0.7-3.9c-0.1-1.6-1.2-0.9-1.6,0 c-0.6,0.9-2.9-1-6.2,0c-3.5,1-4.6,2.5-5,3.6C242.6,80.3,242,81.1,241.1,80.5L241.1,80.5z"/> <path class="st15" d="M244.3,86.4c4.9,1.9,8.2-4.2,6.9-5.9"/> <path class="st16" d="M244.3,86.4c4.9,1.7,8.2-4.3,6.9-5.9"/> <path class="st17" d="M244.3,86.4c4.9,1.7,8.2-4.3,6.9-5.9"/> <path class="st18" d="M244.4,86.4c4.8,1.6,8.1-4.3,6.8-5.9"/> <path class="st19" d="M244.4,86.4c4.8,1.6,8.1-4.3,6.8-6.1"/> <path class="st20" d="M244.4,86.5c4.8,1.3,8.1-4.5,6.8-6.2"/> <path class="st14" d="M178.4,97.2c-1.2,0.6-1.9,2.5-0.6,2.5c1.3,0.1,2.7,0,3.6,1.7c1,1.9,3,4.5,6.2,4.5c3,0.1,1.3-0.1,2.5-0.6 c4.2-1.4,4.5-3.6,5-3.5c0.7,0,2.6-0.4,0.7-2.5c-1.2-1.2-0.3-2.5-2.2-3.8c-1.7-1.3-2-1.9-3-1.6c-0.9,0.1-0.9-1-2.2-1 c-1.2,0-2.3-0.7-2.9-0.3c-0.6,0.3-2-0.3-2.6,0.4c-0.6,0.6-1.4,1.2-2.3,1.4C179.7,94.9,178.4,96.2,178.4,97.2L178.4,97.2z"/> <path class="st15" d="M192.5,99.4c-2.6,4.6-9.1,2.3-9.2,0.1"/> <path class="st16" d="M192.5,99.4c-2.6,4.6-9.1,2.3-9.2,0.1"/> <path class="st17" d="M192.4,99.5c-2.5,4.5-8.9,2.2-9.1,0"/> <path class="st18" d="M192.4,99.5c-2.5,4.3-8.9,2.2-9.1,0"/> <path class="st19" d="M192.4,99.5c-2.6,4.3-8.9,2.2-9.1,0"/> <path class="st20" d="M192.4,99.5c-2.6,4.3-8.9,2-9.1,0"/> <path class="st21" d="M183.1,96.9c0.1,0-0.4-1.2,0.4-1.9c1-0.7,2.6-0.7,2.6,0.4C186.2,96.6,184,97.4,183.1,96.9L183.1,96.9z"/> <path class="st21" d="M244.4,83.4c-1,0.6-1.6-0.6-1.2-1.6c0.7-1.6,2.2-2.3,2.6-1C246.3,82.1,245.6,82.7,244.4,83.4L244.4,83.4z"/> <path class="st22" d="M185.3,95.8c-1,0.1-1.3-0.6-0.4-1C186.3,94.3,186.7,95.3,185.3,95.8L185.3,95.8z"/> <path class="st22" d="M245.6,81.5c-0.9,0.7-1.4,0.1-0.9-0.6C245.6,79.8,246.5,80.5,245.6,81.5L245.6,81.5z"/> <path class="st1" d="M188.5,109.5c-0.4-0.3-4,1.4-2.5,1.2c1.7-0.3,1,1.3-1.3,1.4c-2.5,0.1-5.6-3.5-5.6-2.3c0,1.3,0.7,2.9-1.6,0.9 c-2.5-2.2-2.7-4.2-2.9-3.2c-0.1,0.9-1.4-0.7-1.2-2c0.1-1.3-0.7-2.7-1.3-1c-0.4,1.6,0.7,4.9,1.7,5c1,0.1-0.3,1.9,1,2.6 c2.5,1.3,4.2,0.3,3.9,1.2c-0.3,1,0.3,1.2,1.6,0.7c1-0.6,1.7,0.4,3.3-0.1c1.4-0.6,2,0.6,3.7-0.6c1.6-1.3,3.2-1,4.2-0.1 c1,0.7,0.7-1.2-0.4-1.6c-1.2-0.4,0.4-0.4,1.6-1.9c1.2-1.3,1.3-3.3,0-1.7C191.5,109.3,189.6,110.8,188.5,109.5L188.5,109.5z"/> <path class="st1" d="M189.6,117.9c-2.3,3.2,1.9,1.7,1.4,3.5c-0.3,1.7-2.3,3.3,0.7,4.9c1.4,0.7-2,2.2,0.4,3.9c1.6,1,1.3,3.3-0.1,2.7 c-1.3-0.4,0.3,1.9,1.4,3c1,1.3,4.2,4.6,1.7,3.9c-3.5-1,0.9,1.7,2.5,3.5c1.4,1.6,0.1,2-1.9,0.4c-2-1.4-2,0.9-3.6-1.2 c-1.4-2-2.2-1.9-3.6-4.8c-1.6-2.7-2.6-3.8-3.8-3.6s-4.3-1.4-2.7-1.6c2.7-0.1,1-1.4-0.4-3.2c-1.3-1.7-1.6-5.3-3-2.2 c-0.7,1.4-1.2-1.2-1.2-2.6c0-1.3-0.4-2.6-0.9-2c-0.6,0.7-0.7,0-0.7-2.2s0.7-2.6-0.3-4.3s-0.4-1.7,1.9-0.4c2.2,1.4,3.5,3.5,3.7,1.9 c0.3-1.4,3.3-0.4,4.9-0.6C189.2,116.8,191.2,115.4,189.6,117.9L189.6,117.9z"/> <path class="st1" d="M181.4,108.5c-2-1-3.2-2.3-2.9-1.2c0.1,1.2-1,1-2-1.2s-1.3-0.3-1.9-2.5c-0.7-2.3-1.7-4.2-0.3-3.6 c1.3,0.7,2.3,0.6,3,1.9c0.6,1.3,1.4-0.1,2.7,2.2c1.3,2.5,2.6,3,4.3,3.8C186.2,108.5,184.4,110.1,181.4,108.5L181.4,108.5z"/> <path class="st1" d="M254.8,92.3c0.3-2.2,1.7-2.9,2.4-3c0.7-0.1-0.1-3.2,0.6-3.6c0.7-0.3,1-0.6,0.6-1.9s0.7-2,0.4-3.9 c-0.1-1.9,0.9-0.1,1,1c0,1.3-0.3,1.7,0.9,2c1.2,0.4-0.1,0.9,0.4,2.3c0.4,1.4-1,1.6,0.1,2.5c1.2,1,2,1.3,0.9,1.6s-0.9,0.7-1,1.4 c-0.1,0.7-2.3,1-2.4,2.7c-0.3,1.4-0.7,1.7-0.9,0.3c-0.3-1.3-0.7-2.5-1.7-0.7c-1,1.6-2.3,1.7-2.3,1.7S254.5,93.6,254.8,92.3 L254.8,92.3z"/> <path class="st1" d="M254.4,92.5c-1.7,1.6-6.9,3.2-6.1,2.5c0.9-0.6-0.3-0.9-1.3-0.6c-0.9,0.3-1.7,0.7-1.9,0.1 c-0.1-0.6-0.9-0.7-1.7-0.4c-0.9,0.1-2.2-0.4-2.6-1.2c-0.4-1-1-0.1-0.1,1.2c1,1.2,1.3,2.5,2.5,2.2c1.2-0.1,1.3,0.7,2.3,0.7 c1-0.1,2.6,0.6,2.6,0.6s-0.1-1,2.3-1.2c2.4-0.1,3-1.2,3-1.2S254.5,93.5,254.4,92.5L254.4,92.5z"/> <path class="st1" d="M177.7,96.1c0.1-1.4,0.7-2.6,1.2-3.2c0.6-0.6-1,0.3,0-0.7s1.7-1.6,3.9-1.4c2.5,0,1.2-1.2,3-0.4 c2,0.7,3.8,2.3,3.9,2.7c0.1,0.3-0.9-0.7-2.5-0.9c-1.7-0.3-4-0.6-4.8,0.3c-0.7,1-1.3,1.6-2.5,1.7C178.8,94.3,177.6,96.1,177.7,96.1 L177.7,96.1z"/> <path class="st1" d="M241.3,79.5c0.9-2.5,3.2-3.3,2-3.2c-1.3,0-0.1-1.2,1.7-1.7c1.7-0.7,5.3-1.9,4-1.2c-1.3,0.6-0.6,1,1,0.4 s3.5,1.3,3.5,1.3s-3-0.7-5.8,0c-2.6,0.7-4.3,2.2-5,3.3S241.3,79.5,241.3,79.5L241.3,79.5z"/> <path class="st1" d="M239.2,77c-0.6,1.2-1.9,3-0.6,2c1.3-1.2,1.9-1.4,1.4-0.4c-0.4,1.2-0.6,1.4-0.4,2c0.1,0.6,1.6-2.2,2.3-3.3 c0.7-1.3-0.6-0.3,0.1-1.4c0.7-1.2,2.9-1.9,4.9-2.5c2-0.4,3.6-0.7,3-0.4c-0.6,0.4,0,0.4,1.3,0.4c1.2-0.1,1-0.1-0.1-0.7 c-1.2-0.7-1.6-1.3-2.7-1c-1.2,0.3-3.3,1.3-5.2,1.7C241.3,73.7,240.1,75.7,239.2,77L239.2,77z"/> <path class="st1" d="M180.4,90.6c0.4-0.7,2.2-1.2,2.2-1.6c-0.1-0.4,0-0.4,1.7-0.3c1.6,0.3,3-1,3.9,0.1c1,1.2,3.9,2.5,3.5,3.3 c-0.3,0.9,0.6,1.6,0.6,1.6s-1.3-0.3-2.3-1.6c-0.9-1.2-4.3-2.9-5.3-2.5C182.6,90.7,182.1,89.4,180.4,90.6L180.4,90.6z"/> <path class="st23" d="M227.6,146c-0.9,0.9-2.6,2.7-3.2,1.9c-0.9-1.3,2-2.5,3.2-2.9C228.9,144.5,228.7,145.1,227.6,146L227.6,146z"/> <path class="st13" d="M134,62.7c-1.4,1.3,3,0.3,2.3,1.7c-0.7,1.6,1.6,0.3,0.1,2.2c-1.6,1.9-1.3,2.7,0.6,1.7c1.7-1-0.1,1,1.4,0.9 c1.6-0.1-0.3,1,1,1.2s0.6,1.2,0,1.9s1,0,1.3,1.2c0.3,1.2,1.4-0.1,1,1.6c-0.6,1.9,0.4,2.6,0.4,4.8c0,1.9,0.1,1.4,1,0.9 c0.7-0.6,0-1.4,1.2-2.3s0.1-1.4,0.7-2c0.6-0.4,0.3-2.2-0.9-1.6c-1,0.7-1.4,0,0-1.7c1.4-1.6,2.3-2.7,1.6-3c-1.3-0.6,2-1.2,1.3-2 c-0.9-0.7,1-0.7,0.7-2.2c-0.4-1.3,1.2-1.7,0.3-2.7c-0.9-1.2-3.2-3.5-3.3-2.3c0,1.3-0.4,0.6-1.7,0.4c-1.4-0.1-2.7-0.7-2.9,0.3 c0,1.2-1.3,0-3.3,0.1C134.5,61.7,134.3,62.3,134,62.7L134,62.7z"/> <path class="st13" d="M265.2,14.1c1.3-0.1,2.6-1,3.3-2.2c0.7-1.2,2.6-2.2,2.7-1s1.3,1.9,1.3,1.9s1.3-2.2,1.7-1.2 c0.6,0.9,3.6-1.6,4.3,0.3c0.6,1.9,0.1,3.3-0.9,3.8c-0.9,0.6,1,0.1,0.9,2c-0.3,1.7,0,3.2-1,3c-0.9-0.3-1.4,1.4-0.4,1.6 c1,0-2,1.6-1.2,2.9c0.7,1.3-0.1,3-0.7,4s0.3,1.6,0.3,1.6c-0.1,0-1.9-0.9-1.9-2.3c0-1.7-1.4-1.4-0.7-3s-0.1-1.2-1,0 c-1,1.2-1.7,0.1-1.7,0.1s0.9-1.4,0.6-2s-1.6,0.3-2.7,0.1c-1.2,0,1.3-1.2,1.7-2.2c0.4-1.2-0.9,0-3.6,0.7c-2.7,0.6-1.6-1.2-0.7-2.3 s-0.4-0.9-2,0.4c-1.4,1.3-0.3,0-1-1.2c-0.6-1-2.9-2.9-1.3-3C262.7,16.2,265,15.3,265.2,14.1L265.2,14.1z"/> <path class="st4" d="M209.5,160c0,0-3.6-2.4-4.9-4.5c-1.4-2-5.8-5.9-5.6-3.2c0.1,2.6-3-5.2-3.3-0.4c-0.1,2-4.8-6.5-4.5-0.9 c0.4,5.5-1.9-2.3-1.2,1.7s-0.4,3.3-1.6,0.7c-1.2-2.7-1.9-5.6-2.9-3c-1,2.5,0.1-3.6-1.3-1c-1.6,2.5,1.7-5.8-0.6-5.9s2-4.2-2.7-5.9 c-4.9-1.7-4.8-2.9-5.9-6.5c-1.2-3.8-2.3-5.9-2.5-3.9c-0.3,2-2-3.3-1.6-5.1c0.6-1.7-2,2.7-1.4-0.3c0.4-3.2-1.9-2.3-1.6-3.6 c0.4-1.3,0.7-4.6-0.6-4.5c-1.4,0.1-1.9,0.3-1-1.6c0.9-1.9,0.3-4.2-0.7-1.4c-1,2.6-1.9-2.7-1.9-2.7s-1.6,1.9-1.2-1.9 c0.3-3.7-0.4-4.3-0.9-3s-1.3,6.1-0.1,7.1c1.2,1,1.7,4.3,1.3,5.9c-0.3,1.4-0.3,4.2,0.3,6.2c0.4,2,1.4-4.5,1.3,0 c-0.1,4.6,0.9,5.9,0.9,5.9s1-5,1.2-2.7c0.1,2.5,2.5,3,1.2,5s0.9,0.4,1.9,3c1,2.7,3.6,6.8,3.5,4.8s0.7-2.2,1.3-0.3 c0.4,1.7,2.6,1.7,2.6,0.9c0-0.7,0.9-1.9,1.9,0.9c1,2.9,2.7-0.3,2.6,2.7s0,5.8,0.7,8.5c0.9,2.6,2.3,0.4,2.5,3.5s2,2.6,2,2.6 s0-4.8,1.3-0.1c1.3,4.8,4.2,3.2,3.6,1.9c-0.7-1.3,0.4-3.9,1.2-2.2c0.6,1.7,2.3,1.7,4.2,1.7s5.1,1.2,5.6,3.3c0.7,2.2,5.8,3,7.1,4.3 c1.4,1.4,1.9,4.5,3.6,5.5s0.1-0.6-0.1-2.6c-0.4-2,1.9,2.6,5.2,1.6c-2.9-1.9-4.3-4-4.9-5.8c-0.4-1.7-1.3-1.2-0.9,0.6 C211,163,210.7,162,209.5,160L209.5,160z"/> <path class="st4" d="M175.8,341.7c-2,3.2-5.3,8.1-3.9,7.2c1.6-0.9,5.5-4.9,5.5-4.9s-3.6,6.9-5.5,9.1c-1.9,2.3,5.2-3.3,6.3-5.9 c1.2-2.4-0.6,3.5-2.6,6.2c-2,2.9-6.9,9.8-5,8.5c1.7-1.4,4.6-4.5,5.9-6.3c1.2-2.2-1.4,3.8,2.3,0c3.5-3.9,7.4-9.5,3.9-2.4 c-3.5,7.1-1.7,6.2,0,3.5c1.4-2.3-0.1,3.5,2.2-1c2.5-4.6,6.6-10.2,5.8-7.6c-0.9,2.7,0.1,2.7,1.6-0.7c1.6-3.3,3.5-3.8,2.7-2.2 c-0.6,1.7,1,0.7,2-2.6c1-3.5,3.2-6.6,3.6-10.1c0.3-3.6,1.3-1.6,1.9-4.9c0.7-3.3,2.5-2.2,1.4,1c-1,3.2,1.2,0,1.9-3 c0.6-3,1.2-0.1,1.2-0.1s0.7-2.7,0.1-5.3c-0.6-2.5,0.1-14.1,1-10.7c0.9,3.3,1.2,1.7,1.2-1.2c0-2.9-3.9-4.9-3.5-7.6 c0.3-2.6-0.6-1.6-1.3,1.6c-1,3.2-2.9,7.6-2.4,3.3s-0.3-3.3-1-0.4c-0.7,2.9-1.7,6.2-3,7.4c-1.3,1.2,0.9-5.6-1.6-1 c-2.3,4.5,0-3.8-1.7-0.1c-1.9,3.5-2.4,3.6-2.3,0.3c0.3-3.3-0.4-4.2-2.2-0.1c-1.6,4-7.9,11.5-8.9,14.7c-1.2,3.3,0.3,1.4,2.6-1.2 c2.3-2.5,0.3,1.4-2.6,5.1C175.2,337.4,185.5,326.9,175.8,341.7L175.8,341.7z"/> <path class="st4" d="M168.6,296.9c2.7-3.2,7.9-5.9,9.7-8.5c1.9-2.5,3.3-2.2,1.6,0.6c-1.9,2.6,1.9-1,3.8-4.8 c1.9-3.6,0.3,3.5,4.5-2.3c4.2-5.8,3.5-6.5,3.5-6.5s-5.5,5.2-2.3,0c3.2-4.9,5.8-12.4,4-10.1c-6.6,9.5-0.9-2.3-0.9-2.3 s-6.5,9.4-10.4,13.3c-3.7,3.9-0.1-2.3-2.9,1c-2.9,3.5-4.5,6.6-2.3,5.2c2.2-1.3,1.2,0.4-2.2,3.5s-6.2,6.6-3.3,4.5 c2.7-2.2,0.4,0.6-2.2,3.9C166.7,297.7,165,300.9,168.6,296.9L168.6,296.9z"/> <path class="st4" d="M197.9,200.6c2.5-1.6,4.5-1.2,2.2,1.3c-2.3,2.3-5.5,8.5-2.9,6.2c2.7-2.3,0.6,2.6-1.2,4.3 c-1.6,1.6-1.4,1.9-4,3.9c-2.6,2.2-4,4-1.9,2.7c2.2-1.4,1,1.4-2.2,3.3c-3.2,1.9-5.9,2.6-6.9,4.8c-1.2,2.2,0.1,2.5-4.2,5.3 c-4.5,2.9-10,8.2-4.8,5.1c5.3-3.2,6.1-2.7,4.2-0.1c-1.7,2.6,2.6-0.3,4.2-3c1.3-2.7,2.2-2.6,4.8-4.5c2.7-2.2,4.5-3.6,5.8-5.8 c1.3-2.2,0,3,2,1.2c2-1.9-1.4,5,0.6,3.2c2-1.9,3.6-4.6,3.3-1.9c-0.6,5.5-3.8,9.5-2.2,8.7c1.4-0.9,5.3-7.1,8.1-11.1 c2.6-4,3.3-8.1,1.3-4.8c-2,3.5-2.3,1.3-1-1.3c1.4-2.6,3.2-3.8,2.3-5.6c-0.7-1.9,3.5-7.5,1.4-5.9c-2,1.7-2.2,0.4-1.6-1.7 c0.7-2.3-1-3.9,0.6-7.2c1.4-3.2,2.6-0.7,5.2-3.5c2.5-2.7,6.8-4.8,5-2.2c-1.7,2.5-1,4.5,0.6,1.2c1.7-3.3,3.6-0.9,5.5-2.7 c1.9-1.7,6.1-7.2,4.6-6.2c-1.3,1-6.1,2.7-4.9,1c0.9-1.7-1.2-0.1-2.7,1.3c-1.7,1.6-5.5,3.9-4.9,2c0.6-2.2-1-1.4-3.5,1.3 c-2.6,2.6-6.2,5.3-6.2,3.3s0.6-1.4-1.6,0.1c-2.2,1.7-5.2,1.4-2.3-1.6c2.7-3,1.9-4.8-1.3-2.5c-3.2,2.5-4.5,1.3-4.5,1.3 s5.5-4.2,0.1-2c-5.3,1.9-2.9-2-4.3-1.6c-1.6,0.3,1.7-3.2-0.1-3c-2,0.1-3.2,1.6-4.5,4c-1.2,2.5-1.6,3.9,0.3,2.5 c2.2-1.3,4.3,0.1,2.9,1.4c2.5-1.4,4.9-0.7,2.9,0.9c-2,1.4-2,3.2,0.9,1.7c2.9-1.3,3.8,0.7,2.6,1.9c-1.2,1.2-1.4,1.2,0.4,0.6 C197.8,196.2,200.9,196.5,197.9,200.6L197.9,200.6z"/> <path class="st13" d="M239.1,339.4c-1.9,3.6-4.2,5.2-6.3,6.1c-2,1-4.3,1.9-5.8,3.9c-1.3,1.9-1.9,3-2.3,2s-1,0.1-1.4,0.7 c-0.3,0.6-1.6,3.6-1.7,4.2c-0.1,0.4-0.6,1.3-0.6,1.3c-0.7-2.7-3-4.9-1.9-4.9s0.3-0.9-0.9-3c-1.2-2.2-2.7-5.2-0.9-3.9 c1.9,1.3-1.6-2.7-0.9-6.1c0.9-3.3-4.3-11.7-1-9.7c2.5,1.6,1.9-1.4,1.2-4.6c-0.6-3.2-0.7-10.2,0.9-9.1c1.7,1.2,0.6-2.3-1.7-3.8 c-2.5-1.3-1.6-11.1,0.1-7.1c1.6,4,0.4-2.3,0.1-5.9c-0.3-3.5,0.3-4.5,1.2-2.5c0.3-3-1.2-10.2,1.2-8.2s0.1-1.3,0.1-4.3 c0-3.2,0.4-7.8,2-5.8c1.7,2,0.1-2,1.4-5c1.2-3,0-4.8,1.7-4.8c1.9,0,1.2-1.6,1.9-3.5c0.9-1.9-0.3,4.5,0.9,2.6 c1.2-1.7-0.3,1.4,0.4,3.8c1,2.3,3.2,6.2,2,6.3c-1.3,0.1,0.3,5.8,0.3,5.8s-2.5-2.7-2.5-0.3c0,2.3,0,8.1-1,6.4 c-0.9-1.7-1.3-0.6-1.2,2.2c0.3,2.7-0.1,10.2-0.9,8.1c-0.6-2.2-1.4-2-1.4,1.6c0,3.5,1.3,4.3,0.4,7.4c-0.4,1.9-2-3.5-2,1.7 c0,4.9,1.2,2.7,1.3,6.1c0.1,3.2-0.7,5.8-0.7,5.8s2-2,2.3-4.5c0.4-2.6,0.9,1.9,0.4,3.8c-0.6,1.7,2-1,2.2-3.9c0.1-2.9,2,0.6,2.5-2.7 c0.6-3.3,3.5-1.3,5.8-4.9c1.7-2.6,6.1-5.2,4-1.9c3.6-2,5.3-1.6,6.3-4.6s4-5,3.6-3.6c-0.6,1.6-1,2.6-1,2.6s3-1.4,3.5-4.9 c0.6-3.6,1.7-5.5,1.7-3.2c0,4.6,3.3-9.1,3.2-6.1s0.1-8.8-1.2-6.1c-1.3,2.6-1,5.6-1,5.6s-2.4-5.3,0-8.7c2.3-3.3,4.3-3.3,5-5.8 c0.7-2.3,1,5,3.3-1c2.3-6.1,4-5.3,4-5.3s-3.6,6.4-3.3,11.4s-1.4-5.3-2.5,6.1c-0.9,11.4-2.6,11.8-2.6,11.8s-1-6.3-2.3,1 c-1.4,7.4,2.6,2.7,0.6,7.1s-3-5.8-4,2c-1,7.6,1,8.1-0.3,10.8c-1.4,2.6-1,5.9-2.7,7.9c-1.7,2.2-0.3,1-0.1,2.6c0.1,1.4,1,3.2,0.7,4.3 c-0.1,1,1.2-0.3,1.2-0.3s0.1,0.9-0.6,3c-0.6,2-1.6,3.9-1.4,1.7c0.1-2.3,0.3-3.3-0.6-2.6c-0.4,0.4-1.2,3.2-1.3,2.2 c-0.1-1.2-0.1-1.7-0.7-1c-0.6,0.6-1.4,3.5-1.7,3.5c-0.4,0.1-0.7-3.6-1.7-4C241.3,334.8,240.1,337.4,239.1,339.4L239.1,339.4z"/> <path class="st1" d="M118.4,342c-3.5-0.6-8.8-2.6-10-1c-1,1.7-3.5-0.3-4.3,1.9c-0.9,2.2-5.6,2.7-8.5,5.6c-2.9,2.9,1,3.6-1.9,3.6 s0.9,0.9-2.5,1.9c-3.2,1-12.7,10.4-12.8,13.4s-3.8,2-4.8,7.8s-1.2-1.3-0.1-4.2s2.7-3.8,0.4-3c-2.2,0.7,3.5-4,0.9-4.2 c-2.5-0.3,5.6-1.7,2.9-3c-2.6-1.4,3.6-1.4,0-1.9s0.3-0.4,3.3-2.7c3-2.2,5.9-4.8,2.7-4.6c-3.2,0.1,0.9-1.6,3.2-2.5 c2.5-0.7-2.7-0.7,1-2c3.8-1.2,2.9-2.3,0.6-2.2c-2.5,0.1-0.9-0.1,2.6-1.7c3.6-1.4,2.9-1.3-0.9-1.9c-3.6-0.7-3,2.2-6.2-1.2 c-3.2-3.2-4.2-0.3-8.2-3.2c-4-2.7-4.6-3.5-0.1-3c4.5,0.6,0.6-0.4-2.2-1.6s0.6-4.9,0.1-6.9c-0.6-2-1.2,5.9-2.2,0.3 c-1-5.5-2.9,3.2-3-3.2c-0.1-6.4-3.9,2.2-2.6-4.2c1.4-6.3,1-4.2-0.9-8.2c-2.2-4-0.3,2.6-0.6-2.9c-0.3-5.6-2.5,2.6-2.2-1.7 s-0.7-4.3-2.5-0.9c-1.6,3.6-3-5.5-1.6-9.2c1.3-3.6-0.6-3.5-1.7-1.7c-1.2,1.6-1.3-2.7,0.7-4.5c2-1.6-2.6-0.9,0.9-3.3 c3.3-2.6-2.7-3.5-1.3-3.5c1.6,0,1.4-0.7-0.1-2.5c-1.4-1.7-1-2.5-0.6-7.1c0.3-4.6-1.6-2-1.2-5.3c0.3-3.5-0.7-6.5-0.7-6.5 s3,2.7,3.9,5.8c0.7,3-0.4-4.3,1.9,0.7c2.5,5.1,1.2,6.5,7.4,10c6.2,3.3-2.7,1.4,5.2,5.8c7.9,4.5,1,2.9,4.9,5.8 c3.9,2.9-5.9-2.2-1.7,2.7c4.2,4.8,8.5,11.4,12.3,11.5c3.8,0.1,3.8,5.2,8.7,6.1c4.8,0.9,6.2-0.1,9.4-0.4c3.2-0.4-2.6-0.9,0.1-1.7 c2.7-0.9-2-5,0-3.8c2,1.4,5.3-1,2.9-2.2s4.3-1.4,3.6-3.2c-0.9-1.7-4.3-4.3-2.3-8.4c2-4.2,2-6.8,0.4-4.3c-1.7,2.6,0.7-2.7-1.6-1.4 s1.9-1.2,3-4.6c1.2-3.3-2.3-1.4-0.3-4.6s-2.3,0.4,0.1-4.2c2.5-4.8-2.9-0.9,0.7-5c3.5-4.3,2.2-5,0.1-2.6c-2,2.6-0.6-3,4.5-7.1 c5-4,6.1-4,7.4-7.8c1.4-3.6-1.7,5,0.6,1.6c2.3-3.3,2,0.4,0.3,3.8c-1.6,3.3-3.3,8.5-1.6,6.4c1.6-2.2,2.9-1,0,2s-1.6,2.6,1,0.9 c2.5-1.7,4.3-1.4,1,2.6c-3.3,4.2-7.9,6.3-4.9,5.5c3-0.9,4.5-1,2,1.2c-2.6,2.2-1.4,2.6,0.1,1.3c1.4-1.2,2.9,0.7,0.3,2.2 c-2.5,1.6-2.7,3.5-0.4,2.5s2.9,0,0.3,1.6c-2.5,1.7-1.2,3,1.3,0.9c2.6-2.2,1.4,2.5-1.2,4.6c-2.5,2.2-6.1,3.9-3.9,4 c1.9,0.1,4.5-0.1,5.3-1.3c0.9-1.3,0.9,2.7-2,4.3c-2.9,1.4-3,3.3-0.6,2.3c2.6-1,3.6-1.6,3.6-2s0.1,2.6-2.6,3.9 c-2.6,1.3-2.6,2.2-0.6,2c1.9-0.1,3.3-1.2,3.3-1.2s-1.4,2.6-3.5,4.2c-2.3,1.4-0.4,1.9,2.3,2c2.6,0.1,4.2,1,1.7,1.3 c-2.6,0.4-4.3,2.2-1.6,2.9c2.6,0.7-2.3,1.7,0.3,2.5c2.7,1-1.3,4.8,1.9,8.1c3.2,3.2,3.3,4.8,1.3,3.8c-1.9-1-3.2,0.1-0.6,2 c2.5,1.9,4,3.6,0.9,2.3c-3.3-1.2-1.7,0.7,0.1,1.4s2.5,1.4,1,2.9c-1.6,1.3,1.2,6.1-2.5,2.6c-3.5-3.3,2.7,6.8,5.6,7.1 s-0.1,3.7,3.8,3.6c3.8-0.1-3.8,3.3,1.2,2.6c4.9-0.6-3.3,2.2,1.4,4.6s4.8,6.5,1.7,4.6c-3-2.2,0.9,3.6,3.2,5c2.3,1.6-1.4,2.7,2.3,5.3 c3.9,2.5-2.3,3.9,0.7,6.8c3,2.7,0.7,3.9,0.7,3.9s-1.6-2.2-4.6-3.2s1.2-8.9-4-8.1s-4,8.7-7.5,11c-3.6,2.3-9.4-0.1-7.4-0.3 c2.3-0.1,0.4-3,2.3-3c1.9,0-0.9-3.5,0.3-4c1.2-0.7,1.7-2.2-1.9-2.9c-3.5-0.7-7.1-0.1-6.3-1.2s-3.2-4.8-0.1-3.6c3,1.3,3.9,2.6,6.1,2 c2.2-0.4,3.5-0.3,5,0c1.4,0.3-4.6-4-1.6-3.2c3,0.9-1.2-2.2-0.3-2.3c0.9-0.3,0.1-1.6-2-1.9c-2.2-0.3,6.3-0.4-2-2.4 c-8.4-1.7-3.3-3.5-1.7-3.6c1.7-0.1-2.6-0.6-1.2-2.2c1.6-1.7,2.9-3.2-0.9-3.5C116.8,344,112.9,341.5,118.4,342L118.4,342z"/> <path class="st1" d="M124.1,128.5c-3.3,0.3-7.4,5.5-9.8,8.8c-2.3,3.3,2-0.7,4,0s-2.3,3.3-5,8.4c-2.6,5-1.3,4-0.3,4s2.7,1.7-0.7,5.8 c-3.3,4-2.3,9.4,0.4,5.3c4.9-7.4-4,10.8,1.6,6.8s-3.6,11.1,0.3,6.3c4.2-4.8-3.3,14.6,1.2,8.8c4.3-5.8,0.3,4.3,0,6.3 c-0.4,2,3.6-3.5,3.6,1.3c0,8.2,7.6-14,7.1-3.3c-0.4,9.4,1,17.2,2.7,7.8s0.3,17.5,3.3,8.4s3.5-1.3,3.5,4.8s5,14.3,4.3,5.6 s2.7-3,3.8-0.3c0.9,2.6-1.7,9.2-2.5,13.3c-0.6,4,4-3.3,1.4,3.8c-2.7,7.1-3.5,13.1-0.7,7.4c2.6-5.6-3.5,13.9,0,8.8 c3.3-5.1-1.3,12.4,1.3,8.7c2.7-3.6,3.8-9.4,4.3-5.9c0.7,3.3-2.3,5.9-1.9,10.4c0.3,4.3,1.9-1.7,4.6-5.3c2.7-3.8,1.3,3.3,2.5,6.1 c1,2.6,1.3-5.8,2.3-9.5c1-3.6,2.3-1,2.3,1.7c0,2.6,2.5,1,3-5c0.7-6.1,5.8-17.2,2.5-12.1c-3.5,5,4.9-14.1,8.1-16.4 c3-2.4,1.9-7.4-1.4-3.6c-3.3,3.6-4,5.9-4,5.9s-0.3-8.7,2-12.7c2.4-4-0.6-4.3-3.6-1s-3.5,1.4-1-5c2.3-6.3,1-6.9-1.7-3.9 c-2.7,2.9-4.3,3.9-3.5-2.5c1-6.3-0.6-8.1,2.5-12.1s0-4.8-3.3,0c-3.5,4.8-4.5,4-3.8-0.7c0.7-4.6,3.3-9.4,3.3-9.4s-6.1,3.3-7.1,7.1 s-2.3,0.7-1.3-4.8c1-5.3,0-6.1-1.3-2.3c-1.4,3.8-3,5.3-2.5-1c0.7-6.3,0.7-9.4-1.6-5.3c-2.5,4-2.7,7.1-2.7,7.1s-0.7-6.8,0.7-10.8 c1.3-4,0-7.1-2.5-2.6c-2.3,4.3-3.3,4-3-1.2c0.4-4.9,2.7-8.9,1.4-8.7c-1.4,0.3-3,4.3-3,4.3s-1.4-3.3,0-7.1c1.3-3.6,0.3-7.1-1.7-4.3 s-3,7.6-3,7.6s-1.4-7.8,0-11.4c1.3-3.3,2-8.4-1-4.3s-3.5,7.1-3.5,7.1s-1.3-8.4,1.4-11.4C128.5,129.2,127.5,128.2,124.1,128.5 L124.1,128.5z"/> <path class="st1" d="M78,179.3c-4,4.8-8.1,17.9-8.1,22.6c0,4.6,5.8-6.6,2.5,5.6c-2.5,8.8-2,11-1.4,13.7c0.7,2.7,5.5-12.7,4.2,0 c-1.4,12.8,0.6,17.5,2.6,9.4s3.3-0.6,1.3,8.1c-2,8.8,2.7,16.2,3.5,6.8c0.6-9.4,3,1,3.3,5.3c0.3,4.3,3.8,8.8,3.8,8.8 s-1-11.8,1.6-11.8c2.7,0,0,8.1,2,11.5c2,3.3,2.5-4.8,4,2.9c1.7,7.8,3.5,8.5,3.5,8.5s-1.4-10.1-0.4-13.1s2,5.8,3.8,7.1 s-0.3-11.4,1.3-14.1c1.7-2.7,4.3,10,5.5,0.6c0.6-5.6-3.8-10.1-3.5-14c0.3-4-3.3-7.1-3.6-1c-0.4,6.1-1.4,8.4-1.4,8.4 s-3.3-8.8-1.3-16.6c2-7.6-2-6.6-3.3-2.3c-1.4,4.5-1.4,8.5-1.4,8.5s-2.3-7.8-2-11.8c0.4-4-1.9-4.3-2.6-1.4c-0.7,3.2-2.7-3.9-1.4-7.2 c1.4-3.3-3.6,3.3-2.6-2.3s-4.9,0.6-4.5-5.6c1-12.6-4.2,1.6-2-13.6c1.7-10.8-3-4-4.3,1.7C75.7,187.4,77,183.3,78,179.3L78,179.3z"/> <path class="st1" d="M26.9,257.9c-2.7,0-7.1,3.8-8.1,7.1s3.6-2,1,5.5c-2.7,7.4-4,12-1.7,17.5c1.2,2.4-0.1-4,2-6.8 c3.8-4.6-0.3,6.1,1,12.1c1.7-4.3,3.5-4.8,2.7,2.3c-0.7,7.1,2.6-1.3,3,10.8c0.3,12.1,3,9.1,3,9.1s0.3-13.1,2.3-1s3.3,1,4.3,11.1 c1.2,10.1,4.8,2.5,4.5,10.1c-0.3,7.8,3,11.4,3,11.4s-0.4-8.1,1.3-9.4s0.3,2.6,3,6.8c2.7,4,0.7-9.1,3,0.3s5.3,9.8,5.3,9.8 s-2.3-11.8,0-6.8c2.5,5,5.5,5.6,7.1,7.1c1.7,1.3-2.3-3-3-7.8c-0.6-4.6,1.7-4.6,3.5-2.3c1.6,2.3,1.6-1-3.5-5.8 c-5-4.6-6.3-7.4-5.9-11.7c0.3-4.5-2.7-0.4-2.5,4c-1.7-6.8-1.7-18.9-3.3-15.6c-1.7,3.5-2,7.1-2,7.1s-2-7.4-1-12.4s-2-1-2.5,2.3 c-0.3,3.5-1.6-8.1-0.3-10.4c1.4-2.3,0.7-5.3-1-2.3c-1.6,3-3-1.7-1-7.1s1.3-6.8-1-4.5c-2.3,2.5-3.3,5.2-3.3,5.2s0-7.2,2-10.1 c2-3,7.1-8.8,3-7.1c-4,1.6-5.5,3.6-5.5,3.6s2.7-6.6,4.8-8.1c2-1.3,2.3-4-1.3-2c1-4.3,1.3-6.1,2.6-7.4c1.4-1.4-3-0.4-4.9,3 c0.6-5.3,1.9-8.1,3.3-9.1c1.3-1-5,1.6-6.3,3.8c-1.4,1.9-0.7-3.5,1.6-5.8s-5,1-6.3,5C30.2,256.6,34,250.3,26.9,257.9L26.9,257.9z"/> <path class="st4" d="M6.1,288.9c0.9-3.6,2.5-11.1,3.3-12.4c0.9-1.6,0.6,3.6-0.3,4.9c-0.7,1.3,0.6,3.3-0.6,4.5c-1,1.3-2,4.8-0.6,3.2 c1.3-1.6,2-2,1.6,1.3c-0.3,3.3,0.6,5.8,1,6.1c0.4,0.1,0.9-4.6,0.9,0.3c-0.1,4.9,1.4,2.7,1.2,5.2s3,4.3,4.5,5.6 c1.4,1.2,2.6,1.2,1.7,3c-0.7,1.7-0.4,4-0.4,4s1-3.2,1,0.4c0,3.5-0.7,5.8,0.9,7.4c1.4,1.7-0.1,3-1.2,4.5c-0.7,1.2-0.3,3.3,0.1,3.7 c0.9,0.6,2.5-4.8,3.5-1.4s-0.3,7.1,1.7,8.2c2,1-0.3-2.2,1.7-0.6c2.2,1.7,0.3,5.9,1.7,7.2c1.4,1.4,3.6,3.5,3.2,5.9 c-0.4,2.4,4.5,9.8,5,6.5c0.7-3.3,1.9-3.6,2.5,0.1s0.3,11.4,1.2,10.1c1-1.4,1.2-4.5,2.2-0.6c0.9,3.8,7.6,6.4,7.6,4.2 c-0.1-2,1-1.9,2.2,1.2c1,3-0.1,6.2,1.6,6.9c1.9,0.6-0.9-4.8,2.6-0.3c4.5,5.6,2.7,12.1,4.9,12.7c2,0.4,1.3-0.7,1.6-2.6 c0.3-1.9,1.7,1.6,1.9,4.8c0,3.2,0.9,3.9,0.9,3.9s1.2-2.4,1-0.1c0,2.5,1.3,0,1.3,2.9c0,1.7,1.4,1.6,1.3,2.7c0,1.2-1.2,3-0.3,4.8 c0.9,1.6,0.9,3.8,1.7,3.3c1-0.3,2.3-2.9,2.2-1.6c0,1.3,0.7,1.4,0.7,1.4s-0.7,0-1,0.7c-0.4,1.2-1.7-0.7-2.3,1.4 c-1.3-2.6-4.2-4.8-4.6-6.9c-0.4-2.3-1-1.2-1.3-0.9c-0.4,0.4-1-0.7-1.6-2.7c-0.6-1.9-2-2.5-3.9-4.6c-2-2.3-5.6-5.3-6.8-4.8 s-2.9-2.5-4.6-4.3c-1.7-1.9-16.3-16.9-19.5-22.4c-3.3-5.3-15.3-23.4-16.3-28.9c-1.2-5.6-1.3-8.5-2-9.5c-0.6-0.9,0.4-12.3-1.7-17.7 C5.3,304.2,3.8,297.9,6.1,288.9L6.1,288.9z"/> <path class="st4" d="M6.1,288.5c-1,3.6-5.3,10.4-5.3,12.8c2.3-1.9,3.5-1.3,2.3,4.3c2-1.2,3.3,2.6,4.3,9.8c0.7,6.1-0.9,9.8-0.3,13.8 c1.3-1.2,1.9-0.7,1.3,1.3c-0.9,3.3,1.6,3,1.7,6.8c0.1,2.3,0.1,7.4,2.9,12.3c1.2,2.2,2.7,3.8,5.5,10.8c0.3,1.2,1.2,3.5,1.7,2.2 c0.4-1.2,1.3-0.1,1.7,1.7c0.3,0.7,0.6,1.7,0.6,1.7s0.3-0.9,0.9-0.1s2.9,4,3.5,6.6c0.7,2.5,0.9,3.3,1.2,3.3c0,0,0.1-2,0.7-2 c0.7,0.1,1,2.6,2,4.2c1,1.4,5,7.2,5.9,6.2c1-1.3,3.5,3.9,4,1.7c0.4-2,2.5,0.3,4.3,2.2c1.9,2,4.6,4.5,6.3,8.4 c0.1,0.6-0.1-2.6,1.3-2.6c1-0.1,2.9,0.7,5.9,4.9c1,1.3,1.4,2.6,2.2,2.6c0.7-0.1,1,0.4,1.4,1.9c0.4,1.6,1,2.2,1.6,1.3 c0.6-0.7-1-0.4-1.2-4c-0.1-3.5-5.2-1.6-6.3-9.2c-0.3-2.3-1.2-2.3-1.2-0.4c0,1.9-2-0.3-2.9-2c-0.9-1.9-1.3-1.3-1-0.1 c0.1,1.2-0.6,1.7-2.3-0.3c-1.7-2.2-6.1-7.4-7.6-14.1s-1.6-0.1-1.2,1.4c0.3,1.4-1,0.6-1.6-1.7c-0.4-2.3-0.3,1.7-1.7-0.7 c-1.6-2.3-4-7.1-5.2-6.9c-1.3,0.3-2.7-6.2-2.6-9.5c0.1-3.5-1.4,4.2-2.7,0.3c-1.2-3.9-2.3-7.1-2.5-4.5c-0.1,2.5-2.2-1.2-4.5-8.2 c-2-7.1-0.9,7.6-3.5-1.9c-0.6-1.9-0.6-5.5-1.3-6.5c-0.9-0.9-1.7,4.6-2.6-0.3c-0.9-4.9-0.1-7.4-1.3-8.4c-1.2-1-1-2.2-0.4-9.2 c0.4-7.1-1.2-4.5-1.9-9.5c-0.9-5.1-3.2-4-1.7-8.5c1.3-4.6-1.2-1.6-0.1-5.3C7.6,290.9,5.9,294.1,6.1,288.5L6.1,288.5z"/> <path class="st4" d="M325.5,355.1c-3.6-0.1-4,0.7-1.6,1.4c2.3,0.6,0.3,0.7-3.3,0.4c-3.5-0.3-4.5,1.6-6.3,2.7 c-1.9,1.2-1.2,1.3-3.6,1.2c-2.3-0.1-4.3,0.7-2.2,1.2c2.2,0.6-2.3,1.2-4.6,0.4c-2.5-0.9-2.7,0.7-1.4,1c1.4,0.4-1.6,0.9-3.3,0 c-1.7-0.7,0.7,2.2-2.7,1.4c-3.3-0.7-6.5-1.6-7.1-4c-0.4-2.5-2.6,0.3-2.2-4.2c0.6-4.6,1.2-1.6,1.6,0.1c0.3,1.7,1.2-0.1,2-0.9 c0.7-0.6-0.7,3,3.3,2.7s-0.1-2.7,0.1-4.6c0.3-1.7,1.7,2.4,3.9,1.7s3,2.3,4.8,1c1.6-1.3,1-2.7,0.3-3.9c-0.7-1.2,2,0.7,0.9-1.9 c-1.2-2.4,0.4-1,0.1-2.7c-0.3-1.9,1.3,0,2.6,2.3c1.2,2.3,1.3-0.7,2.6,1.3s3,1.4,1.2-0.6c-1.9-2.3-1.2-5-0.6-3.9 c0.6,1.2,1.6,2.6,2.3,3c0.9,0.6-0.6-3.3,0.6-2.5c1.2,0.9,1.6,3,2.9,3.2c1.4,0.1,1.3,1.6,2.5,0.9c1-0.7,2.5,0.6,3.5,0.3 c1-0.3,1-0.4,0.1-1.4c-0.7-0.9,1.9,0.9,3,1.4c1,0.6,1.2-0.6,1.7,0.4s2.5,0.9,3.9,0.9c2.7,0,3.2,1.3,4.3,1.3 c1.2,0.1-1.3,0.9-2.9,0.1c-1.4-0.6-1.6,0.6-3.5,0C326.3,354.7,326.6,355.3,325.5,355.1L325.5,355.1z"/> <path class="st4" d="M183.1,386.9c-1.6-2.7,1.9,0.1,3.2-0.7c2.3-1.4,5.9,1,5.3-1c-0.7-2-0.7-2.7,0.7-1.7c1.7,1,2.7,0.7,1.3-0.9 c-1.6-1.7-1.4-3-0.6-2.2c0.9,0.9,2,0.7,2.2,0.6c0.3,0-1.2-0.6-1.2-1.7c0-1.3,1.6,0.7,2.2-0.1c0.6-0.9-3.7-4.5-0.3-2.5 c1.2,0.7,2.2,0.4,2.7-0.1s1.4-0.9-0.4-1.7c-1.9-0.7-1.6-2.2-0.9-1.9c0.6,0.3,2.3,1.6,3.9,1s-0.1-1.2-1.3-1.6 c-1.2-0.6,2.7,0,2.2-1.2c-0.4-1.2,1.2-0.7,1.9,0.1c0.7,1,2,0,1.7,1.3c-0.4,1.2,3.5,0,3.2-2.2c-0.3-2.2-1.6-1.7-1.4-4 c0.1-2.2,2.3,3.9,1.7,0.1c-0.6-3.7-0.9-6.3-0.1-6.3c0.7,0.1,1,3.2,2.7,3.2c1.2,0-1.2-2.6-1-5.6c0.1-2.9,1.4,1.3,2.3,1 c1.2-0.1-1.7-9.2,0.9-6.2c2.7,3,0.7-1,1.4-3.9c0.6-2.7-0.1-4-0.7-5.2c-0.4-1.2,0.4,4.5-1.7,1.6c-1.9-2.7-1.6-5.3-0.9-3.8 c0.7,1.3,1.9,2.9,1.3,0.4c-0.6-2.4,0.4-2.7,1-1c0.7,1.7,1.7,2.5,1.3,1c-0.6-1.7-0.1-4.6,0.4-5.3c1.2,2.5-1,4.9,1.7,9.7 c-1.4-1-1.9-0.9-0.3,2.3c1.6,3.2,2.5,4.2,1.7,4.2s-1.2-0.6,0.6,2.6c0.6,1.2,1.2,2.7,1,5.2c0,1.9,0.4,3.2,1.4,4c1.2,1,2.2,3,0.9,2.6 c-1.3-0.3,1.7,0.3,1.9,3.3c0,1.2,0,1.7,0.1,1.9c0.3,0.4,1,1.7,2.5,3.9c1,1.7,1.7,1.4,2.3,1.4c0.7-0.1-0.3,1.6-3.2,0.7 c-2.9-0.9,0.3,2-3.9-0.1c-4-2-6.6-3.2-4.8-1.2c1.9,1.9,0.9,1.4-3.2,1c-4.2-0.3-4.6,0.9-2.9,1.6c1.7,0.9,1.3,1.3-0.7,1 c-2.2-0.4-0.1,1.4-3,1.4c-3,0.1-4.2-0.4-3,0.7c1.2,1-1.3,1.6-3,1.9c-1.7,0.1,0,1.6-2.7,1.7c-2.7,0-1.4,1.9-5,1.9s-4.5,0.3-3.6,1.3 c0.7,1.2,0.3,1-1.9,0.1C186.9,388.7,185.6,390.9,183.1,386.9L183.1,386.9z"/> <path class="st4" d="M154.1,401.9c2.3,1.7,1.2,5.9,5.3,8.2c3.6,1.9,4,1.2,5.3,3c0.4,0.7,1.4-1.6,3.6,1.9c2,3,1.7-0.3,3.2,1.9 s2,3.9,2,2.3s1.3-1,2.2,0.7c2.2,4.3,0.7-2.7,3.8,1.9c3.2,4.9,0.9-1.3,3.6,2.6c2.6,3.3,0.3,0,2.7,0.9c1.6,0.7,2.9,1.6,2.6,0.9 c-0.4-0.6-0.1-1,1.7-0.4c5.6,1.6,9.2,1,11.4,3.2c2.4,2.7,6.5,2.6,8.9,0.1c2.3-2.3,1.9-1.7,2.6-0.9c0.9,0.7,1,0.9,2.5,0.7 c3.2-0.6,0.4,1.7,5.2,0.7c4.8-1.2,12.6-1.9,12.3-5c0.6,0.4,1.3,3.2,2.3,1.7c1-1.3,5.2,0.1,5.5-1.7s2.7-0.7,4.9-2.7s2.7-2.5,2.4-3.5 c-0.1-1-0.3-2.2,1.7-2.7c2.2-0.6,3.5-2.6,2.7-7.1c-0.9-4.5-2.3-8.8-4-11.2c-0.3,1.2,0.6,3.6,1.4,5c0.7,1.3,3.3,9.5-0.6,12 c-0.4,0.3-2.7-1.7-2-2.4c0.7-0.9-1.2-1-0.6-2.2c0.4-1.2-1.9-1-1-2.3c1-1.2-3.2-1.3-2.2-2c1-0.6-0.7-0.6-1.9-1.2 c-1.2-0.7-2.6-1.2-0.7,0.6c1.7,1.9,2.6,1.4,2.6,2.7c0.1,1.3,0.3,1.7,0.7,2.3c0.6,0.6-0.9,2,0.3,3c1,1-0.6,2.2-0.3,3.8 c0.4,1.6-1.2,2-2.9,2.3c-1.7,0.1-3,0-3.9,1c-0.9,0.9-2.2,1.3-1.4-1c0.6-2.2-1.6-0.9-1.9-4.8c-0.3-3.9-4.6-5.2-3.2-5.2 c1.4-0.1-0.1-2.2-1.9-2.5c-1.7-0.4-3.3-1-3.6-2s-0.9-0.1-0.9,1.2s0.9,2.4,1.7,2.4c0.7,0.1-1.3,1.6,0.6,2.3c2,0.9,0.7,2.7,1.6,3.3 c0.9,0.6,1.3,1.3,1.3,2.3c0,0.9,1.3,3,0,2c-1.2-0.9-0.4,2.9-1.2,3.5c-2.5,1.9-6.6,2.6-8.2,0.7c-1.4-1.9-2.2,2.3-3.6-0.6 c-1.3-2.7-2.2-5.5-3.6-6.1c-1.6-0.4-2.7-2.5-2-3.5c0.7-0.9-2.6-0.9-3.2-3c-0.6-2-2,0.9-1.9,1.9c0.1,1.2-0.3,2.7,1.2,3.2 s0.3,2,1.2,2.9c0.7,0.9,0.7,4.2-0.6,5c-1.3,0.9-2.5,0.9-3.6-1.6c-1.4-2.5-1.6,4.6-3.5-0.3c-2-5-4.2-4-4.6-1.9 c-0.6,2.3-2.9,2.3-4.6-1c-1.7-3.5-3-3.9-3.2-1.3c0,2.6,1.6,3-2.2,1.2c-3.7-2-4.8-5-7.6-5.3c-3.2-0.4-6.3-1-7.4-3.2 c-1.2-2-0.3,2.3-2.5-0.1c-2.2-2.5-4.8-3.8-5.3-5.3c-0.7-1.7-0.6,5.3-2.3,1.6c-1.9-3.8-2.2,0.4-3.3-1c-1.2-1.6-4.3-3.3-4.3-5.8 c-0.1-2.5-3.5-5.2-7.1-5.9c0.3,0.7,4.5,2.7,6.1,6.6C153.3,400.4,153.7,401.4,154.1,401.9L154.1,401.9z"/> <path class="st13" d="M200,427.8c1.9,0.3,3.2,0.4,4.2,1s3.2,0.1,1.9-0.1c-1.3-0.1-0.6-0.4,1.2-1c1.7-0.4,3.2-3.7,3.2-2 s1.3-1.2,1.3-3.3c-0.1-2-0.3-4.6-1.2-5s-0.7-1-0.1-1.4c0.7-0.4-0.1-1.4-0.6-0.7s-2,0-1-0.3c1-0.4,1-1.4,0.3-1.1 c-0.7,0.3-0.4-0.9-1-1.2c-0.7-0.3-0.4-2.6,0-1.6c0.7,1.7,2.2,1.2,2.3,1.9c0.3,0.9,0.7,1,0.3,1.4c-0.4,0.3,1.6,0.3,1.6,1.4 s2.5,2.6,2.9,5.2c0.3,2.6,0.1,4,1.3,3.9s2,2.3,2.3,0.9s0.7-1.6,1.4-0.1c0.9,1.6,2.3,3,3.6,1.7c1.4-1.3-0.1,2,1.9,0.3 c2.2-1.9,1.9,1.2,4.2-1.6s2-2.7,1.6-3.9c-0.4-1-0.6-2.2,0.3-1.9s0.1-0.3-0.3-1.2c-0.4-0.9-0.9-2.3,0.1-2c1.2,0.3,0.6-0.9-0.1-1.2 c-0.7-0.4-0.9-2.2-0.1-1.9c0.7,0.4,0.6-0.7-0.4-1.2c-0.9-0.4-1.2-2.4-2.3-2.7c-1.3-0.4-1.7-1.9-0.9-2.2c0.7-0.1-1-1.4,0.1-0.9 c1,0.4,2.9,2.2,2.3,2.3c-0.6,0.3,2,2,2.7,4.3c0.7,2.2,1.7,4.9,2.4,5.5c0.4,0.6,0.9,1.6,0,1.6c-0.9-0.1-1,1,0.7,1.4 c1.7,0.6,3.2,2,1.7,2c-1.3,0,1.3,1.3,1.3,1.3c-1.4,0.1-3,0-3.6,0.7s-1.4,0.4-2.4-1.7c-0.1,1.3-0.6,2.5-4,3.3 c-7.1,1.6-10.5,2.6-11.4,1.4c-1.2-1.4-2.9,0.6-4.3-1.2c-1.2-1.3-1-0.7-1.6-0.1c-0.7,0.6-3.2,4-7.6,2.6 C201.7,429.9,202.5,428.8,200,427.8L200,427.8z"/> <path class="st13" d="M241.6,423.5c1.3-2,2.7-1.3,3-2.7c0.3-1-0.3-1.3,0.3-1.7c0.4-0.4-0.1-2.7,0.4-3c0.7-0.4,0.7-2.3,0.3-2.7 c-0.4-0.4-1.2-1.4-0.4-2.2c0.6-0.7,0.9-0.9,0.1-1.3c-0.7-0.1-0.9-1.4-1-2.3c0-0.9-0.6-1.3-0.6-1.3s2,0.7,1.6,1.4 c-0.6,1.3,1.2,1.4,0.9,2.2c-0.4,0.7,1,1.6,0.6,2.3c-0.3,0.7-0.3,1.7,0.7,2c0.9,0.3,1.3,0.7,1.2,1c-0.3,0.3,3.2-0.4,3.8-1.7 c-0.6,1.4-1.6,2-3,2.3c-1.2,0.3-1.3,1.6-1.2,2.3c0.3,0.7,0.1,1.2-0.9,2.3c-1.2,1-2.2,2.3-3.8,2.6S241.6,423.5,241.6,423.5 L241.6,423.5z"/> <path class="st4" d="M303.7,395.1c1,0.3,4.3-1.4,5.9-0.6c1.4,1-0.7-1.6,2.6-0.4c3.5,1.2,0.9-3.3,3.9-1.3c3.2,1.7,9.4,1,9.4-1.6 c0-2.6-1.9-5,0.3-4.8c2.2,0.4-1.7-3.6-0.9-3.3c1,0.3,1.2-0.9-0.6-1.4c-1.6-0.6-2.2-1.7-4.2-1.7s-1.9-4.6-0.4-3.8 c1.3,0.9,4.2-0.3,6.2,1.4s3.5,3,5.3,3.3c1.9,0.1,3.8,4.2,2.9,4.3c-1.2,0.1,2.3,1.7,1.2,3.3s2.7,2.6,3.2,1.6c0.6-1,4.5,1,4.5-0.7 c0.1-1.9,3.5-3.5,1.4-5.2c-2-1.6-0.1-3.6-2.6-4s1.7-1.6-1.9-2.3c-3.8-0.9,0.3-2.7-1.4-3.9c-1.7-1-1.2-2.7,3.5-1.4 c4.5,1.3,4.6,2.5,6.6,4.2c1.9,1.7,3.3,3.5,2.3,3c-1.2-0.4,1.6,0.7,1.9,2.2c0.4,1.6,0,4.3,1,3.5c0.9-0.9,0.9-2.2,2-3.2 c1.3-1,0-2.3,0-4.3s-1-4.2-3-5c-1.9-1-0.9-2.2-1.7-3.6c-0.9-1.6-2.6-2.6-3.7-3c-1.3-0.4,3.5-0.1,5.5,0.9c2.3,1.2,5,0.6,4.3,1.7 c-0.7,1,3.2,4.8,2.9,5.8c-0.3,1.2,2.2,4.3,2.9-0.1c1.2,1.4,1,6.3-0.9,6.8c-2.7,0.7-0.4,5-3.2,5c-2.2,0-3,0.9-3.6,1.9 c-1.2,2-1.9-0.1-2.9,2c-0.9,1.9-1,1.9-2.6,0.7c-1.4-1.3-1.7-0.3-2,0.3c-0.9,1.2-2.3,0-4.2,1.7c-1.6,1.4-1.6-1-4.3,1.3 c-2.9,2.3-3.8-2.2-7.9,0.6c-3.5,2.3-8.2,4-14.6,0.9c-0.6-0.3-0.1,0.3,0.3,1.3c0.6,0.9,0.3,1.2-1.2,0.3c-1.2-0.6-2.3-1.2-2.3,0.1 c0,0.9-0.9,0.4-1.9,0c-1.2-0.4-2.3-1-3.9-0.7C306,397.1,305.5,396.7,303.7,395.1L303.7,395.1z"/> <path class="st13" d="M316.9,396.5c0,0-1.4-1.4-1.4-2.3c0.1-0.7,2.5,1.3,3.2,1.6c0.6,0.3,2.7,0.1,3.3,0.7c0.4,0.4,5.2,0.1,5.3-1 c0.7-3,2.6-2.6,2.5-3.8c-0.3-1.2,0.3-2.3-1-3.6c-1.6-1.6,1.4-1.3,0-2.5c-1.4-1.3-2.6-2.5-1.6-2.5s-0.1-1.2-1-1.3 c-0.9-0.1-1.4-2.3-2.5-2.6c-1.2-0.1-2.4-1.4-0.6-1.2c2.3,0.4,3.5,2.9,4.5,2.7c0.4-0.1,1.3,0.6,2.2,1.7c0.9,1,2.3,2.7,0.6,2.3 c-1.6-0.4,0,1.2,0.9,1.6s1.9,2.3,1,2.7c-1,0.3,0.3,2.5,1.2,2.2c0.7-0.3,2.2,0,2.9,0.6c0.7,0.4,2.5,1.3,2.7,0.4 c0.1-0.9,1.3-0.7,2.4-0.3c1.2,0.3,2.5,0.1,2.6-1.3c0.3-1.4,2.5-0.3,2.3-2c-0.1-1.7,1-1.2,0.4-3.2s2.2-1,0.3-2.7 c-1.9-1.7-2.9-2.2-2-2.3c0.7,0,0.9-1.2,0-1.6s-2.3-1-1.6-1.2c0.6-0.4-0.1-0.7-1-0.9c-0.9,0,0.3-1.3-0.7-1.9c-1-0.4-0.3-0.7,1.2,0 c1.2,0.6,2.9,2.5,3.2,3.2c0.3,1.3,2.3,2,2.6,2.9c0.3,1,2,2.2,1.4,3.6c-0.9,2.2,1.2,1.6,1.2,2.7c0,1.3,2,0.7,2.5-0.1 c0.4-1,2.6-1.3,2.6-2.3c0-0.9,1.2-1.7,2-2.7c1.3-1.4-1-1.3-0.1-2.3c0.9-1.2,0.4-1-0.1-1.7c-0.6-0.9-0.1-1.9-1-2.6 c-0.9-0.9-0.1-1.3,0.1-1.4c0.3-0.1-0.1-0.1-0.9-0.4c-0.6-0.1-0.4-1.7-1.9-2.2c-1.3-0.3-1.2-1-0.6-1.2c0.4-0.1,0.3-1.2-0.6-1.3 c-0.9,0-0.3-0.6,0.9-0.4s1.6,1,1,1.6s1.7,0.9,1.9,1.9c0,1.2,2,1.2,1.9,2.6c-0.3,1.4-0.6,1.2,0.1,2c0.7,0.7,0.4,2.9,1.3,2.9 c0.7-0.1,1.3,0.4,1.6-0.9c0.4-1.2,1.6-1.9,1.6-3.2c0.4,1.6,0.1,4.8-0.9,5.5c-1.2,0.7-1.6,0.3-1.7,2.2c-0.3,2.2-0.7,3-2,2.9 c-1.4-0.1-2.7,0.6-3.5,1.9c-1.2,2.2-1.9,0.1-2.7,1.7c-0.7,1.2-0.9,2.6-2.3,1.7c-1.2-1-2-1.6-2.4-0.6c-0.4,1.2-1.2,0.9-2.2,1 c-2.2,0.3-2,2-3.7,1.4c-1.3-0.4-1.7,0-2.3,0.4c-0.7,0.4-1.6,1.6-2.7,1c-1.3-0.7-3-1.4-5-0.3c-1.9,1-4,3-9.1,2.9 c-2.7-0.1-4.2-1-5.2-1.4C316.7,395.8,316.6,395.9,316.9,396.5L316.9,396.5z"/> <path class="st4" d="M126.9,386.6c-4.3,1.2-4,2.3-4.8,4.2c-1.2,2.5-4.2,6.4-11.7,7.5c-3.5,0.6-5.2,1.2-6.6,3.3 c-1.3,2.2-5,3.9-7.8,4.6c-2.6,0.6-2.7,1.3-2.7,1.3s0-1.6-1-1.6c-1.6,0.1-3.3,3.3-5.6,2.6c-1.9-0.7-2.3,0.3-2.9,1 c-0.6,0.9-1.3,2.6-3,1.7c-1.6-1-2.5-0.4-3,0c-0.4,0.3-1.9,1-4-0.9c0,0,2,0.7,2.7-0.1c0.7-1-1.6-0.6-2.5-2c-1-1.3,2,1,4.5,0.6 c2.3-0.4-0.3-1.2,2-1.3c2.3,0-1.4-2.6,1.9-2.5c3.5,0.1,2.9-0.7,1-1.3c-1.9-0.6,0.7-0.7,2.2-1.4c2-0.9,0.3-3.6,1.6-2.7 c1.4,0.7,1-1.3,2.5,0c1.6,1.3,2,0.9,3.2,0c1-1,2,0.1,2.5-1.7c0.6-1.7,1.9,0.4,1.7-1.7c-0.1-2.3,1.3-2.3-1-3.8 c-2.3-1.6-0.4-2.3-2.9-2.5c-2.3-0.1-2.5-2.6-4.2-2.9c-1.9-0.1-1.9-1.4,2.5-1.2c4.6,0.3,8.2-0.3,10,1.3c1.6,1.6,3.9,0.6,4.8,2.6 c0.7,2,1.4,0.6,2.6-0.3c1.2-1,4.9-1.3,3.6-4.3c-1.4-2.9,1.6-2.6-0.4-4s0.9-2.2-3.5-2.6s-2.7-2-5.5-2.6s-1.2-1.3,1.6-1.7 c2.7-0.3,8.2-1.9,9.5-0.6c1.2,1.6,2.7,0.6,3.8,2c2.3,2.7,3.3-0.3,4,1.4c0.9,1.9,2.6-0.7,4.5-0.1c2.2,0.6,2.2-0.7,1.3-1.4 c-1-0.7,1.4-1.3,2.6-0.6c1.2,0.7-2.5-3,0.3-2.2c2.7,0.9,2.2-0.7,1.3-2c-1-1.3,3.3-0.4-0.1-3c-3.6-2.5,2-0.7,2-0.7 c2,0,4.3-1.7,1.3-2.7s2.5-1.6-0.3-3.8c-2.7-1.9,2.5-1.9-2.7-4.3c-4.9-2.3,2.7-2.7-2.3-2.7s1.4-2.3-2.6-2.6c-4-0.4,2.3-0.7-2.2-2.3 c-4.3-1.7,4.8-1,2.7-4.5c-2-3.3-3-2.6-7.6-3c-4.8-0.3,1-1-6.1-3.6c-7.1-2.7-5.8-7.1-3.5-5.8c2.4,1.3-7.6-5.3-3.6-4.3s2.3-2-3-4 c-5.5-2-10.1-5-11.1-6.8s6.1,1.4,11.1,3.3c5,2,2.3-2.3,6.6,1.4c4.3,3.6,6.5,3.6,2.4-1.4s0-0.4,1.6,0.1c1.7,0.7,4,0.3,1.9-2 c-2.2-2.5-3.3-3.5-1-2.5s4.6,1.2,2.7-0.4c-1.9-1.7,3.6,0.1,0.6-1.9c-2.9-2-4.8-3.5-8.5-2.3c-3.8,0.9,0.3-3,3-3s-2.3-1.7-4-3.5 s1.3-1.7,3-0.7s3-0.3,2.3-2.6c-0.6-2.4,2.5-8.1-0.6-6.5c-3,1.7-1-3.9-2.5-2c-1.3,2,0-3.3,2.7-6.1c2.7-2.6,3.6-2.6,3,1.7 c-0.7,4.3,2.7,0.3,2,4s3.3,2.3,0,7.1s-1,6.4,1.7,5.3c2.6-1,2.3,2.4,0.6,3.2c-1.6,0.6,0,2.6,2,5.6s5,7.1,2,5.3c-3-1.6,2.3,3.8-1,3 c-3.3-0.6,4,7.8,3.3,9.5c-0.6,1.6-6.3-6.1-5.3-2.7s5.3,6.4,5.3,8.4s5.8,5,6.2,7.8c0.3,2.7-1.3,3,1.4,4.5c2.7,1.6,4,3.5,0.6,2.2 c-3.6-1.4,0,1.7,1.9,3.6c2.2,1.9,3.5,4.8,0.9,2.9c-2.5-1.9-0.4,1-0.3,2.3c0.1,1.4,3,1.7,1.7,2.7c-1.4,1,5.5,2.9,5.3,4.3 c-0.1,1.6-3,3.3-1.4,4.9c1.4,1.4,3,2.7,0.7,1.7c-2.2-1-2.5-0.9-3-3.5c-0.6-2.6-2.6-2.9-2.6-2.9s-1,6.9-4.5,12.3 C131.2,385,129.9,386.1,126.9,386.6L126.9,386.6z"/> <path class="st13" d="M96.4,389.2c-1.2-0.4-3.6-2.2-1.4-1.4s1.9-0.6,3.3,0.1c1.4,0.7,1.9,2,2.7,1.6c1-0.3-1,0.4,1,0.7 c1.9,0.3,2.2,0.4,2,1.2c-0.1,0.9,0.4,1,2,2.2c1.3,1,1.9,3.2,1.6,4c-0.3,0.9,1.2,1,1.2,1s-3.2,0.6-4.3,2.2c-1.2,1.6-2.5,2.9-4.3,3.8 c1.4-1.7,4.6-4.9,3.2-5.9s-1.7,1.6-2.7-0.7c-1.2-2.2-1.4-4.3-0.4-4.2c0.9,0,1.2-1.6-0.4-1.9c-1.6-0.4,0-2-1.2-1.9 C97.3,389.9,96.4,389.2,96.4,389.2L96.4,389.2z"/> <path class="st13" d="M122.8,389c0,0,0.1-1.7-1.4-2.2s-2.5,1.2-3.3-0.4c-0.9-1.6-0.4-4.5-1.3-4.6c-1-0.3-1.2-2.5-2.6-2.6 s-1-0.7-1.9-1.6c-0.7-0.9-2.3-1.2-2.3-1.2s2.5-0.9,3.2,0.3c1.2,1.7,4.6,1.3,4.9,3.2c0.3,1.9,2.2,0.4,2.6,1.9 c0.4,1.6,1.9,0.7,2.6,1.9c0.6,1.3,1.3,3.3,2.2,1.9c0.7-1.4,1.2,0,1.6,0.1c0.6,0.1,2.9-0.3,4.5-2.5c1.4-2.2,2.3-5.1,3.2-5.5 c1-0.7,0.4-2.7,1.4-3c0.9-0.3-1.6-1.7-2.5-1.4c-0.9,0.1-1.9-1.2-1.4,0c0.3,1.2-1.6,0.6-2-0.3c-0.4-0.9-2-1.6-0.9-2.2 c1-0.4-0.1-1.6-0.3-2.9c0-1.3-0.4-2.2-1.7-2.3c-1.3-0.3-3.8-0.9-4.6-0.9c-1,0-1.3-1.4-1.3-1.4s1.9,0.7,3.8,0.4s3.3,0.3,4.3,1.4 c1,1,1.7,2.2,2.3,1.2c0.7-1,1.9-0.9,2.5-0.1c0.7,0.7,1.7,1.3,1.4,3.5c0,0.9,3.3-2,3.3-2s-0.3,3.9-1.7,7.4 c-1.6,3.3-4.8,10.4-10.1,11.5C123.6,387.4,123.1,388.4,122.8,389L122.8,389z"/> <path class="st13" d="M130.3,346c0,0-2.2-4.3-5-5.2c-2.9-0.9-5.9,0.1-6.5-1.2c-0.4-1.3-2.5-3.8-4.2-4.3s3.3,0,5.6,0.7 c2.5,0.9,3.2-0.1,1.4-1.4c-1.7-1.4-2.7-5.2-1.7-4.3c1,0.7,2.3,1.9,2.6,1.9s-2.5-2.6-2.6-3.9c0-1.4-2.3-3.5-2.5-4.5 c-0.1-1,2,1,2.9,1.6c1,0.4,3.8,1.6,1.6-0.6c-3.9-3.5,0.7-1-2.2-3.5c-1.9-1.6-2.9-3.9-0.9-2.7s2.5-0.4,1.4-1.6 c-1.2-1.2-1-2.5,0.4-1.9s0.3-1.4-0.6-2c-1-0.7,2.2,0.7,3.2,2.3c0.9,1.6-1.2,0.6-0.1,1.9c0.9,1.3,0.9,3.5,0,2.7 c-1-0.7-1,1.7-0.1,3.2c0.9,1.4,5.6,9.4,2.3,6.2c-4.3-3.8-3.5-0.9-2.5,0.9c1.2,1.9,4.2,4.6,4.5,6.8c0.1,2.3,6.2,4.9,6.1,9.1 c-0.1,2.6-1.2,1.7-0.9,3.5C131.2,348.4,130.8,347.2,130.3,346L130.3,346z"/> <path class="st24" d="M236.1,156.1c0-0.7-0.1-2.7-0.6-3.7c-0.6-1,0-2,0-2s0.9,1.9,1,3.3c0.1,1.4,0.3,2.4,0.3,2.4 S236.7,157.7,236.1,156.1L236.1,156.1z"/> <path class="st6" d="M226.3,151.2c1.4-0.4,2.6-2.3,3.2-3.2s1.4,0.3,1.2,1.6s0.4,2.9,0.6,3.2C231.3,153,227.6,151.2,226.3,151.2 L226.3,151.2z"/> <path class="st6" d="M240.1,151.6c-0.4-0.9-0.3-2.3-0.9-3s0-2.5,1.2-1.3c1.3,1,2.9,1.7,2.9,1.7S240.5,149.9,240.1,151.6 L240.1,151.6z"/> <path class="st25" d="M219.9,168.6c0,0,0.6,1,3.8,1.1c3.2,0,5.6,0.9,11.7-0.6c5.1-1.3,1.6-1.4-0.7-0.7c-2.6,0.7-4.5,0.9-8.4,0.9 C221.9,169.3,219.9,168.6,219.9,168.6L219.9,168.6z"/> <path class="st26" d="M49,216.7l0.9-0.7"/> </g> </svg>